<svg width="15" height="17" viewBox="0 0 15 17" fill="none" xmlns="http://www.w3.org/2000/svg">
<path fill-rule="evenodd" clip-rule="evenodd" d="M10.1765 1.15579C10.8364 1.79585 11.1794 2.59949 11.1644 3.43749L12.3712 3.47638L13 17L0 15.4614L2.24105 3.15244L3.45104 3.19066C3.45109 3.17972 3.45111 3.16879 3.45113 3.15785C3.45123 3.09555 3.45134 3.03314 3.45687 2.97005C3.61378 1.16551 5.43442 -0.171318 7.59281 0.0178475C8.59114 0.104361 9.50876 0.508274 10.1765 1.15579ZM9.44588 1.03174C9.30324 0.927092 9.0848 1.00775 9.00246 1.14802C8.9062 1.31228 8.97654 1.48686 9.1185 1.59082C9.46239 1.84319 9.72624 2.17777 9.92072 2.5545C10.1123 2.92602 10.6717 2.59822 10.4805 2.22766C10.2329 1.74791 9.8802 1.35013 9.44588 1.03174ZM7.19609 1.62031C6.07718 1.62031 5.14401 2.27492 5.07139 3.11032C5.06749 3.15471 5.06812 3.19879 5.06916 3.2425L9.54641 3.38568C9.54477 3.00799 9.37171 2.63257 9.04756 2.31835C8.64693 1.92962 8.08065 1.68575 7.45281 1.63131C7.36628 1.62422 7.28103 1.62031 7.19609 1.62031ZM3 4.5L1.5 14.5L11.5 15.5V5L3 4.5Z" fill="#9B6B0C"/>
<path d="M15 13.5435L13 3L13.6754 16L14.9241 13.8555L13.988 13.6451L14.038 13.3273L15 13.5435Z" fill="#9B6B0C"/>
</svg>
