<svg width="38" height="38" viewBox="0 0 38 38" fill="none" xmlns="http://www.w3.org/2000/svg">
<path d="M38 30.6302H0V7.36987H38V30.6302ZM1.20006 29.4309H36.7994V8.5705H1.20006V29.4309Z" fill="#898989"/>
<path d="M17.9062 16L16.1191 19.9758L14.3397 16H12.0587V21.7077L9.51847 16H7.59408L5 21.9271H6.53438L7.10272 20.6031H10.0085L10.5833 21.9271H13.5148V17.5254L15.4584 21.9271H16.7824L18.7735 17.6011V21.9271H20.2283V16H17.9062ZM7.65181 19.3228L8.52035 17.2509L9.42353 19.3228H7.65181Z" fill="#898989"/>
<path d="M30.3949 18.8981L33.0005 16.0128H31.1492L29.4814 17.8525L27.8688 16.0012H22.1328V21.9283H27.6815L29.4288 19.9693L31.1338 21.9412H32.9787L30.3949 18.8981ZM26.922 20.6839H23.5671V19.5126H26.777V18.3862H23.5671V17.2764L27.108 17.2854L28.5244 18.8994L26.922 20.6839Z" fill="#898989"/>
</svg>
