<svg width="19" height="19" viewBox="0 0 19 19" fill="none" xmlns="http://www.w3.org/2000/svg">
<path d="M14.1626 4.00996C14.8907 4.00996 15.4805 3.42406 15.4805 2.69462V1.31795C15.4805 0.587858 14.8914 0 14.1626 0C13.4338 0 12.8453 0.587205 12.8453 1.31795V2.69527C12.8459 3.42406 13.4344 4.00996 14.1626 4.00996Z" fill="#B6B6B6"/>
<path d="M18.8451 2.27962H16.1922V2.94969C16.1922 4.05559 15.2938 4.95662 14.1859 4.95662C13.0768 4.95662 12.1803 4.05559 12.1803 2.94969V2.27962H6.82694V2.94969C6.82694 4.05559 5.92721 4.95662 4.82001 4.95662C3.7128 4.95662 2.81372 4.05624 2.81372 2.94969V2.27962L0.136719 2.24635V19H17.5284L18.8653 18.996L18.8451 2.27962ZM1.47555 17.6657V6.96291H17.5284V17.6657H1.47555Z" fill="#B6B6B6"/>
<path d="M4.79881 4.00996C5.52695 4.00996 6.11741 3.42406 6.11741 2.69462V1.31795C6.11741 0.587205 5.52695 0 4.79881 0C4.07068 0 3.48217 0.587205 3.48217 1.31795V2.69527C3.48217 3.42406 4.07003 4.00996 4.79881 4.00996Z" fill="#B6B6B6"/>
<path d="M8.93833 8.39897H6.83026V10.2598H8.93833V8.39897Z" fill="#B6B6B6"/>
<path d="M12.3491 8.39897H10.2391V10.2598H12.3491V8.39897Z" fill="#B6B6B6"/>
<path d="M15.5087 8.39897H13.4007V10.2598H15.5087V8.39897Z" fill="#B6B6B6"/>
<path d="M8.93833 11.489H6.83026V13.3485H8.93833V11.489Z" fill="#B6B6B6"/>
<path d="M12.3491 11.489H10.2391V13.3485H12.3491V11.489Z" fill="#B6B6B6"/>
<path d="M15.5087 11.489H13.4007V13.3485H15.5087V11.489Z" fill="#B6B6B6"/>
<path d="M8.93833 14.6403H6.83026V16.4998H8.93833V14.6403Z" fill="#B6B6B6"/>
<path d="M5.58893 11.489H3.48217V13.3485H5.58893V11.489Z" fill="#B6B6B6"/>
<path d="M5.58893 14.6403H3.48217V16.4998H5.58893V14.6403Z" fill="#B6B6B6"/>
<path d="M12.3491 14.6403H10.2391V16.4998H12.3491V14.6403Z" fill="#B6B6B6"/>
<path d="M15.5087 14.6403H13.4007V16.4998H15.5087V14.6403Z" fill="#B6B6B6"/>
</svg>
