<svg fill="none" height="20" viewBox="0 0 25 20" width="25" xmlns="http://www.w3.org/2000/svg"><g fill="#fff"><path d="m10.2462 19.9999c.9866 0 1.7863-.8144 1.7863-1.819 0-1.0047-.7997-1.8191-1.7863-1.8191-.9865 0-1.78624.8144-1.78624 1.8191 0 1.0046.79974 1.819 1.78624 1.819z"/><path d="m18.7893 16.3818c-.9708-.0989-1.8446.6327-1.9416 1.6213-.0971.9886.6213 1.8783 1.5921 1.9772.1165.0198.233.0198.3495 0 .9708-.0989 1.6891-.9886 1.5921-1.9772-.0777-.87-.7378-1.5423-1.5921-1.6213z"/><path d="m23.8657 5.76429.0063.01014.0079.00901c.1288.14759.1785.36316.1119.51248l-.0055.01229-.0032.01308-.1553.63272-.0001.00026-.6019 2.47154v.00012l-.4077 1.68047-.0001.0002-.6018 2.4714-.0001.0003-.2524 1.048h-.0001l-.001.0047c-.0636.3077-.3336.5329-.6492.5329h-.1359-3.3978-1.6503-3.126-1.6504-2.67942-1.14554c-.20631 0-.37607-.078-.50174-.218-.07652-.1172-.13123-.2067-.14544-.3225l.00056-.0001-.0027-.0128-.21357-1.0083-.00001-.0001-.52424-2.4715-.00022-.001-.36868-1.67965-.00022-.00104-.52401-2.4705-.00023-.00103-.3689-1.68064-.0002-.00087-.38832-1.72019-.00026-.00112c-.11274-.48218-.54144-.82765-1.03919-.82765h-1.78628c-.37367 0-.738687-.16926-1.012562-.39975-.136187-.11462-.245751-.24107-.320295-.36275-.075709-.12358-.109267-.23215-.109267-.31338 0-.15659.015645-.25757.042427-.32476.023914-.05999.057408-.09544.110288-.12199.060097-.03017.150429-.05115.291147-.06272.139327-.01146.312669-.01278.532272-.01278h.00001.00001.00001.00001.00001.00001.00001.00001.00001.00001.00001.00001.00001.00001.00001.00002.00001.00001.00001.00002.00001.00002.00001.00002.00001.00002.00001.00002.00002.00002.00001.00002.00002.00002.00002.00002.00002.00002.00002.00003.00002.00002.00002.00003.00002.00002.00003.00002.00003.00002.00003.00003.00002.00003.00003.00003.00003.00002.00003.00003.00003.00003.00003.00004.00003.00003.00003.00003.00004.00003.00003.00004.00003.00004.00003.00004.00003.00004.00004.00003.00004.00004.00004.00003.00004.00004.00004.00004.00004.00004.00004.00005.00004.00004.00004.00004.00005.00004.00005.00004.00004.00005.00004.00005.00005.00004.00005.00005.00004.00005.00005.00005.00004.00005.00005.00005.00005.00005.00005.00005.00006.00005.00005.00005.00005.00006.00005.00005.00006.00005.00006.00005.00006.00005.00006.00005.00006.00006.00005.00006.00006.00006.00006.00005.00006.00006.00006.00006.00006.00006.00006.00006.00007.00006.00006.00006.00006.00007.00006.00006.00007.00006.00007.00006.00006.00007.00007.00006.00007.00006.00007.00007.00006.00007.00007.00007.00007.00006.00007.00007.00007.00007.00007.00007.00007.00007.00008.00007.00007.00007.00007.00007.00008.00007.00007.00008.00007.00008.00007.00007.00008.00007.00008.00008.00007.00008.00007.00008.00008.00007.00008.00008.00008.00008.00007.00008.00008.00008.00008.00008.00008.00008.00008.00008.00008.00008.00008.00009.00008.00008.00008.00008.00009.00008.00008.00009.00008.00008.00009.00008.00009.00008.00009.00008.00009.00008.00009.00008.00009.00009.00008.00009.00009.00009.00008.00009.00009.00009.00009.00008.00009.00009.00009.00009.00009.00009.00009.00009.00009.00009.00009.00009.0001.00009.00009.00009.00009.0001.00009.00009.00009.0001.00009.00009.0001.00009.00009.0001.00009.0001.00009.0001.00009.0001.00009.0001.00009.0001.0001.00009.0001.0001.00009.0001.0001.00009.0001.0001.0001.0001.00009.0001.0001.0001.0001.0001.0001.0001.0001.00009.0001.0001.0001.0001.00011.0001.0001.0001.0001.0001.0001.0001.0001.00011.0001.0001.0001.0001.00011.0001.0001.0001.00011.0001.0001.00011.0001.0001.00011.0001.00011.0001.00011.0001.0001.00011.0001.00011.0001.00011.0001.00011.00011.0001.00011.0001.00011.0001.00011.00011.0001.00011.00011.0001.00011.00011.00011.0001.00011.00011.0001.00011.00011.00011.00011.0001.00011.00011.00011.00011.00011.0001.00011.00011.00011.00011.00011.00011.00011.00011.00011.00011.00011.00011.00011.00011.00011.00011.00011.00011.00011.00011.00011.00011.00011.00011.00011.00011.00011.00011.00011.00011.00012.00011.00011.00011.00011.00011.00011.00012.00011.00011.00011.00011.00011.00012.00011.00011.00011.00011.00012.00011.00011.00011.00012.00011.00011.00011.00012.00011.00011.00011.00012.00011.00011.00012.00011.00011.00012.00011.00011.00011.00012.00011.00011.00012.00011.00011.00012.00011.00011.00012.00011.00011.00012.00011.00011.00012.00011.00012.00011.00011.00012.00011.00011.00012.00011.00011.00012.00011.00012.00011.00011.00012.00011.00011.00012.00011.00012.00011 1.9203c.77077.01959 1.33501.16498 1.74339.43918.4028.27045.67125.67795.82958 1.26023.01054.07176.02554.13797.03919.19822l.00052.00228c.01473.06502.02787.12336.03658.18542l-.00037.00005.0022.01035.34926 1.63999c.07291.36818.38828.61417.74884.61417h1.86394 1.74744 1.6504 4.7763 1.6504 4.1356.6213c.209 0 .4092.09859.5136.26562zm-12.8869 3.59815h.0004l-.0009-.0118-.1744-2.20998c-.0022-.07431-.0378-.13718-.0793-.17937-.0426-.04339-.1082-.08198-.1871-.08198h-3.5337c-.18385 0-.30137.17837-.26269.34175l.48285 2.20287c.00397.0349.01674.06402.0286.08474.01515.02644.03475.04964.05589.06878.03967.03591.10309.07339.18075.07339h3.2231c.1579 0 .2665-.14441.2665-.2884zm-2.85947 4.22386.00161.0073.00235.0072c.02003.0612.05779.1071.09131.137.0172.0153.03617.029.05586.0398.01358.0074.04849.0254.09247.0254h2.67937c.158 0 .2665-.1444.2665-.2884h.0005l-.0009-.0118-.1744-2.21c-.0022-.0743-.0378-.1371-.0793-.1793-.0426-.0434-.1082-.082-.1871-.082h-2.97066c-.18385 0-.30137.1783-.2627.3417zm4.40397-2.2664h-.0005l.001.0118.1743 2.21c.0022.0743.0379.1372.0793.1793.0426.0434.1083.082.1871.082h3.1843c.0788 0 .1445-.0386.1871-.082.0414-.0421.0771-.105.0793-.1793l.1736-2.2001c.0155-.0805-.0055-.1602-.0582-.2199-.0537-.0607-.1306-.0902-.2071-.0902h-3.5337c-.158 0-.2665.1444-.2665.2884zm-.3301-4.15218h-.0004l.0009.0118.1744 2.20997c.0022.07431.0378.13718.0792.17937.0427.0434.1083.08198.1872.08198h3.8638c.0793 0 .1429-.03897.1838-.0765.0422-.03866.0765-.08997.0946-.14547l.0056-.01702.0014-.01784.174-2.20458c.0155-.08052-.0055-.16023-.0582-.2199-.0537-.06071-.1306-.09022-.2071-.09022h-4.2327c-.158 0-.2665.14444-.2665.28841zm10.2367.05553-.1456-.03576.1456.03576c.0403-.16399-.0775-.34394-.2622-.34394h-3.5919c-.0789 0-.1445.03859-.1871.08198-.0415.0422-.0771.10508-.0793.17939l-.1736 2.20005c-.0155.08052.0054.16024.0582.21991.0536.0607.1305.0902.207.0902h3.2231c.0642 0 .1205-.02935.1587-.0596.0411-.0326.0801-.08073.1004-.14259l.0004.00013.0027-.01104zm-4.3784 6.57975h2.5241c.1021 0 .253-.0696.2657-.2272l.5402-2.2004c.0402-.1639-.0775-.3439-.2622-.3439h-2.893c-.0789 0-.1445.0386-.1871.082-.0415.0422-.0771.105-.0793.1794l-.1736 2.2c-.0155.0805.0055.1602.0582.2199.0537.0607.1305.0902.207.0902z" stroke="#1884a1" stroke-width=".3"/></g></svg>