<svg width="25" height="25" viewBox="0 0 25 25" fill="none" xmlns="http://www.w3.org/2000/svg">
<g clip-path="url(#clip0)">
<path d="M23.5825 8.65101C23.7621 8.83064 24.0495 8.83064 24.224 8.65101L24.8655 8.0095C25.0451 7.82987 25.0451 7.54247 24.8655 7.36798L23.4131 5.91558C23.2335 5.73595 22.9461 5.73595 22.7716 5.91558L22.1301 6.5571C21.9504 6.73672 21.9504 7.02412 22.1301 7.19862L22.1916 7.2602L21.74 7.71183C20.6007 6.80857 19.2201 6.20811 17.7061 6.03362V5.21247H18.204C18.4554 5.21247 18.6556 5.00719 18.6556 4.76084V3.42648C18.6556 3.17501 18.4503 2.97485 18.204 2.97485H15.3197C15.0682 2.97485 14.8681 3.18014 14.8681 3.42648V4.76084C14.8681 5.01232 15.0733 5.21247 15.3197 5.21247H15.8175V6.03362C14.3035 6.21324 12.9178 6.8137 11.7836 7.71183L11.332 7.2602L11.3936 7.19862C11.5732 7.01899 11.5732 6.73159 11.3936 6.5571L10.7521 5.91558C10.5724 5.73595 10.285 5.73595 10.1106 5.91558L8.65816 7.36798C8.47853 7.5476 8.47853 7.835 8.65816 8.0095L9.29968 8.65101C9.4793 8.83064 9.7667 8.83064 9.94119 8.65101L10.0028 8.58943L10.4544 9.04106C9.37666 10.4062 8.73514 12.1306 8.73514 13.9987C8.73514 18.4226 12.3379 22.0254 16.7618 22.0254C21.1857 22.0254 24.7885 18.4226 24.7885 13.9987C24.7885 12.1306 24.1419 10.4062 23.0692 9.04106L23.5209 8.58943L23.5825 8.65101ZM16.7618 20.1676C13.3643 20.1676 10.5981 17.4013 10.5981 14.0039C10.5981 10.6064 13.3643 7.84013 16.7618 7.84013C20.1593 7.84013 22.9255 10.6064 22.9255 14.0039C22.9255 17.4013 20.1593 20.1676 16.7618 20.1676Z" fill="#DADADA"/>
<path d="M3.25935 16.1543C2.81799 16.1543 2.46387 16.5136 2.46387 16.9498C2.46387 17.3911 2.82312 17.7453 3.25935 17.7453H7.57549C7.66274 17.7453 7.73972 17.7299 7.8167 17.7042C7.61142 17.2064 7.44206 16.688 7.32402 16.1492H3.25935V16.1543Z" fill="#DADADA"/>
<path d="M7.81114 10.3138C7.73929 10.2932 7.65717 10.2727 7.57506 10.2727H0.795484C0.354119 10.2727 0 10.632 0 11.0682C0 11.5096 0.359251 11.8637 0.795484 11.8637H7.31845C7.43649 11.3402 7.60072 10.8167 7.81114 10.3138Z" fill="#DADADA"/>
<path d="M7.08222 14.0037C7.08222 13.7369 7.09761 13.4751 7.11814 13.2134H1.90388C1.46252 13.2134 1.1084 13.5726 1.1084 14.0089C1.1084 14.4451 1.46765 14.8043 1.90388 14.8043H7.11301C7.09761 14.5426 7.08222 14.2758 7.08222 14.0037Z" fill="#DADADA"/>
<path d="M20.6363 11.7097C20.5029 11.489 20.2258 11.4018 19.9948 11.5198L17.2183 12.8798C16.8745 12.7413 16.4742 12.7566 16.1303 12.9568C15.5504 13.3007 15.3554 14.05 15.6992 14.6299C16.0431 15.2098 16.7924 15.4048 17.3723 15.061C17.7162 14.8557 17.9214 14.5118 17.9625 14.1475L20.4926 12.3666C20.7082 12.2177 20.7698 11.9355 20.6363 11.7097ZM17.2748 14.1371C17.1978 14.4245 16.9053 14.5939 16.623 14.5221C16.3356 14.4451 16.1663 14.1525 16.2381 13.8703C16.3151 13.5829 16.6076 13.4135 16.8899 13.4854C17.1773 13.5573 17.3466 13.8549 17.2748 14.1371Z" fill="#DADADA"/>
<path d="M18.496 10.9451C18.7372 11.0836 19.0452 10.9964 19.1786 10.7552C19.3172 10.514 19.2299 10.206 18.9887 10.0726C18.7475 9.93404 18.4447 10.0213 18.3061 10.2625C18.2137 10.4267 18.224 10.6166 18.3113 10.7654C18.3575 10.8322 18.419 10.8989 18.496 10.9451Z" fill="#DADADA"/>
<path d="M16.7305 10.4832C17.0076 10.4832 17.2283 10.2574 17.2283 9.98024C17.2283 9.7031 17.0025 9.48242 16.7254 9.48242C16.4482 9.48242 16.2275 9.70824 16.2275 9.98537C16.2275 10.0777 16.2532 10.165 16.2943 10.2368C16.3815 10.3857 16.5457 10.4884 16.7305 10.4832Z" fill="#DADADA"/>
<path d="M16.7976 17.5349C16.5205 17.54 16.2998 17.7659 16.2998 18.043C16.2998 18.1354 16.3255 18.2175 16.3665 18.2893C16.4538 18.4382 16.618 18.5408 16.8028 18.5357C17.0799 18.5305 17.3006 18.3047 17.2954 18.0276C17.3006 17.7607 17.0748 17.5349 16.7976 17.5349Z" fill="#DADADA"/>
<path d="M18.5522 17.0474C18.3161 17.1859 18.234 17.4939 18.3777 17.7299C18.5163 17.9711 18.8242 18.0481 19.0655 17.9044C19.3015 17.7659 19.3837 17.4579 19.24 17.2219C19.0963 16.9857 18.7883 16.9087 18.5522 17.0474Z" fill="#DADADA"/>
<path d="M20.5131 15.5591C20.2719 15.4257 19.964 15.5078 19.8305 15.749C19.7382 15.9132 19.7484 16.098 19.8357 16.2519C19.8767 16.3238 19.9434 16.3905 20.0204 16.4316C20.2616 16.5701 20.5696 16.4829 20.703 16.2417C20.8364 16.0005 20.7543 15.6925 20.5131 15.5591Z" fill="#DADADA"/>
<path d="M13.2302 14.0501C13.2302 13.7729 12.9993 13.5522 12.7273 13.5522C12.4502 13.5574 12.2295 13.7832 12.2295 14.0603C12.2295 14.1527 12.2552 14.2348 12.2962 14.3067C12.3835 14.4555 12.5477 14.5582 12.7324 14.553C13.0147 14.553 13.2354 14.3272 13.2302 14.0501Z" fill="#DADADA"/>
<path d="M13.0405 15.6306C12.8044 15.7692 12.7223 16.0771 12.866 16.3132C13.0046 16.5492 13.3125 16.6313 13.5537 16.4877C13.7898 16.3491 13.8668 16.0412 13.7282 15.8C13.5845 15.569 13.2766 15.4869 13.0405 15.6306Z" fill="#DADADA"/>
<path d="M20.2872 13.978C20.2872 14.0704 20.3129 14.1525 20.359 14.2295C20.4463 14.3784 20.6105 14.4759 20.7953 14.4759C21.0724 14.4759 21.2931 14.2449 21.2931 13.9729C21.2931 13.6958 21.0673 13.4751 20.7901 13.4751C20.5079 13.4751 20.2821 13.706 20.2872 13.978Z" fill="#DADADA"/>
<path d="M13.005 12.4743C13.2462 12.6129 13.5542 12.5256 13.6876 12.2844C13.821 12.0432 13.7389 11.7404 13.4926 11.6018C13.2514 11.4684 12.9486 11.5505 12.81 11.7917C12.7227 11.9508 12.7279 12.1407 12.8151 12.2947C12.8613 12.3665 12.9229 12.4282 13.005 12.4743Z" fill="#DADADA"/>
<path d="M14.96 10.9811C14.96 10.9811 14.9651 10.9811 14.9651 10.976C14.9702 10.976 14.9702 10.976 14.9702 10.9709C14.9702 10.9709 14.9702 10.9709 14.9754 10.9709C15.2115 10.8323 15.2884 10.5244 15.1499 10.2883C15.0113 10.0471 14.7034 9.97009 14.4622 10.1087C14.4622 10.1087 14.457 10.1087 14.457 10.1138C14.4519 10.1138 14.4519 10.1189 14.4468 10.1189C14.2107 10.2575 14.1286 10.5654 14.2723 10.8015C14.416 11.0428 14.7239 11.1197 14.96 10.9811Z" fill="#DADADA"/>
<path d="M15.0268 17.0831C14.7856 16.9445 14.4776 17.0318 14.3442 17.273C14.2518 17.4372 14.2621 17.6271 14.3493 17.7759C14.3904 17.8478 14.4571 17.9145 14.5341 17.9607C14.7753 18.0941 15.0832 18.0069 15.2167 17.7708C15.3552 17.5245 15.268 17.2217 15.0268 17.0831Z" fill="#DADADA"/>
</g>
<defs>
<clipPath id="clip0">
<rect width="25" height="25" fill="white"/>
</clipPath>
</defs>
</svg>
