<svg width="26" height="26" viewBox="0 0 26 26" fill="none" xmlns="http://www.w3.org/2000/svg">
<path d="M13.0326 14.7339H13.0382C13.2343 14.7339 13.428 14.677 13.5848 14.5734L13.6273 14.5461C13.6366 14.54 13.6463 14.5346 13.656 14.5281L14.1513 14.1183L25.9727 4.36304C25.9483 4.32926 25.9066 4.30615 25.8622 4.30615H0.13735C0.105444 4.30615 0.0758333 4.31771 0.0522549 4.33712L12.4203 14.5312C12.5762 14.6603 12.7986 14.7339 13.0326 14.7339ZM0 5.68844V20.1486L8.85997 12.9913L0 5.68844ZM17.1493 13.0399L26 20.1523V5.73653L17.1493 13.0399ZM14.3353 15.3614C13.9825 15.6509 13.521 15.8104 13.0363 15.8104C12.5498 15.8104 12.0888 15.6518 11.7369 15.3637L9.70764 13.6901L0 21.5309V21.5558C0 21.6303 0.0638105 21.6937 0.139176 21.6937H25.8627C25.9366 21.6937 26 21.6303 26 21.5554V21.5323L16.3007 13.7391L14.3353 15.3614Z" fill="#FDB932"/>
</svg>
