<svg width="18" height="18" viewBox="0 0 18 18" fill="none" xmlns="http://www.w3.org/2000/svg">
<g clip-path="url(#clip0)">
<path d="M16.227 15.4625H1.81195C0.805308 15.4625 0 14.6572 0 13.6506V4.34931C0 3.34266 0.805308 2.53735 1.81195 2.53735H16.1867C17.1933 2.53735 17.9986 3.34266 17.9986 4.34931V13.6506C18.0389 14.6572 17.1933 15.4625 16.227 15.4625ZM1.81195 3.74533C1.48981 3.74533 1.20798 4.0272 1.20798 4.34931V13.6506C1.20798 13.9727 1.48985 14.2546 1.81195 14.2546H16.1867C16.5088 14.2546 16.7907 13.9727 16.7907 13.6506V4.34931C16.7907 4.02717 16.5088 3.74533 16.1867 3.74533H1.81195Z" fill="#FDB932"/>
<path d="M9.02162 11.2346C8.86055 11.2346 8.73975 11.1944 8.61899 11.0736L0.56587 3.9466C0.324267 3.74526 0.283999 3.34263 0.525603 3.10103C0.726939 2.85942 1.12957 2.81916 1.37118 3.06076L9.02158 9.82535L16.672 3.06076C16.9136 2.85942 17.3162 2.85942 17.5176 3.10103C17.7189 3.34263 17.7189 3.74526 17.4773 3.9466L9.42422 11.0736C9.30345 11.1541 9.14242 11.2346 9.02162 11.2346Z" fill="#FDB932"/>
<path d="M0.726318 14.899C0.565249 14.899 0.40418 14.8184 0.283415 14.6976C0.0418118 14.456 0.0820791 14.0534 0.323683 13.8521L6.04137 8.45651C6.28298 8.21491 6.68561 8.25517 6.88695 8.49678C7.12855 8.73838 7.08828 9.14102 6.84668 9.34235L1.16922 14.7379C1.04846 14.8184 0.887387 14.899 0.726318 14.899Z" fill="#FDB932"/>
<path d="M17.2757 14.8988C17.1146 14.8988 16.9938 14.8586 16.873 14.7378L11.1553 9.34221C10.9137 9.10061 10.9137 8.73824 11.1151 8.49664C11.3567 8.25503 11.719 8.25503 11.9606 8.45637L17.6783 13.8519C17.9199 14.0935 17.9199 14.4559 17.7186 14.6975C17.5978 14.8183 17.4367 14.8988 17.2757 14.8988Z" fill="#FDB932"/>
</g>
<defs>
<clipPath id="clip0">
<rect width="18" height="18" fill="white"/>
</clipPath>
</defs>
</svg>
