<svg width="11" height="9" viewBox="0 0 11 9" fill="none" xmlns="http://www.w3.org/2000/svg">
<path d="M10.9475 4.31074C10.8603 4.16574 8.77488 0.759033 5.5 0.759033C2.22512 0.759033 0.139687 4.16574 0.0525386 4.31074C-0.0175129 4.42723 -0.0175129 4.57287 0.0525386 4.68936C0.139687 4.83437 2.22512 8.24107 5.5 8.24107C8.77488 8.24107 10.8603 4.83437 10.9475 4.68936C11.0175 4.57287 11.0175 4.42723 10.9475 4.31074ZM5.5 7.50627C3.05432 7.50627 1.27849 5.18629 0.806646 4.49974C1.27761 3.81235 3.04834 1.49389 5.5 1.49389C7.94568 1.49389 9.72151 3.81387 10.1934 4.50042C9.72239 5.18776 7.95166 7.50627 5.5 7.50627Z" fill="#333333"/>
<path d="M5.49996 3C4.67131 3 4 3.67155 4 4.50004C4 5.32845 4.67131 6 5.49996 6C6.32869 6 7 5.32845 7 4.50004C7 3.67155 6.32869 3 5.49996 3Z" fill="#333333"/>
<path d="M5.49994 2C4.11885 2 3 3.11925 3 4.50006C3 5.88076 4.11885 7 5.49994 7C6.88115 7 8 5.88076 8 4.50006C8 3.11925 6.88115 2 5.49994 2Z" fill="#333333"/>
</svg>
