<svg width="18" height="18" viewBox="0 0 18 18" fill="none" xmlns="http://www.w3.org/2000/svg">
<path d="M15.9031 4.35443H14.3587C15.2027 3.53894 15.39 2.21266 14.7383 1.17949C14.2707 0.440893 13.4695 0 12.5952 0C12.1161 0 11.6485 0.135793 11.2431 0.392986C10.3512 0.956279 9.39723 3.10817 9.00051 4.08104C8.60333 3.10817 7.64891 0.955813 6.75793 0.393452C6.35155 0.136193 5.88447 0.000466413 5.4054 0.000466413C4.53101 0.000466413 3.72931 0.44136 3.26177 1.18042C2.61152 2.21126 2.79835 3.53667 3.64049 4.35443H2.09693C1.84287 4.35443 1.63672 4.56012 1.63672 4.81465V8.72038C1.63672 8.97485 1.84287 9.1806 2.09693 9.1806H2.35053V17.5398C2.35053 17.7942 2.55622 18 2.81075 18H7.31569H10.6844H15.1893C15.4438 18 15.6496 17.7943 15.6496 17.5398V9.1806H15.9032C16.1576 9.1806 16.3634 8.97491 16.3634 8.72038V4.81465C16.3633 4.56018 16.1575 4.35443 15.9031 4.35443ZM15.4429 8.26024H15.1893H11.1445V5.27486H15.4429V8.26024ZM10.2242 5.27486V8.26024H7.77591V5.27486H10.2242ZM11.7346 1.1703C11.9932 1.00692 12.2905 0.920432 12.5947 0.920432C13.152 0.920432 13.6624 1.20115 13.9601 1.67149C14.4351 2.42481 14.2105 3.423 13.4585 3.89748C13.3002 3.99782 12.7355 4.23156 10.9177 4.23156C10.5551 4.23156 10.2154 4.2219 9.943 4.21037C10.4446 3.02402 11.2145 1.49892 11.7346 1.1703ZM4.03901 1.67149C4.33678 1.20115 4.84757 0.920432 5.40487 0.920432C5.70903 0.920432 6.00681 1.00692 6.26546 1.17123C6.78505 1.49892 7.55496 3.02449 8.05702 4.21044C7.78231 4.22197 7.44036 4.2321 7.07356 4.2321H7.07309C5.26128 4.2321 4.69845 3.99969 4.54107 3.90028C3.78955 3.42347 3.56454 2.42388 4.03901 1.67149ZM2.55715 5.27486H6.85548V8.26024H2.81068H2.55708V5.27486H2.55715ZM3.2709 9.1806H6.85541V17.0796H3.2709V9.1806ZM7.77584 17.0796V9.1806H10.2241V17.0796H7.77584ZM14.7291 17.0796H11.1445V9.1806H14.7291V17.0796Z" fill="#075D74"/>
</svg>
