<svg width="23" height="23" viewBox="0 0 23 23" fill="none" xmlns="http://www.w3.org/2000/svg">
<g clip-path="url(#clip0)">
<path d="M5.09729 13.8991L4.29669 16.8879L1.37052 16.9498C0.496027 15.3278 0 13.472 0 11.4999C0 9.59295 0.463773 7.79463 1.28584 6.21118H1.28647L3.89158 6.68879L5.03278 9.27827C4.79393 9.9746 4.66374 10.7221 4.66374 11.4999C4.66383 12.3441 4.81675 13.1529 5.09729 13.8991Z" fill="white"/>
<path d="M22.8002 9.35156C22.9322 10.0472 23.0011 10.7657 23.0011 11.4999C23.0011 12.3232 22.9145 13.1263 22.7496 13.901C22.1898 16.5372 20.727 18.8391 18.7006 20.468L18.7 20.4674L15.4187 20.3L14.9543 17.4009C16.2989 16.6124 17.3497 15.3783 17.9033 13.901H11.7539V9.35156H17.993H22.8002Z" fill="white"/>
<path d="M18.6994 20.4674L18.7001 20.4681C16.7293 22.0521 14.2258 22.9999 11.5006 22.9999C7.12109 22.9999 3.31347 20.5521 1.37109 16.9498L5.09786 13.8992C6.06902 16.4911 8.56933 18.3361 11.5006 18.3361C12.7605 18.3361 13.9409 17.9956 14.9537 17.401L18.6994 20.4674Z" fill="white"/>
<path d="M18.8397 2.64752L15.1142 5.69753C14.066 5.0423 12.8268 4.66379 11.4993 4.66379C8.50172 4.66379 5.95465 6.5935 5.03213 9.27834L1.28579 6.21126H1.28516C3.1991 2.52115 7.05474 0 11.4993 0C14.2896 0 16.8481 0.993941 18.8397 2.64752Z" fill="white"/>
</g>
<defs>
<clipPath id="clip0">
<rect width="23" height="23" fill="white"/>
</clipPath>
</defs>
</svg>
