<svg width="12" height="12" viewBox="0 0 12 12" fill="none" xmlns="http://www.w3.org/2000/svg">
<path d="M12 7.29683V11.7333H9.42801V7.59396C9.42801 6.55412 9.056 5.84447 8.12503 5.84447C7.41435 5.84447 6.99142 6.32272 6.80536 6.78535C6.73751 6.95074 6.72004 7.18093 6.72004 7.41244V11.7333H4.14719C4.14719 11.7333 4.18184 4.72261 4.14719 3.99625H6.71979V5.09294C6.71457 5.10115 6.70779 5.10999 6.70288 5.11794H6.71979V5.09294C7.06159 4.56651 7.672 3.81448 9.03828 3.81448C10.731 3.81445 12 4.9203 12 7.29683ZM1.45587 0.266602C0.575704 0.266602 0 0.843924 0 1.60312C0 2.34578 0.559048 2.94062 1.42172 2.94062H1.43891C2.33613 2.94062 2.89411 2.34589 2.89411 1.60312C2.87721 0.843924 2.33613 0.266602 1.45587 0.266602ZM0.152805 11.7333H2.72468V3.99625H0.152805V11.7333Z" fill="white"/>
</svg>
