<svg width="15" height="17" viewBox="0 0 15 17" fill="none" xmlns="http://www.w3.org/2000/svg">
<path d="M13.1081 6.86531H12.7769V5.31498C12.7769 2.44753 10.5014 0.0521806 7.65726 0.0010478C7.57954 -0.000349267 7.42426 -0.000349267 7.34658 0.0010478C4.50239 0.0521806 2.22692 2.44753 2.22692 5.31498V6.86531H1.89564C1.38515 6.86531 0.96875 7.39207 0.96875 8.04265V15.8185C0.96875 16.4683 1.38515 17 1.89567 17H13.1081C13.6186 17 14.0351 16.4683 14.0351 15.8185V8.04265C14.0351 7.39211 13.6187 6.86531 13.1081 6.86531ZM8.55236 11.9227V14.2722C8.55236 14.5413 8.32712 14.7689 8.05787 14.7689H6.94601C6.67672 14.7689 6.45148 14.5413 6.45148 14.2722V11.9227C6.19033 11.6656 6.0383 11.3102 6.0383 10.9169C6.0383 10.1718 6.61427 9.53154 7.34662 9.50196C7.42422 9.49882 7.57968 9.49882 7.65729 9.50196C8.38964 9.53154 8.96561 10.1718 8.96561 10.9169C8.96554 11.3102 8.81351 11.6656 8.55236 11.9227ZM10.5936 6.86531H7.65726H7.34658H4.41022V5.31498C4.41022 3.60689 5.79835 2.19455 7.5019 2.19455C9.20545 2.19455 10.5937 3.60689 10.5937 5.31498V6.86531H10.5936Z" fill="#B6B6B6"/>
</svg>
