<svg width="16" height="12" viewBox="0 0 16 12" fill="none" xmlns="http://www.w3.org/2000/svg">
<path d="M8.02008 7.06695H8.0235C8.14416 7.06695 8.2634 7.03194 8.35987 6.9682L8.38604 6.95139C8.39174 6.94768 8.3977 6.94431 8.40369 6.94031L8.70847 6.68815L15.9832 0.684909C15.9682 0.664124 15.9425 0.649902 15.9152 0.649902H0.0845229C0.0648889 0.649902 0.0466667 0.657014 0.0321569 0.668961L7.64327 6.94227C7.73919 7.02169 7.87605 7.06695 8.02008 7.06695ZM0 1.50054V10.3991L5.45229 5.99464L0 1.50054ZM10.5534 6.02452L16 10.4014V1.53014L10.5534 6.02452ZM8.82173 7.45312C8.6046 7.63126 8.3206 7.72946 8.02235 7.72946C7.72298 7.72946 7.43924 7.63184 7.22269 7.45453L5.97393 6.42462L0 11.2497V11.2651C0 11.3109 0.039268 11.3499 0.0856471 11.3499H15.9155C15.961 11.3499 16 11.3109 16 11.2648V11.2506L10.0312 6.45482L8.82173 7.45312Z" fill="white"/>
</svg>
