<svg width="36" height="36" viewBox="0 0 36 36" fill="none" xmlns="http://www.w3.org/2000/svg">
<path d="M11.1266 16.822C10.5753 16.822 10.1528 16.9992 10.1528 16.9992L10.0361 17.6921C10.0361 17.6921 10.3846 17.5504 10.9124 17.5504C11.212 17.5504 11.4308 17.5837 11.4308 17.8271C11.4308 17.975 11.4043 18.0297 11.4043 18.0297C11.4043 18.0297 11.1682 18.0105 11.0588 18.0105C10.3633 18.0105 9.63281 18.3064 9.63281 19.202C9.63281 19.9075 10.1116 20.0685 10.4091 20.0685C10.9765 20.0685 11.2214 19.7006 11.2339 19.6996L11.2073 20.007H11.9154L12.2311 17.7927C12.2306 16.8522 11.411 16.822 11.1266 16.822ZM10.7295 19.3948C10.48 19.3948 10.4149 19.2046 10.4149 19.091C10.4149 18.8712 10.5342 18.6065 11.1234 18.6065C11.261 18.607 11.2756 18.6211 11.2985 18.6252C11.3141 18.7607 11.2141 19.3948 10.7295 19.3948Z" fill="#898989"/>
<path d="M13.6847 17.5646C13.7977 17.5646 14.2338 17.6005 14.2338 17.6005L14.3354 16.8909C14.3354 16.8909 14.053 16.8279 13.5935 16.8279C12.9985 16.8279 12.3952 17.0655 12.3952 17.8777C12.3952 18.7989 13.4018 18.7051 13.4018 19.0938C13.4018 19.3522 13.1204 19.3736 12.9037 19.3736C12.528 19.3736 12.1904 19.2454 12.1894 19.2506L12.082 19.9545C12.1013 19.9597 12.3097 20.0524 12.9844 20.0524C13.1652 20.0524 14.2005 20.0993 14.2005 19.0307C14.2005 18.0314 13.2423 18.2289 13.2423 17.8272C13.2423 17.6271 13.3981 17.5646 13.6847 17.5646Z" fill="#898989"/>
<path d="M15.3782 17.6551H15.8039L15.9065 16.8986H15.5054L15.5872 16.4297H14.7832C14.7655 16.4469 14.3086 19.0744 14.3086 19.3932C14.3086 19.8679 14.5748 20.0783 14.9494 20.0747C15.2428 20.0726 15.4715 19.9913 15.5523 19.9689L15.6528 19.2854C15.5976 19.2854 15.5168 19.3093 15.4454 19.3093C15.1657 19.3093 15.1349 19.1598 15.1526 19.0499L15.3782 17.6551Z" fill="#898989"/>
<path d="M18.7465 13.2661H17.3116C17.1189 13.5266 16.9376 13.8038 16.7734 14.0747H19.3332C19.1555 13.7923 18.9591 13.5225 18.7465 13.2661Z" fill="#898989"/>
<path d="M19.7672 14.8684H16.3249C16.105 15.2847 15.9591 15.5994 15.918 15.6775H20.0934C19.9991 15.3993 19.8907 15.13 19.7672 14.8684Z" fill="#898989"/>
<path d="M8.64988 16.1816L7.85741 18.5314L7.81625 16.1816H6.64293L6 20.0106H6.77579L7.26502 17.1242L7.33692 20.0106H7.89076L8.92393 17.1242L8.46596 20.0106H9.28916L9.92323 16.1816H8.64988Z" fill="#898989"/>
<path d="M24.1628 16.822C23.6105 16.822 23.1885 16.9992 23.1885 16.9992L23.0712 17.6921C23.0712 17.6921 23.4203 17.5504 23.9476 17.5504C24.2472 17.5504 24.4665 17.5837 24.4665 17.8271C24.4665 17.975 24.4389 18.0297 24.4389 18.0297C24.4389 18.0297 24.2034 18.0105 24.0929 18.0105C23.3979 18.0105 22.668 18.3064 22.668 19.202C22.668 19.9075 23.1473 20.0685 23.4443 20.0685C24.0111 20.0685 24.256 19.7006 24.269 19.6996L24.2425 20.007H24.95L25.2657 17.7927C25.2673 16.8522 24.4472 16.822 24.1628 16.822ZM23.7668 19.3948C23.5167 19.3948 23.4521 19.2046 23.4521 19.091C23.4521 18.8712 23.5714 18.6065 24.1607 18.6065C24.2977 18.607 24.3123 18.6211 24.3357 18.6252C24.3508 18.7607 24.2503 19.3948 23.7668 19.3948Z" fill="#898989"/>
<path d="M29.9671 19.6581C29.9457 19.6185 29.9145 19.5883 29.8754 19.5674C29.8368 19.5461 29.7972 19.5356 29.7556 19.5356C29.7154 19.5362 29.6753 19.5466 29.6357 19.5674C29.5966 19.5883 29.5664 19.6185 29.5445 19.6581C29.5227 19.6972 29.5117 19.7378 29.5117 19.78C29.5117 19.8222 29.5227 19.8623 29.5445 19.9009C29.5659 19.9394 29.5961 19.9702 29.6347 19.9921C29.6738 20.0134 29.7139 20.0244 29.7556 20.0244C29.7983 20.0244 29.8389 20.0134 29.877 19.9921C29.9155 19.9702 29.9457 19.9394 29.9671 19.9009C29.9895 19.8623 29.9994 19.8222 29.9994 19.78C29.9994 19.7368 29.989 19.6961 29.9671 19.6581ZM29.9332 19.8806C29.9155 19.9129 29.8905 19.9373 29.8577 19.9566C29.8254 19.9743 29.792 19.9837 29.7571 19.9837C29.7217 19.9837 29.6878 19.9743 29.656 19.9566C29.6232 19.9384 29.5987 19.9134 29.58 19.8806C29.5612 19.8477 29.5529 19.8144 29.5529 19.7795C29.5529 19.7446 29.5617 19.7107 29.581 19.6779C29.5993 19.6456 29.6237 19.6206 29.6571 19.6023C29.6904 19.5841 29.7233 19.5763 29.7571 19.5763C29.791 19.5763 29.8243 19.5846 29.8561 19.6023C29.8895 19.6206 29.9139 19.6451 29.9322 19.6779C29.9504 19.7107 29.9603 19.7446 29.9603 19.7795C29.9603 19.8144 29.9515 19.8483 29.9332 19.8806Z" fill="#898989"/>
<path d="M29.8376 19.8627C29.8225 19.8382 29.8089 19.821 29.799 19.8105C29.7928 19.8048 29.786 19.8001 29.7766 19.797C29.799 19.7954 29.8172 19.7871 29.8308 19.773C29.8438 19.7595 29.8516 19.7418 29.8516 19.723C29.8516 19.71 29.8475 19.6964 29.8391 19.6845C29.8308 19.673 29.8198 19.6641 29.8068 19.6589C29.7938 19.6537 29.7709 19.6511 29.7401 19.6511H29.6484V19.9137H29.6912V19.8022H29.7156C29.7308 19.8022 29.7427 19.8053 29.75 19.8111C29.761 19.8204 29.7756 19.8402 29.7948 19.8731L29.8172 19.9142H29.8699L29.8376 19.8627ZM29.7438 19.7663H29.6922V19.6866H29.7401C29.761 19.6866 29.7745 19.6881 29.7829 19.6907C29.7896 19.6944 29.7959 19.698 29.8 19.7048C29.8047 19.7116 29.8068 19.7173 29.8068 19.7261C29.8068 19.7376 29.8021 19.7475 29.7943 19.7548C29.7844 19.7637 29.7683 19.7663 29.7438 19.7663Z" fill="#898989"/>
<path d="M26.8962 16.8601C26.5362 16.8601 26.2689 17.3514 26.2689 17.3514L26.3408 16.8997H25.5916L25.0898 20.0164H25.9151C26.1501 18.6847 26.1928 17.6046 26.7508 17.8021C26.8493 17.2873 26.9441 17.0878 27.0509 16.8705C27.0509 16.871 27.0009 16.8601 26.8962 16.8601Z" fill="#898989"/>
<path d="M28.9688 16.1859L28.7953 17.2618C28.7953 17.2618 28.4931 16.8434 28.019 16.8434C27.2817 16.8439 26.668 17.7323 26.668 18.7524C26.668 19.4115 26.9957 20.057 27.6647 20.057C28.1466 20.057 28.4134 19.721 28.4134 19.721L28.3785 20.0081H29.1605L29.7753 16.1843L28.9688 16.1859ZM27.9491 19.2755C27.6595 19.2755 27.524 19.0327 27.524 18.6513C27.524 18.0277 27.8038 17.6166 28.1575 17.6166C28.4462 17.6171 28.5947 17.8156 28.5947 18.2835C28.5947 18.7081 28.3847 19.2755 27.9491 19.2755Z" fill="#898989"/>
<path d="M17.2266 22.8628C17.4657 23.1556 17.7189 23.4349 17.9987 23.6881C18.005 23.6823 18.0117 23.6771 18.018 23.6719C18.018 23.6719 18.0175 23.6719 18.0175 23.6714H18.019C18.2941 23.4208 18.551 23.1509 18.786 22.8628H17.2266V22.8628Z" fill="#898989"/>
<path d="M18.2524 18.7176C18.2524 18.7176 18.3582 18.1966 18.3582 17.9845C18.3582 17.4547 18.0945 16.8086 17.2119 16.8086C16.4033 16.8091 15.8047 17.6803 15.8047 18.665C15.8047 19.8013 16.5544 20.0712 17.1937 20.0712C17.7835 20.0712 18.043 19.9388 18.043 19.9388L18.1847 19.1636C18.1847 19.1636 17.7361 19.3616 17.3307 19.3616C16.4674 19.3616 16.6185 18.7176 16.6185 18.7176H18.2524V18.7176ZM17.2146 17.5302C17.6684 17.5302 17.5845 18.0403 17.5845 18.0809H16.692C16.692 18.0283 16.7764 17.5302 17.2146 17.5302Z" fill="#898989"/>
<path d="M22.0236 16.9155C22.4326 16.9155 22.7613 17.1452 22.7613 17.1452L22.8926 16.2934C22.8926 16.2934 22.406 16.0964 21.9871 16.0964C21.0592 16.0964 20.1562 16.9019 20.1562 18.4144C20.1562 19.4174 20.6434 20.0796 21.6031 20.0796C21.874 20.0796 22.3065 19.9697 22.3065 19.9697L22.4503 19.0923C22.4503 19.0923 22.0564 19.2897 21.7855 19.2897C21.2144 19.2892 20.9857 18.8536 20.9857 18.3868C20.9857 17.437 21.4765 16.9155 22.0236 16.9155Z" fill="#898989"/>
<path d="M16.2188 21.2761C16.3495 21.5569 16.5017 21.8242 16.6647 22.0847H19.3443C19.5069 21.8253 19.6533 21.5554 19.784 21.2761H16.2188Z" fill="#898989"/>
<path d="M20.1446 16.8612C19.7846 16.8612 19.5179 17.3525 19.5179 17.3525L19.5903 16.9008H18.8416L18.3398 20.0175H19.1651C19.3991 18.6863 19.4428 17.6057 20.0008 17.8031C20.0988 17.2879 20.1931 17.0883 20.2999 16.8705C20.2999 16.8705 20.2499 16.8601 20.1446 16.8612Z" fill="#898989"/>
<path d="M35.0732 6.33496H0.926771C0.414306 6.33496 0 6.7499 0 7.26173V28.7387C0 29.2505 0.414306 29.6655 0.926771 29.6655H35.0732C35.5857 29.6655 36 29.2505 36 28.7387V7.26173C36 6.7499 35.5857 6.33496 35.0732 6.33496ZM32.7678 23.2762C32.741 23.3247 32.7047 23.3617 32.6575 23.3878C32.6103 23.4139 32.5606 23.4273 32.5096 23.4273C32.4574 23.4273 32.4076 23.4139 32.3605 23.3878C32.314 23.3617 32.277 23.3247 32.2496 23.2762C32.2234 23.2297 32.2101 23.18 32.2101 23.1284C32.2101 23.0767 32.2234 23.0277 32.2502 22.9792C32.2763 22.9308 32.3146 22.8944 32.3618 22.8683C32.4096 22.8435 32.458 22.8301 32.509 22.8301C32.5593 22.8301 32.6078 22.8435 32.655 22.8683C32.7028 22.8944 32.7404 22.9308 32.7665 22.9792C32.7933 23.0277 32.806 23.0774 32.806 23.1284C32.806 23.1794 32.7945 23.231 32.7678 23.2762ZM33.4358 18.0005C33.437 23.1029 29.3029 27.2408 24.1999 27.2421C21.8135 27.2428 19.6375 26.3383 17.9981 24.8525C16.3587 26.3357 14.1871 27.2396 11.8045 27.2396C6.70475 27.2396 2.56551 23.101 2.56551 18.0005C2.56551 12.9205 6.67224 8.79403 11.7453 8.76088C11.765 8.76088 11.7848 8.76088 11.8045 8.76088C14.1871 8.76088 16.3593 9.66471 17.9987 11.1479C19.6375 9.66407 21.811 8.75961 24.1955 8.75897C29.2984 8.75706 33.4358 12.8931 33.437 17.9961C33.4358 17.9974 33.4358 17.998 33.4358 18.0005Z" fill="#898989"/>
</svg>
