<svg width="12" height="10" viewBox="0 0 12 10" fill="none" xmlns="http://www.w3.org/2000/svg">
<path d="M1.5 0H0.5C0.2 0 0 0.2 0 0.5V1.5C0 1.8 0.2 2 0.5 2H1.5C1.8 2 2 1.8 2 1.5V0.5C2 0.2 1.8 0 1.5 0Z" fill="#333333"/>
<path d="M1.5 4H0.5C0.2 4 0 4.2 0 4.5V5.5C0 5.8 0.2 6 0.5 6H1.5C1.8 6 2 5.8 2 5.5V4.5C2 4.2 1.8 4 1.5 4Z" fill="#333333"/>
<path d="M1.5 8H0.5C0.2 8 0 8.2 0 8.5V9.5C0 9.8 0.2 10 0.5 10H1.5C1.8 10 2 9.8 2 9.5V8.5C2 8.2 1.8 8 1.5 8Z" fill="#333333"/>
<path d="M11.5 0H4.5C4.2 0 4 0.2 4 0.5V1.5C4 1.8 4.2 2 4.5 2H11.5C11.8 2 12 1.8 12 1.5V0.5C12 0.2 11.8 0 11.5 0Z" fill="#333333"/>
<path d="M11.5 4H4.5C4.2 4 4 4.2 4 4.5V5.5C4 5.8 4.2 6 4.5 6H11.5C11.8 6 12 5.8 12 5.5V4.5C12 4.2 11.8 4 11.5 4Z" fill="#333333"/>
<path d="M11.5 8H4.5C4.2 8 4 8.2 4 8.5V9.5C4 9.8 4.2 10 4.5 10H11.5C11.8 10 12 9.8 12 9.5V8.5C12 8.2 11.8 8 11.5 8Z" fill="#333333"/>
</svg>
