<svg width="22" height="21" viewBox="0 0 22 21" fill="none" xmlns="http://www.w3.org/2000/svg">
<path d="M15.9652 13.8917C15.2791 13.2144 14.4226 13.2144 13.7409 13.8917C13.2209 14.4074 12.7009 14.923 12.1896 15.4474C12.0498 15.5916 11.9318 15.6222 11.7614 15.5261C11.4249 15.3425 11.0666 15.194 10.7432 14.993C9.23562 14.0447 7.97273 12.8255 6.85404 11.4534C6.29907 10.7717 5.80528 10.0419 5.46006 9.22037C5.39014 9.05432 5.40325 8.94507 5.53872 8.8096C6.05873 8.30707 6.56563 7.79143 7.07691 7.27578C7.78919 6.55913 7.78919 5.72011 7.07254 4.99909C6.66614 4.58832 6.25974 4.18629 5.85335 3.77553C5.43384 3.35602 5.0187 2.93215 4.59483 2.51701C3.90876 1.84842 3.05227 1.84842 2.37057 2.52138C1.84619 3.03702 1.34365 3.56577 0.810533 4.07268C0.316739 4.54025 0.0676568 5.1127 0.0152186 5.78129C-0.0678087 6.86939 0.198753 7.8963 0.57456 8.897C1.34365 10.9683 2.51478 12.808 3.93498 14.4948C5.85335 16.7759 8.14315 18.5806 10.8219 19.8828C12.028 20.4684 13.2777 20.9185 14.6368 20.9928C15.5719 21.0452 16.3847 20.8092 17.0358 20.0795C17.4815 19.5813 17.9841 19.1268 18.456 18.6505C19.1552 17.9426 19.1596 17.0861 18.4648 16.3869C17.6345 15.5523 16.7998 14.722 15.9652 13.8917Z" fill="#FDB932"/>
<path d="M15.1354 10.409L16.7478 10.1337C16.4944 8.65232 15.7952 7.31078 14.7333 6.24453C13.6103 5.12148 12.1901 4.41356 10.6257 4.19507L10.3984 5.81629C11.6089 5.98671 12.7101 6.53294 13.5797 7.40254C14.4012 8.22408 14.9387 9.2641 15.1354 10.409Z" fill="#FDB932"/>
<path d="M17.6536 3.39975C15.792 1.53819 13.4367 0.362698 10.8366 0L10.6094 1.62122C12.8555 1.93585 14.8918 2.95402 16.4999 4.55776C18.025 6.08284 19.0257 8.00995 19.3884 10.1293L21.0009 9.85403C20.577 7.39817 19.419 5.16954 17.6536 3.39975Z" fill="#FDB932"/>
</svg>
