<svg width="20" height="18" viewBox="0 0 20 18" fill="none" xmlns="http://www.w3.org/2000/svg">
<path d="M19.9997 1.2028C19.9998 1.20042 19.9999 1.19808 20 1.19569C20 1.19296 19.9999 1.19026 19.9999 1.18753C19.9999 1.18245 20 1.17737 19.9997 1.17233C19.9995 1.16804 19.9991 1.16378 19.9987 1.15952C19.9986 1.15897 19.9986 1.15839 19.9985 1.15784C19.9983 1.15538 19.9982 1.15288 19.9979 1.15042C19.9976 1.14765 19.9972 1.14491 19.9968 1.14218C19.9962 1.13815 19.9954 1.13417 19.9946 1.13015C19.9936 1.12456 19.9926 1.11897 19.9912 1.11343C19.9911 1.11284 19.991 1.11225 19.9908 1.11167C19.9898 1.10776 19.9886 1.10393 19.9874 1.10003C19.9859 1.0946 19.9843 1.08921 19.9825 1.08386C19.9816 1.08128 19.9805 1.07878 19.9796 1.07624C19.9787 1.0739 19.9777 1.07167 19.9768 1.06932C19.9768 1.06929 19.9767 1.06921 19.9767 1.06917C19.9749 1.06475 19.9732 1.06034 19.9712 1.056C19.969 1.05116 19.9664 1.04651 19.9639 1.04179C19.9627 1.03944 19.9616 1.0371 19.9603 1.03479C19.9592 1.03284 19.9582 1.03089 19.9571 1.02897C19.9532 1.02245 19.9489 1.01608 19.9446 1.00979C19.9432 1.00776 19.942 1.00561 19.9405 1.00358C19.9405 1.00346 19.9404 1.00339 19.9403 1.00327C19.9401 1.003 19.9399 1.00272 19.9397 1.00245C19.9358 0.997176 19.9315 0.992136 19.9272 0.987058C19.9246 0.983894 19.9221 0.980535 19.9193 0.977527C19.9181 0.976199 19.9168 0.97491 19.9155 0.973542C19.9136 0.971433 19.9114 0.96948 19.9094 0.967449C19.9051 0.963113 19.9009 0.958698 19.8964 0.954636C19.8961 0.954362 19.8959 0.954089 19.8956 0.953816C19.8937 0.952175 19.8918 0.950847 19.8899 0.949284C19.8891 0.948542 19.8882 0.947839 19.8873 0.947097C19.8859 0.945964 19.8848 0.944675 19.8834 0.943581C19.8825 0.942878 19.8816 0.94237 19.8807 0.941628C19.8777 0.939323 19.8749 0.936979 19.8719 0.934792C19.869 0.932682 19.866 0.930847 19.863 0.928815C19.8576 0.925104 19.8521 0.921354 19.8464 0.918034C19.8423 0.915573 19.838 0.913463 19.8338 0.911237C19.8292 0.908776 19.8246 0.906276 19.8199 0.904049C19.8179 0.903151 19.816 0.902213 19.814 0.901354C19.8127 0.900807 19.8115 0.900417 19.8102 0.89987C19.8082 0.89901 19.8062 0.898268 19.8041 0.897448C19.8002 0.895846 19.7962 0.894166 19.7922 0.892721C19.7878 0.891159 19.7835 0.889909 19.7791 0.88858C19.7766 0.887799 19.7741 0.887018 19.7715 0.886315C19.7688 0.885573 19.7661 0.884752 19.7634 0.884049C19.7576 0.882604 19.7518 0.881549 19.7459 0.880416C19.7426 0.879791 19.7394 0.878932 19.7361 0.878424C19.7352 0.878307 19.7343 0.878268 19.7334 0.878112C19.728 0.87733 19.7226 0.876862 19.7172 0.876354C19.7126 0.875924 19.708 0.875416 19.7033 0.875143C19.7012 0.875026 19.6991 0.874908 19.697 0.874869C19.6946 0.874791 19.6921 0.874948 19.6896 0.874948C19.6893 0.874948 19.6889 0.874948 19.6886 0.874948C19.6834 0.874948 19.6781 0.874869 19.6729 0.875104C19.6687 0.875299 19.6645 0.875768 19.6603 0.876119C19.6576 0.876354 19.6548 0.87651 19.652 0.876823C19.6489 0.877174 19.6458 0.877526 19.6427 0.877994C19.6386 0.87858 19.6345 0.879479 19.6303 0.880221C19.6252 0.881198 19.62 0.882018 19.6149 0.883229C19.6143 0.883385 19.6137 0.88358 19.6131 0.883737C19.6087 0.884791 19.6044 0.886159 19.6002 0.887409C19.5949 0.888932 19.5896 0.890416 19.5844 0.892252C19.5819 0.893112 19.5794 0.894127 19.5769 0.895065C19.5762 0.895299 19.5756 0.895455 19.5749 0.89569L0.19969 8.39578C0.0792199 8.44242 -0.000156022 8.55836 2.3027e-07 8.68754C0.000117419 8.81672 0.0797668 8.9325 0.200315 8.97887L5.97683 11.2006L7.82783 16.9087C7.8281 16.9095 7.82853 16.9102 7.8288 16.911C7.82935 16.9127 7.82974 16.9144 7.83033 16.9161C7.8347 16.9285 7.84013 16.9406 7.84611 16.9526C7.84736 16.955 7.84865 16.9574 7.84994 16.9598C7.85576 16.9707 7.86216 16.9813 7.86935 16.9916C7.87029 16.9929 7.87111 16.9944 7.87208 16.9957C7.87255 16.9964 7.87302 16.997 7.87353 16.9977C7.87408 16.9984 7.87466 16.999 7.87521 16.9998C7.87755 17.0029 7.88017 17.0059 7.88267 17.009C7.88564 17.0126 7.88845 17.0164 7.89158 17.0199C7.894 17.0226 7.89666 17.0251 7.89919 17.0278C7.90037 17.029 7.90154 17.0302 7.90271 17.0314C7.90451 17.0332 7.90619 17.0351 7.90802 17.0369C7.90994 17.0387 7.91177 17.0406 7.91373 17.0424C7.9156 17.0441 7.91763 17.0456 7.91959 17.0473C7.9256 17.0526 7.93169 17.0577 7.9381 17.0625C7.93849 17.0628 7.93884 17.0631 7.93923 17.0635C7.93982 17.0639 7.94052 17.0642 7.94111 17.0646C7.94306 17.066 7.94505 17.0673 7.94701 17.0687C7.95705 17.0757 7.96759 17.0821 7.97857 17.0879C7.98037 17.0889 7.98205 17.0901 7.98384 17.091C7.98443 17.0913 7.98502 17.0915 7.9856 17.0918C7.99591 17.0969 8.0065 17.1017 8.01759 17.1057C8.01994 17.1066 8.02232 17.1072 8.02466 17.108C8.02775 17.109 8.03084 17.1099 8.03396 17.1109C8.0474 17.115 8.06091 17.1183 8.07447 17.1206C8.07509 17.1207 8.07568 17.1209 8.07631 17.121C8.07759 17.1212 8.07888 17.1212 8.08017 17.1213C8.09513 17.1235 8.11013 17.1249 8.12498 17.1249H8.12502C8.12502 17.1249 8.12502 17.1249 8.12506 17.1249C8.12627 17.1249 8.12744 17.1246 8.12865 17.1246C8.1415 17.1244 8.15431 17.1234 8.16705 17.1217C8.16896 17.1214 8.17092 17.1214 8.17279 17.1212C8.17553 17.1207 8.17826 17.1197 8.18099 17.1192C8.19088 17.1174 8.20064 17.1152 8.21033 17.1124C8.2135 17.1115 8.2167 17.1109 8.21982 17.1099C8.22037 17.1098 8.22092 17.1097 8.22146 17.1096C8.22295 17.1091 8.22435 17.1084 8.22584 17.1079C8.23049 17.1063 8.23502 17.1044 8.23959 17.1026C8.24568 17.1002 8.25174 17.0978 8.2576 17.095C8.2585 17.0946 8.25939 17.0943 8.26029 17.0939C8.2608 17.0936 8.26139 17.0935 8.26189 17.0932C8.26482 17.0918 8.2676 17.0901 8.27049 17.0886C8.27654 17.0854 8.28244 17.0821 8.28822 17.0785C8.29205 17.0762 8.29584 17.0738 8.29955 17.0713C8.29959 17.0713 8.29963 17.0713 8.29967 17.0713C8.30076 17.0705 8.30189 17.0699 8.30299 17.0692C8.30818 17.0656 8.31311 17.0616 8.31807 17.0578C8.32096 17.0555 8.32389 17.0534 8.3267 17.051C8.32979 17.0484 8.33275 17.0456 8.33572 17.0429C8.33803 17.0408 8.34021 17.0386 8.34248 17.0364C8.35209 17.0271 8.36123 17.0173 8.36955 17.0069C8.37025 17.006 8.371 17.0052 8.3717 17.0043C8.3726 17.0031 8.37338 17.0019 8.37424 17.0007C8.3749 16.9998 8.37568 16.9991 8.37635 16.9982L10.6599 13.9124C10.7625 13.7737 10.7333 13.578 10.5945 13.4753C10.4558 13.3727 10.2601 13.4019 10.1575 13.5406L9.16534 14.8814L9.95387 12.7288L17.4177 15.5616C17.4536 15.5752 17.4911 15.582 17.5286 15.582C17.5832 15.582 17.6376 15.5677 17.686 15.5395C17.7675 15.4919 17.8232 15.4101 17.8375 15.3169L19.9967 1.2346C19.9968 1.23394 19.9968 1.23327 19.9968 1.23261C19.9976 1.22741 19.998 1.22222 19.9985 1.21702C19.9989 1.2123 19.9995 1.20757 19.9997 1.2028ZM17.561 2.34559L8.63494 8.82836C8.49529 8.92977 8.46432 9.1252 8.56573 9.26485C8.62686 9.34903 8.72217 9.39372 8.81881 9.39372C8.88249 9.39372 8.94674 9.3743 9.00221 9.33403L17.529 3.14122L9.54875 12.102C9.51777 12.1326 9.49249 12.1699 9.47605 12.2133C9.47324 12.2206 9.47109 12.2281 9.46886 12.2355L8.14306 15.8548L6.52535 10.8662C6.49515 10.7731 6.42535 10.7039 6.34066 10.6712C6.34019 10.671 6.33976 10.6707 6.33925 10.6705L1.1806 8.68641L17.561 2.34559ZM17.2782 14.8403L10.3043 12.1934L19.2188 2.18367L17.2782 14.8403Z" fill="#9B6B0C"/>
</svg>
