<svg width="12" height="12" viewBox="0 0 12 12" fill="none" xmlns="http://www.w3.org/2000/svg">
<path d="M11.1515 8.62619C10.7974 8.2721 10.2047 7.963 9.27036 7.49565C8.79937 7.26015 8.01543 6.86837 7.8254 6.68893C8.62124 5.71073 9.08315 4.60588 9.08315 3.63875C9.08315 2.98249 9.08315 2.16583 8.71583 1.43748C8.38471 0.781506 7.64474 0 6.00019 0C4.35526 0 3.61529 0.781506 3.28454 1.43739C2.91676 2.16583 2.91676 2.9824 2.91676 3.63865C2.91676 4.60616 3.37829 5.71073 4.1746 6.68883C3.9841 6.86865 3.20026 7.26053 2.72926 7.49556C1.79523 7.96281 1.20255 8.27191 0.84808 8.6261C0.0634884 9.41126 0.00414493 10.7286 0.000113692 10.9849C-0.00391754 11.2522 0.0993946 11.5107 0.287644 11.7019C0.475143 11.8923 0.732299 12 0.999673 12H10.9999C11.268 12 11.5245 11.8924 11.7124 11.7019C11.9002 11.5107 12.0039 11.2522 11.9999 10.9845C11.9959 10.7286 11.936 9.41135 11.1515 8.62619Z" fill="#333333"/>
</svg>
