<svg width="10" height="10" viewBox="0 0 10 10" fill="none" xmlns="http://www.w3.org/2000/svg">
<path d="M5.82998 4.99972L9.82805 1.00167C10.0574 0.772363 10.0574 0.400812 9.82805 0.171996C9.59922 -0.0573103 9.22768 -0.0573103 8.99838 0.171996L5.00031 4.17005L1.0013 0.17198C0.772465 -0.0573266 0.400441 -0.0573266 0.171624 0.17198C-0.0572081 0.400812 -0.0572081 0.772363 0.171624 1.00165L4.17016 4.99972L0.171624 8.99827C-0.0572081 9.22711 -0.0572081 9.59913 0.171624 9.82795C0.286269 9.94261 0.436602 9.99969 0.586461 9.99969C0.736794 9.99969 0.886652 9.94261 1.0013 9.82795L4.99984 5.82941L8.99789 9.82795C9.11255 9.94261 9.26288 9.99969 9.41274 9.99969C9.56306 9.99969 9.71339 9.94261 9.82758 9.82795C10.0569 9.59864 10.0569 9.22709 9.82758 8.99827L5.82998 4.99972Z" fill="black"/>
</svg>
