<svg width="20" height="20" viewBox="0 0 20 20" fill="none" xmlns="http://www.w3.org/2000/svg">
<path d="M2.24888 19.069L2.24891 19.069L2.25177 19.0662L7.39045 13.938C8.68107 15.0702 10.3757 15.7711 12.2357 15.7711C16.2817 15.7711 19.5848 12.4792 19.5848 8.42204C19.5848 4.36483 16.2817 1.07295 12.2357 1.07295C8.18963 1.07295 4.88659 4.36483 4.88659 8.42204C4.88659 10.0113 5.38975 11.4779 6.24748 12.6825L1.05254 17.8774C0.886832 18.0431 0.799863 18.2553 0.799863 18.4717C0.799863 18.6816 0.882436 18.9084 1.05554 19.069C1.38354 19.3937 1.91544 19.3886 2.24888 19.069ZM12.2357 2.7669C15.3496 2.7669 17.8908 5.29785 17.8908 8.42204C17.8908 11.5359 15.3599 14.0772 12.2357 14.0772C9.11125 14.0772 6.58054 11.5465 6.58054 8.42204C6.58054 5.29785 9.12178 2.7669 12.2357 2.7669Z" fill="white" stroke="white" stroke-width="0.4"/>
</svg>
