<svg width="12" height="12" viewBox="0 0 12 12" fill="none" xmlns="http://www.w3.org/2000/svg">
<path d="M11.5609 5.12608L10.3722 4.92778C10.2858 4.57456 10.1599 4.23693 9.9958 3.92202L10.7568 2.97849C10.9186 2.77909 10.9113 2.49218 10.7406 2.29973L10.2679 1.76766C10.0965 1.57541 9.81231 1.53475 9.59554 1.6717L8.57897 2.31074C8.13185 1.99835 7.62537 1.76766 7.07901 1.6338L6.88013 0.438724C6.8384 0.185673 6.61942 0 6.36237 0H5.64991C5.39338 0 5.17366 0.185673 5.13286 0.438724L4.93289 1.63418C4.48118 1.74477 4.05765 1.92329 3.67115 2.15841L2.70437 1.46846C2.49601 1.3196 2.20983 1.34288 2.028 1.52432L1.52467 2.02801C1.34323 2.20984 1.31995 2.49602 1.4692 2.70438L2.16076 3.67301C1.92785 4.0566 1.75116 4.47771 1.64058 4.92541L0.438698 5.12609C0.186035 5.16783 0 5.38682 0 5.64389V6.35578C0 6.61282 0.186035 6.83184 0.438698 6.87357L1.64058 7.07426C1.73139 7.44266 1.86323 7.79456 2.03846 8.12084L1.28095 9.05904C1.11965 9.25825 1.12643 9.54535 1.29706 9.73762L1.76947 10.2697C1.94085 10.4623 2.22519 10.5022 2.44199 10.3656L3.47321 9.71784C3.90955 10.0163 4.40318 10.2356 4.93289 10.3656L5.13286 11.5609C5.17368 11.814 5.39338 11.9997 5.64991 11.9997H6.36237C6.61942 11.9997 6.8384 11.814 6.88013 11.5609L7.07935 10.3656C7.52542 10.2565 7.94358 10.0811 8.32664 9.85004L9.3337 10.5693C9.54169 10.7187 9.82809 10.6952 10.0097 10.5132L10.5133 10.0097C10.6945 9.82842 10.719 9.5424 10.5685 9.33366L9.85155 8.32844C10.0851 7.94357 10.2628 7.5217 10.3726 7.07201L11.5613 6.87353C11.8147 6.8318 12 6.61279 12 6.35574V5.64385C11.9996 5.38682 11.8144 5.16783 11.5609 5.12608ZM6.01885 8.24977C4.77651 8.24977 3.76891 7.24199 3.76891 5.99983C3.76891 4.75749 4.77651 3.7499 6.01885 3.7499C7.26098 3.7499 8.26876 4.75749 8.26876 5.99983C8.26876 7.24199 7.26098 8.24977 6.01885 8.24977Z" fill="#333333"/>
</svg>
