<svg width="18" height="18" viewBox="0 0 18 18" fill="none" xmlns="http://www.w3.org/2000/svg">
<path d="M15.367 3.07317C11.8559 -0.144703 6.1435 -0.144703 2.63312 3.07239C-0.877934 6.28949 -0.877595 11.5246 2.63346 14.7423C6.1435 17.9592 11.8559 17.9592 15.3666 14.7417C18.8774 11.5246 18.8772 6.2898 15.367 3.07317ZM14.3845 13.8419C11.4155 16.5627 6.58442 16.563 3.61526 13.8422C0.645595 11.121 0.645934 6.69324 3.61526 3.97243C6.58425 1.25178 11.4152 1.25147 14.3848 3.97274C17.3538 6.69355 17.3535 11.1213 14.3845 13.8419ZM5.64132 6.67411C5.64132 6.14158 6.11261 5.70968 6.69372 5.70968C7.27465 5.70968 7.74595 6.14143 7.74595 6.67411C7.74595 7.20695 7.27465 7.63869 6.69372 7.63869C6.11261 7.63869 5.64132 7.20695 5.64132 6.67411ZM10.4132 6.67411C10.4132 6.14158 10.8848 5.70968 11.4659 5.70968C12.0469 5.70968 12.5182 6.14143 12.5182 6.67411C12.5182 7.20695 12.047 7.63869 11.4659 7.63869C10.8848 7.63869 10.4132 7.20695 10.4132 6.67411ZM12.9012 10.6241C12.249 12.0062 10.7216 12.8993 9.01015 12.8993C7.26192 12.8993 5.72549 12.0017 5.09585 10.6125C4.98791 10.3747 5.11096 10.1016 5.37079 10.0027C5.4346 9.97861 5.50079 9.9671 5.56596 9.9671C5.76555 9.9671 5.95495 10.0752 6.03624 10.2548C6.50754 11.2947 7.67484 11.9663 9.01015 11.9663C10.3153 11.9663 11.4758 11.2942 11.9666 10.2537C12.0783 10.0172 12.378 9.90816 12.6359 10.0107C12.8939 10.1131 13.0129 10.3877 12.9012 10.6241Z" fill="#DADADA"/>
</svg>
