<svg width="62" height="62" viewBox="0 0 62 62" fill="none" xmlns="http://www.w3.org/2000/svg">
<path d="M28.6071 35.4271L54.56 9.47421L57.4858 12.4L27.9 41.9858L15.3642 29.45L18.29 26.5242L27.1929 35.4271L27.9 36.1342L28.6071 35.4271ZM31 56.8C44.8575 56.8 56.2509 45.7335 56.7807 32H60.9834C60.4511 48.0398 47.1631 61 31 61C14.5023 61 1 47.4977 1 31C1 14.5023 14.5023 1 31 1C34.3388 1 37.7028 1.66349 40.9098 2.62603L37.5236 6.01223C35.4498 5.47025 33.3539 5.2 31 5.2C16.8077 5.2 5.2 16.8077 5.2 31C5.2 45.1923 16.8077 56.8 31 56.8Z" fill="#2BCC61" stroke="#F3F3F3" stroke-width="2"/>
</svg>
