<svg width="80" height="80" viewBox="0 0 80 80" fill="none" xmlns="http://www.w3.org/2000/svg">
<path d="M36.7071 45.5071L70.4 11.8142L74.5858 16L36 54.5858L19.4142 38L23.6 33.8142L35.2929 45.5071L36 46.2142L36.7071 45.5071ZM40 73C57.8178 73 72.4517 58.6944 72.9849 41H78.9873C78.4519 61.9906 61.1134 79 40 79C18.5523 79 1 61.4477 1 40C1 18.5523 18.5523 1 40 1C44.5068 1 49.0406 1.92864 53.3344 3.25149L48.5048 8.08103C45.801 7.35982 43.074 7 40 7C21.8477 7 7 21.8477 7 40C7 58.1523 21.8477 73 40 73Z" fill="#2BCC61" stroke="white" stroke-width="2"/>
</svg>
