<svg width="16" height="16" viewBox="0 0 16 16" fill="none" xmlns="http://www.w3.org/2000/svg">
<path d="M7.27071 9.03071L14.08 2.22142L15.0586 3.2L7.2 11.0586L3.74142 7.6L4.72 6.62142L7.12929 9.03071L7.2 9.10142L7.27071 9.03071ZM8 14.5C11.5418 14.5 14.4453 11.6296 14.4992 8.1H15.8994C15.8453 12.3992 12.3114 15.9 8 15.9C3.65523 15.9 0.1 12.3448 0.1 8C0.1 3.65523 3.65523 0.1 8 0.1C8.97028 0.1 9.94362 0.312015 10.8542 0.604404L9.73069 1.72789C9.18032 1.57591 8.62743 1.5 8 1.5C4.42477 1.5 1.5 4.42477 1.5 8C1.5 11.5752 4.42477 14.5 8 14.5Z" fill="white" stroke="#2BCC61" stroke-width="0.2"/>
</svg>
