<svg width="16" height="14" viewBox="0 0 16 14" fill="none" xmlns="http://www.w3.org/2000/svg">
<path d="M16 2.03775C15.4112 2.29881 14.7787 2.47528 14.1147 2.55462C14.7923 2.14837 15.3128 1.50509 15.558 0.738534C14.9236 1.11475 14.2212 1.38791 13.4734 1.53509C12.8747 0.897127 12.0215 0.498535 11.0774 0.498535C9.26456 0.498535 7.79484 1.96819 7.79484 3.78099C7.79484 4.03827 7.82387 4.2888 7.87984 4.52908C5.15173 4.39214 2.73296 3.08534 1.11396 1.09931C0.831403 1.58412 0.669497 2.148 0.669497 2.74959C0.669497 3.88846 1.249 4.89321 2.1298 5.48186C1.59171 5.4648 1.08556 5.31714 0.643029 5.07127C0.642716 5.08495 0.642716 5.0987 0.642716 5.11255C0.642716 6.70298 1.77424 8.02966 3.27586 8.33129C3.00046 8.40625 2.71043 8.4465 2.41105 8.4465C2.19952 8.4465 1.9939 8.42588 1.79343 8.3875C2.21118 9.69156 3.42342 10.6407 4.85986 10.6672C3.73642 11.5476 2.32102 12.0724 0.783059 12.0724C0.518092 12.0724 0.256811 12.0569 0 12.0264C1.45268 12.9579 3.17814 13.5013 5.03189 13.5013C11.0697 13.5013 14.3715 8.49938 14.3715 4.16158C14.3715 4.01927 14.3682 3.87771 14.3619 3.7369C15.0034 3.27412 15.5599 2.696 16 2.03775Z" fill="white"/>
</svg>
