<svg width="18" height="19" viewBox="0 0 18 19" fill="none" xmlns="http://www.w3.org/2000/svg">
<path d="M16.5921 13.1333C16.0702 12.6115 15.1967 12.156 13.8198 11.4673C13.1257 11.1202 11.9705 10.5429 11.6904 10.2784C12.8632 8.83689 13.5439 7.2087 13.5439 5.78346C13.5439 4.81636 13.5439 3.61287 13.0026 2.53952C12.5147 1.57283 11.4242 0.421143 9.00062 0.421143C6.5765 0.421143 5.48602 1.57283 4.99859 2.53938C4.4566 3.61287 4.4566 4.81622 4.4566 5.78333C4.4566 7.20912 5.13675 8.83689 6.31027 10.2783C6.02953 10.5433 4.87439 11.1208 4.18029 11.4671C2.80382 12.1557 1.93038 12.6112 1.40801 13.1332C0.251765 14.2903 0.164311 16.2315 0.158371 16.6092C0.15243 17.0033 0.30468 17.3842 0.582101 17.6659C0.858417 17.9465 1.23738 18.1052 1.63141 18.1052H16.3686C16.7637 18.1052 17.1417 17.9466 17.4186 17.6659C17.6954 17.3842 17.8482 17.0031 17.8423 16.6087C17.8364 16.2317 17.7482 14.2904 16.5921 13.1333Z" fill="white"/>
</svg>
