<svg width="38" height="24" viewBox="0 0 38 24" fill="none" xmlns="http://www.w3.org/2000/svg">
<path d="M8.72696 9.61802L9.60114 15.8847H11.7502L15.7536 8.12524H13.4959L11.7954 11.7234C11.5546 12.234 11.3469 12.6967 11.1682 13.1204C11.1352 12.6786 11.0994 12.2488 11.0562 11.8104L10.7094 8.12543H7.27734L10.8483 10.9512L8.72696 9.61802Z" fill="#898989"/>
<path d="M17.2958 15.8845L18.7677 8.12524H16.7474L15.2734 15.8845H17.2958Z" fill="#898989"/>
<path d="M18.4791 15.4271C18.9526 15.7818 19.7857 15.9944 20.7072 15.9944C22.6195 15.9944 23.9025 14.9144 23.9025 13.3076C23.9025 12.4293 23.3891 11.7319 22.3368 11.1795C21.7451 10.8496 21.3883 10.627 21.3883 10.3471C21.3883 10.0853 21.6643 9.8028 22.3145 9.8028C22.9473 9.8028 23.4356 10.0503 23.5246 10.0997L23.7553 10.2265L24.4008 8.497L24.2308 8.40389C23.7493 8.13813 23.149 8.00732 22.3994 8.00732C20.5679 8.00732 19.289 9.07639 19.289 10.6071C19.289 11.718 20.1626 12.3345 20.9288 12.7475C21.6513 13.1212 21.7923 13.335 21.7923 13.5779C21.7923 14.0427 21.2884 14.2093 20.858 14.2093C20.2953 14.2093 19.7099 14.0495 19.2512 13.7749L19.0231 13.6378L18.3398 15.3215L18.4791 15.4271Z" fill="#898989"/>
<path d="M25.853 15.8844L26.7211 13.9883H28.4715L28.6233 15.8844H30.7224L29.8124 8.125H27.4643L23.6875 15.8844H25.853ZM27.9628 11.0898C28.0437 10.9151 28.1268 10.7181 28.2077 10.5104C28.2218 10.6953 28.2367 10.8672 28.2474 11.0171L28.3675 12.344H27.3861L27.9628 11.0898Z" fill="#898989"/>
<path d="M38 23.6302H0V0.369873H38V23.6302ZM1.20006 22.4309H36.7994V1.5705H1.20006V22.4309Z" fill="#898989"/>
</svg>
