<svg width="18" height="20" viewBox="0 0 18 20" fill="none" xmlns="http://www.w3.org/2000/svg">
<path d="M0 19.0099L1.26063 14.5326C0.449971 13.1554 0.0231534 11.5885 0.0231534 9.97876C0.0231534 5.02247 4.05539 0.990234 9.01168 0.990234C13.968 0.990234 18.0001 5.02247 18.0001 9.97876C18.0001 14.9351 13.968 18.9673 9.01168 18.9673C7.46733 18.9673 5.95512 18.572 4.61734 17.8214L0 19.0099ZM4.8534 16.1861L5.12853 16.3541C6.29491 17.0662 7.63771 17.4425 9.01168 17.4425C13.1272 17.4425 16.4754 14.0943 16.4754 9.97876C16.4754 5.86323 13.1272 2.51499 9.01168 2.51499C4.89615 2.51499 1.54791 5.86323 1.54791 9.97876C1.54791 11.4128 1.95547 12.8053 2.72643 14.0059L2.91171 14.2944L2.18576 16.8728L4.8534 16.1861Z" fill="white"/>
<path d="M6.48728 5.79506L5.90403 5.76326C5.72084 5.75327 5.54114 5.81448 5.40267 5.93477C5.11992 6.18031 4.6678 6.65502 4.52893 7.27362C4.32185 8.19598 4.64188 9.32542 5.47016 10.4549C6.29844 11.5843 7.84199 13.3914 10.5715 14.1632C11.451 14.4119 12.1429 14.2443 12.6768 13.9028C13.0996 13.6323 13.391 13.1982 13.4961 12.7075L13.5892 12.2725C13.6188 12.1343 13.5486 11.994 13.4202 11.9348L11.449 11.0263C11.321 10.9673 11.1693 11.0046 11.0832 11.1161L10.3094 12.1193C10.2509 12.1951 10.1509 12.2251 10.0605 12.1934C9.53057 12.0071 7.75542 11.2637 6.78139 9.38743C6.73915 9.30605 6.74965 9.20728 6.80957 9.13788L7.54913 8.28232C7.62469 8.19496 7.64378 8.07213 7.59837 7.96597L6.74869 5.97808C6.70346 5.87226 6.60209 5.80133 6.48728 5.79506Z" fill="white"/>
</svg>
