<svg width="15" height="17" fill="none" xmlns="http://www.w3.org/2000/svg"><path fill-rule="evenodd" clip-rule="evenodd" d="M10.177 1.156c.66.64 1.002 1.443.987 2.281l1.207.04L13 17 0 15.461 2.241 3.152l1.21.039v-.033c0-.062 0-.125.006-.188C3.614 1.166 5.434-.17 7.593.018c.998.086 1.916.49 2.584 1.138zm-.731-.124c-.143-.105-.361-.024-.444.116-.096.164-.025.339.116.443.344.252.608.587.803.964.191.371.75.043.56-.327-.248-.48-.6-.878-1.035-1.196zm-2.25.588c-1.119 0-2.052.655-2.125 1.49a1.183 1.183 0 0 0-.002.133l4.477.143c-.001-.378-.174-.753-.498-1.068-.401-.388-.967-.632-1.595-.687a3.138 3.138 0 0 0-.257-.01zM3 4.5l-1.5 10 10 1V5L3 4.5z" fill="#9B6B0C"/><path d="M15 13.543L13 3l.675 13 1.25-2.145-.937-.21.05-.318.962.216z" fill="#9B6B0C"/></svg>