<svg fill="none" height="20" width="25" xmlns="http://www.w3.org/2000/svg"><g fill="#fff"><path d="M10.246 20c.987 0 1.786-.814 1.786-1.82 0-1.004-.8-1.818-1.786-1.818s-1.786.814-1.786 1.819S9.26 20 10.246 20zm8.544-3.618c-.971-.1-1.845.632-1.942 1.621-.097.989.621 1.878 1.592 1.977.116.02.233.02.35 0 .97-.099 1.688-.988 1.591-1.977a1.76 1.76 0 0 0-1.592-1.621z"/><path d="M23.866 5.764l.006.01.008.01c.129.147.178.363.112.512l-.006.012-.003.013-.155.633h0l-.602 2.472v0l-.408 1.68h0l-.602 2.472h0l-.252 1.048h0l-.001.005a.666.666 0 0 1-.65.533H7.528a.651.651 0 0 1-.502-.218c-.076-.117-.13-.207-.145-.323h0l-.002-.013-.214-1.008h0l-.524-2.471v-.001l-.369-1.68v-.001l-.524-2.47v-.002l-.37-1.68v-.001l-.388-1.72v-.001a1.07 1.07 0 0 0-1.04-.828H1.665c-.373 0-.738-.17-1.012-.4a1.54 1.54 0 0 1-.32-.363.636.636 0 0 1-.11-.313.91.91 0 0 1 .043-.325.213.213 0 0 1 .11-.122c.06-.03.15-.05.291-.062.14-.012.313-.013.532-.013h1.958c.771.02 1.336.165 1.744.439.403.27.671.678.83 1.26.01.072.025.138.039.198v.003c.015.065.028.123.037.185h0l.002.01.349 1.64a.757.757 0 0 0 .749.615h16.445c.21 0 .41.098.514.265zM10.979 9.362h0v-.011l-.175-2.21a.27.27 0 0 0-.08-.18.265.265 0 0 0-.186-.082H7.004c-.184 0-.302.179-.263.342l.483 2.203a.222.222 0 0 0 .029.085c.015.026.034.05.055.068.04.036.104.074.181.074h3.223c.158 0 .267-.145.267-.289zm-2.86 4.224l.002.008.002.007a.32.32 0 0 0 .147.177.196.196 0 0 0 .093.025h2.68c.157 0 .266-.144.266-.288h0v-.012l-.175-2.21a.27.27 0 0 0-.08-.18.265.265 0 0 0-.186-.081H7.897c-.184 0-.301.178-.263.341zm4.404-2.266h0v.012l.175 2.21a.27.27 0 0 0 .08.179.266.266 0 0 0 .186.082h3.185a.266.266 0 0 0 .187-.082.27.27 0 0 0 .08-.18l.173-2.2a.255.255 0 0 0-.058-.22.275.275 0 0 0-.207-.09H12.79c-.158 0-.267.145-.267.289zm-.33-4.152h0v.012l.175 2.21a.27.27 0 0 0 .08.179.266.266 0 0 0 .186.082h3.864c.08 0 .143-.04.184-.077a.347.347 0 0 0 .095-.145l.005-.017.002-.018.174-2.205a.255.255 0 0 0-.058-.22.275.275 0 0 0-.208-.09H12.46c-.158 0-.267.145-.267.289zm10.237.055l-.146-.036.146.036c.04-.164-.078-.344-.262-.344h-3.592a.265.265 0 0 0-.187.082.27.27 0 0 0-.08.18l-.173 2.2c-.016.08.005.16.058.22.054.06.13.09.207.09h3.223c.064 0 .12-.03.159-.06a.305.305 0 0 0 .1-.142h0l.003-.011zm-4.378 6.58h2.524c.102 0 .253-.07.265-.227l.54-2.2c.04-.164-.077-.344-.262-.344h-2.893a.265.265 0 0 0-.187.082.27.27 0 0 0-.08.179l-.173 2.2a.26.26 0 0 0 .058.22c.054.06.131.09.207.09z" stroke="#1884a1" stroke-width=".3"/></g></svg>