<svg width="20" height="18" fill="none" xmlns="http://www.w3.org/2000/svg"><path d="M20 1.203v-.031l-.001-.012v-.002l-.001-.008a.22.22 0 0 0-.001-.008l-.002-.012a.242.242 0 0 0-.004-.017v-.001l-.004-.012a.307.307 0 0 0-.004-.016c-.001-.003-.003-.005-.003-.008l-.003-.007-.006-.013-.007-.014-.004-.007-.003-.006a.38.38 0 0 0-.012-.02l-.005-.005v-.002l-.013-.015-.008-.01-.003-.003-.007-.007-.013-.012V.954L19.89.949l-.003-.002-.004-.003-.002-.002-.01-.007-.008-.006a.266.266 0 0 0-.017-.011l-.012-.007-.014-.007-.006-.003L19.81.9l-.006-.003-.012-.004-.013-.004-.008-.003-.008-.002-.017-.004-.01-.002h-.003l-.016-.002h-.014l-.006-.001h-.024l-.013.001h-.008l-.01.002-.012.002-.015.003h-.002L19.6.888l-.016.005-.007.003h-.002L.2 8.396a.312.312 0 0 0 0 .584l5.777 2.22 1.85 5.708.002.002.001.005a.322.322 0 0 0 .04.076l.002.004.002.002.001.002.008.009.009.01.007.009.004.003.005.006.006.005.006.005a.299.299 0 0 0 .02.017h.001l.006.005a.3.3 0 0 0 .032.019l.005.003h.002c.01.006.02.01.032.015l.007.002.009.003a.326.326 0 0 0 .04.01h.006c.015.003.03.004.045.004h.004a.329.329 0 0 0 .038-.003h.006l.008-.003a.297.297 0 0 0 .03-.007l.009-.002h.001l.005-.002.014-.005a.278.278 0 0 0 .018-.008l.002-.001h.002l.008-.005a.289.289 0 0 0 .03-.018l.003-.002.015-.011.009-.007.009-.008.006-.007a.2.2 0 0 0 .028-.03l.002-.002.002-.003.002-.003 2.284-3.086a.313.313 0 0 0-.502-.371l-.993 1.34.789-2.152 7.464 2.833a.313.313 0 0 0 .42-.245l2.159-14.082v-.002l.002-.016v-.014zm-2.44 1.143L8.635 8.828a.313.313 0 1 0 .367.506l8.527-6.193-7.98 8.961a.31.31 0 0 0-.073.111l-.007.023-1.326 3.619-1.618-4.989a.312.312 0 0 0-.184-.195h-.002L1.181 8.686l16.38-6.34zm-.283 12.494l-6.974-2.647 8.915-10.01-1.94 12.657z" fill="#9B6B0C"/></svg>