<svg width="20" height="20" fill="none" xmlns="http://www.w3.org/2000/svg"><path d="M2.249 19.069h0l.003-.003 5.138-5.128a7.331 7.331 0 0 0 4.846 1.833c4.046 0 7.349-3.292 7.349-7.349s-3.303-7.35-7.35-7.35c-4.045.001-7.348 3.293-7.348 7.35 0 1.59.503 3.056 1.36 4.26l-5.194 5.195a.839.839 0 0 0-.253.595c0 .21.082.436.256.597.328.325.86.32 1.193 0zm9.987-16.302a5.66 5.66 0 0 1 5.655 5.655 5.66 5.66 0 0 1-5.655 5.655A5.654 5.654 0 0 1 6.58 8.422a5.66 5.66 0 0 1 5.655-5.655z" fill="#fff" stroke="#fff" stroke-width=".4"/></svg>