<svg width="18" height="19" fill="none" xmlns="http://www.w3.org/2000/svg"><path d="M16.592 13.133c-.522-.521-1.395-.977-2.772-1.666-.694-.347-1.85-.924-2.13-1.189 1.173-1.441 1.854-3.07 1.854-4.495 0-.967 0-2.17-.541-3.243C12.515 1.573 11.424.42 9 .42c-2.424 0-3.515 1.152-4.002 2.118-.542 1.074-.542 2.277-.542 3.244 0 1.426.68 3.054 1.853 4.495-.28.265-1.436.843-2.13 1.19-1.376.688-2.25 1.143-2.772 1.665C.252 14.29.164 16.232.158 16.61a1.474 1.474 0 0 0 1.473 1.496H16.37a1.475 1.475 0 0 0 1.473-1.496c-.006-.377-.094-2.319-1.25-3.476z" fill="#fff"/></svg>