<svg width="18" height="20" fill="none" xmlns="http://www.w3.org/2000/svg"><path d="M0 19.01l1.26-4.477A8.96 8.96 0 0 1 .024 9.979C.023 5.022 4.055.99 9.012.99 13.968.99 18 5.022 18 9.98c0 4.956-4.032 8.988-8.988 8.988a8.977 8.977 0 0 1-4.395-1.146L0 19.01zm4.853-2.824l.276.168a7.448 7.448 0 0 0 3.883 1.088c4.115 0 7.463-3.348 7.463-7.463 0-4.116-3.348-7.464-7.463-7.464-4.116 0-7.464 3.348-7.464 7.464 0 1.434.407 2.826 1.178 4.027l.186.288-.726 2.579 2.667-.687z" fill="#fff"/><path d="M6.487 5.795l-.583-.032a.705.705 0 0 0-.501.172c-.283.245-.735.72-.874 1.339-.207.922.113 2.051.941 3.18.828 1.13 2.372 2.937 5.102 3.71.879.248 1.57.08 2.105-.261.423-.27.714-.705.82-1.196l.092-.434a.302.302 0 0 0-.169-.338l-1.971-.909a.302.302 0 0 0-.366.09l-.774 1.003a.222.222 0 0 1-.248.074c-.53-.186-2.306-.93-3.28-2.806a.224.224 0 0 1 .029-.25l.74-.855a.302.302 0 0 0 .048-.316l-.85-1.988a.302.302 0 0 0-.26-.183z" fill="#fff"/></svg>