<svg width="18" height="17" fill="none" xmlns="http://www.w3.org/2000/svg"><g clip-path="url(#clip0)"><path d="M15 0H3c-.942 0-1.714.729-1.714 1.619v11.333c0 .89.772 1.62 1.714 1.62h3.43L9 17l2.572-2.429H15c.943 0 1.715-.728 1.715-1.619V1.62C16.715.729 15.943 0 15 0zM9.858 12.952H8.143v-1.619h1.715v1.62zm1.8-6.233l-.772.729c-.685.566-1.028 1.052-1.028 2.266H8.143V9.31c0-.891.343-1.7 1.029-2.267L10.2 5.99c.343-.242.515-.647.515-1.133 0-.89-.772-1.619-1.715-1.619-.942 0-1.714.729-1.714 1.62H5.572c0-1.782 1.543-3.239 3.428-3.239 1.886 0 3.429 1.457 3.429 3.238 0 .729-.343 1.376-.771 1.862z" fill="#000"/></g><defs><clipPath id="clip0"><path fill="#fff" d="M0 0h18v17H0z"/></clipPath></defs></svg>