<svg width="15" height="15" fill="none" xmlns="http://www.w3.org/2000/svg"><path d="M11.404 9.923c-.49-.484-1.102-.484-1.589 0a93.17 93.17 0 0 0-1.108 1.11c-.1.104-.184.126-.306.057-.24-.131-.496-.237-.727-.38-1.077-.678-1.98-1.549-2.778-2.53-.397-.486-.75-1.007-.996-1.594-.05-.119-.04-.197.056-.294.372-.358.734-.727 1.099-1.095.509-.512.509-1.111-.003-1.626-.29-.294-.58-.58-.871-.874-.3-.3-.596-.603-.899-.9-.49-.477-1.102-.477-1.589.004C1.32 2.169.96 2.547.58 2.909a1.81 1.81 0 0 0-.568 1.22c-.06.778.131 1.511.4 2.226.549 1.48 1.385 2.794 2.4 3.998a14.855 14.855 0 0 0 4.919 3.849c.861.418 1.754.74 2.725.793.668.037 1.248-.131 1.714-.652.318-.356.677-.681 1.014-1.021.5-.506.502-1.118.006-1.617-.593-.596-1.189-1.19-1.785-1.782zm-.597-2.488l1.152-.196A5.148 5.148 0 0 0 10.52 4.46a5.12 5.12 0 0 0-2.934-1.463l-.162 1.158a3.972 3.972 0 0 1 2.272 1.133c.587.586.97 1.33 1.111 2.147zm1.802-5.007A8.493 8.493 0 0 0 7.739 0l-.162 1.158a7.364 7.364 0 0 1 4.208 2.098 7.358 7.358 0 0 1 2.063 3.98L15 7.038a8.555 8.555 0 0 0-2.391-4.61z" fill="#000"/></svg>