<svg width="22" height="21" fill="none" xmlns="http://www.w3.org/2000/svg"><path d="M15.965 13.892c-.686-.678-1.542-.678-2.224 0-.52.515-1.04 1.031-1.551 1.555-.14.145-.258.175-.429.08-.336-.184-.694-.333-1.018-.534-1.507-.948-2.77-2.168-3.889-3.54-.555-.681-1.049-1.411-1.394-2.233-.07-.166-.057-.275.079-.41.52-.503 1.027-1.019 1.538-1.534.712-.717.712-1.556-.004-2.277-.407-.41-.813-.813-1.22-1.223-.42-.42-.834-.844-1.258-1.259-.686-.669-1.543-.669-2.224.004-.525.516-1.027 1.045-1.56 1.552C.317 4.54.068 5.113.015 5.78-.068 6.87.2 7.896.575 8.897c.769 2.071 1.94 3.911 3.36 5.598 1.918 2.28 4.208 4.086 6.887 5.388 1.206.585 2.456 1.036 3.815 1.11.935.052 1.748-.184 2.399-.913.445-.499.948-.953 1.42-1.43.7-.707.704-1.564.009-2.263-.83-.835-1.665-1.665-2.5-2.495zm-.83-3.483l1.613-.275a7.206 7.206 0 0 0-2.015-3.89 7.168 7.168 0 0 0-4.107-2.049l-.228 1.621c1.21.17 2.312.717 3.182 1.587a5.561 5.561 0 0 1 1.555 3.006zM17.654 3.4A11.89 11.89 0 0 0 10.837 0l-.228 1.621a10.31 10.31 0 0 1 5.89 2.937 10.301 10.301 0 0 1 2.89 5.571L21 9.854A11.977 11.977 0 0 0 17.654 3.4z" fill="#FDB932"/></svg>