<svg width="25" height="25" viewBox="0 0 25 25" fill="none" xmlns="http://www.w3.org/2000/svg">
<g clip-path="url(#clip0)">
<path d="M22.8879 17.9234C22.8879 18.1746 22.6785 18.3763 22.4179 18.3763H16.0426C13.7738 18.3763 12.9501 19.4018 12.9501 19.4018L12.8458 19.5416L12.7969 19.6097C12.7965 19.6097 12.7965 19.6097 12.7965 19.6097C12.5802 19.9031 12.262 19.612 12.2605 19.6104L12.1137 19.427C12.0049 19.2964 11.1715 18.3764 9.15494 18.3764H2.58189C2.32246 18.3764 2.11289 18.1738 2.11289 17.9234V4.36212C2.11289 4.11167 2.32246 3.90897 2.58189 3.90897H7.6849C11.4807 3.90897 11.8402 6.06503 11.865 6.69146V16.1227C11.865 16.8081 12.1917 16.9368 12.3759 16.956H12.6502C12.8378 16.9368 13.1366 16.8253 13.1366 16.2904V6.56976H13.1335C13.1618 5.78534 13.4675 3.90858 15.7508 3.90858H22.418C22.6786 3.90858 22.8879 4.11128 22.8879 4.36172V17.9234H22.8879ZM24.5775 6.56976H24.5553C24.1263 6.57262 24.0597 6.20008 24.0525 6.0272V3.3225C24.0525 3.03387 23.8186 2.7998 23.5306 2.7998H15.7974C13.8572 2.7998 13.1335 3.5189 12.9539 3.74468L12.9046 3.81309L12.9042 3.81423L12.7514 4.02402C12.7506 4.02402 12.7506 4.02402 12.7506 4.02402C12.5454 4.30618 12.3667 4.18602 12.2803 4.09375L11.9876 3.72865L11.8428 3.55405C11.5998 3.29863 10.9655 2.7998 9.70847 2.7998H1.47004C1.18118 2.7998 0.947344 3.03382 0.947344 3.3225V5.99284C0.947344 6.4603 0.693462 6.55412 0.537539 6.5698H0.421786C0.295153 6.5776 0 6.65115 0 7.19389V19.9207C0 20.2324 0.253309 20.4853 0.565464 20.4853H8.08436C10.483 20.4853 11.5284 21.3901 11.8417 21.737L12.0205 21.9586H12.0209C12.0209 21.9586 12.5008 22.5012 13.0063 21.9586L13.1114 21.8356L13.1129 21.8348L13.2466 21.6781C13.2505 21.6736 13.2825 21.6376 13.3292 21.5903C13.7296 21.2006 14.7299 20.4853 16.6861 20.4853H24.4346C24.7471 20.4853 25 20.2324 25 19.9206V7.0706C25 6.61045 24.6669 6.57222 24.5775 6.56976Z" fill="#CACACA"/>
</g>
<defs>
<clipPath id="clip0">
<rect width="25" height="25" fill="white"/>
</clipPath>
</defs>
</svg>
