<svg width="32" height="18" viewBox="0 0 32 18" fill="none" xmlns="http://www.w3.org/2000/svg">
<path d="M28.4873 2.55899C28.1606 2.55899 27.841 2.60362 27.5345 2.6909C27.1558 1.14754 25.7703 0 24.1239 0C22.1867 0 20.6108 1.58845 20.6108 3.54089V6.08806H11.3893V3.54089C11.3893 1.58845 9.81335 0 7.87627 0C6.22981 0 4.84428 1.14763 4.46563 2.6909C4.15908 2.60371 3.83956 2.55908 3.51288 2.55908C1.57588 2.55908 0 4.14752 0 6.09996V11.9001C0 13.8526 1.57597 15.441 3.51297 15.441C3.83956 15.441 4.15908 15.3964 4.46563 15.3091C4.84428 16.8524 6.2299 18 7.87627 18C9.81335 18 11.3892 16.4116 11.3892 14.4591V11.9121H20.6108V14.4591C20.6108 16.4116 22.1867 18 24.1237 18C25.7702 18 27.1557 16.8524 27.5344 15.3091C27.8409 15.3964 28.1605 15.441 28.487 15.441C30.4241 15.441 32 13.8526 32 11.9001V6.09996C32.0002 4.14743 30.4243 2.55899 28.4873 2.55899ZM4.36339 13.6142C4.10085 13.7483 3.81227 13.818 3.51297 13.818C2.46378 13.818 1.61014 12.9577 1.61014 11.9001V6.09996C1.61014 5.04241 2.46369 4.18205 3.51288 4.18205C3.81236 4.18205 4.10103 4.25175 4.36339 4.38583V13.6142ZM9.77918 14.4591C9.77918 15.5167 8.92554 16.377 7.87636 16.377C6.82717 16.377 5.97353 15.5167 5.97353 14.4591V14.0633V14.0474V3.95267V3.93653V3.54089C5.97353 2.48334 6.82708 1.62298 7.87627 1.62298C8.92554 1.62298 9.77918 2.48334 9.77918 3.54089V14.4591ZM20.6108 10.2891H11.3893V7.71113H20.6108V10.2891ZM26.0266 3.93644V3.95285V14.0473V14.0632V14.459C26.0266 15.5166 25.173 16.3769 24.1237 16.3769C23.0745 16.3769 22.2209 15.5166 22.2209 14.459V11.1005V3.54089C22.2209 2.48334 23.0746 1.62298 24.1239 1.62298C25.1731 1.62298 26.0267 2.48334 26.0267 3.54089L26.0266 3.93644ZM30.39 11.9C30.39 12.9576 29.5364 13.8179 28.4872 13.8179C28.1879 13.8179 27.8993 13.7482 27.6368 13.6141V4.38574C27.8992 4.25166 28.1879 4.18197 28.4874 4.18197C29.5366 4.18197 30.3901 5.04232 30.3901 6.09987L30.39 11.9ZM25.1291 3.60013V3.91318C25.1291 4.36139 24.7687 4.72467 24.324 4.72467C23.8794 4.72467 23.5189 4.36139 23.5189 3.91318V3.60013C23.5189 3.15191 23.8794 2.78864 24.324 2.78864C24.7687 2.78864 25.1291 3.15191 25.1291 3.60013Z" fill="#CACACA"/>
<path d="M28.4873 2.55899C28.1606 2.55899 27.841 2.60362 27.5345 2.6909C27.1558 1.14754 25.7703 0 24.1239 0C22.1867 0 20.6108 1.58845 20.6108 3.54089V6.08806H11.3893V3.54089C11.3893 1.58845 9.81335 0 7.87627 0C6.22981 0 4.84428 1.14763 4.46563 2.6909C4.15908 2.60371 3.83956 2.55908 3.51288 2.55908C1.57588 2.55908 0 4.14752 0 6.09996V11.9001C0 13.8526 1.57597 15.441 3.51297 15.441C3.83956 15.441 4.15908 15.3964 4.46563 15.3091C4.84428 16.8524 6.2299 18 7.87627 18C9.81335 18 11.3892 16.4116 11.3892 14.4591V11.9121H20.6108V14.4591C20.6108 16.4116 22.1867 18 24.1237 18C25.7702 18 27.1557 16.8524 27.5344 15.3091C27.8409 15.3964 28.1605 15.441 28.487 15.441C30.4241 15.441 32 13.8526 32 11.9001V6.09996C32.0002 4.14743 30.4243 2.55899 28.4873 2.55899ZM4.36339 13.6142C4.10085 13.7483 3.81227 13.818 3.51297 13.818C2.46378 13.818 1.61014 12.9577 1.61014 11.9001V6.09996C1.61014 5.04241 2.46369 4.18205 3.51288 4.18205C3.81236 4.18205 4.10103 4.25175 4.36339 4.38583V13.6142ZM9.77918 14.4591C9.77918 15.5167 8.92554 16.377 7.87636 16.377C6.82717 16.377 5.97353 15.5167 5.97353 14.4591V14.0633V14.0474V3.95267V3.93653V3.54089C5.97353 2.48334 6.82708 1.62298 7.87627 1.62298C8.92554 1.62298 9.77918 2.48334 9.77918 3.54089V14.4591ZM20.6108 10.2891H11.3893V7.71113H20.6108V10.2891ZM26.0266 3.93644V3.95285V14.0473V14.0632V14.459C26.0266 15.5166 25.173 16.3769 24.1237 16.3769C23.0745 16.3769 22.2209 15.5166 22.2209 14.459V11.1005V3.54089C22.2209 2.48334 23.0746 1.62298 24.1239 1.62298C25.1731 1.62298 26.0267 2.48334 26.0267 3.54089L26.0266 3.93644ZM30.39 11.9C30.39 12.9576 29.5364 13.8179 28.4872 13.8179C28.1879 13.8179 27.8993 13.7482 27.6368 13.6141V4.38574C27.8992 4.25166 28.1879 4.18197 28.4874 4.18197C29.5366 4.18197 30.3901 5.04232 30.3901 6.09987L30.39 11.9ZM25.1291 3.60013V3.91318C25.1291 4.36139 24.7687 4.72467 24.324 4.72467C23.8794 4.72467 23.5189 4.36139 23.5189 3.91318V3.60013C23.5189 3.15191 23.8794 2.78864 24.324 2.78864C24.7687 2.78864 25.1291 3.15191 25.1291 3.60013Z" stroke="white"/>
</svg>
