<svg width="28" height="28" viewBox="0 0 28 28" fill="none" xmlns="http://www.w3.org/2000/svg">
<g clip-path="url(#clip0)">
<path d="M2.25769 26.2362C1.85658 25.272 2.29224 24.1417 3.54997 22.8787L25.8857 0.445887C26.7357 -0.250045 27.5008 -0.0760999 27.7837 0.586639C28.6019 2.49522 22.645 13.2693 19.9555 16.097C17.068 19.1292 14.8898 20.2435 13.2642 19.5516C12.2973 19.1438 10.8217 20.9966 9.74321 22.3049C9.37131 22.7551 8.97554 23.3063 8.5691 23.8735C7.2808 25.6692 6.06288 27.3639 4.68419 27.5578C4.64836 27.5631 4.49158 27.5724 4.45575 27.5724C3.79572 27.571 2.66542 27.2164 2.25769 26.2362ZM13.8778 18.1065C13.9947 18.157 14.1168 18.1796 14.2589 18.1796C14.8367 18.1796 16.1981 17.7691 18.8198 15.0145C21.358 12.3476 24.7727 5.73462 25.9215 2.62807L4.66297 23.9823C3.80762 24.8417 3.61372 25.4087 3.70668 25.6333C3.79565 25.8471 4.2167 26.0025 4.45711 26.0025L4.46772 26.0039C5.18224 25.9029 6.45465 24.1298 7.29668 22.9584C7.72436 22.3607 8.1427 21.7803 8.53455 21.3061C9.84143 19.7217 11.3223 17.9246 12.9892 17.9246C13.2947 17.9232 13.5936 17.9843 13.8778 18.1065Z" fill="#C9C9C9"/>
<path d="M9.43521 9.75649C9.74464 9.49215 9.7819 9.02337 9.51756 8.71387L3.94995 2.18592C3.68569 1.87649 3.21684 1.83923 2.90733 2.10357C2.59791 2.36784 2.56065 2.83669 2.82364 3.14619L8.39267 9.67414C8.65694 9.98357 9.12579 10.0208 9.43521 9.75649Z" fill="#C9C9C9"/>
<path d="M5.84405 1.65992L10.1473 6.32972C10.9375 7.18771 11.1076 8.47337 10.5723 9.53059C10.4156 9.83874 10.4714 10.2119 10.7118 10.4603L11.9961 11.8084C12.7532 12.5893 13.8861 11.467 13.1556 10.6728L12.2525 9.72049C12.7917 8.18118 12.4544 6.43992 11.3414 5.23126L7.03675 0.557539C6.06986 -0.388134 4.88649 0.731559 5.84006 1.65593L5.84405 1.65992Z" fill="#C9C9C9"/>
<path d="M25.197 23.1482L20.316 18.064C19.5669 17.4039 18.4858 18.4903 19.2096 19.2541L24.0348 24.2798C24.9194 25.179 25.1173 25.7673 25.0203 25.9985C24.9286 26.219 24.4931 26.377 24.2433 26.377V27.1886L24.2261 26.377C23.481 26.1088 20.9455 23.3794 18.1538 20.213C17.4724 19.3351 16.1615 20.3285 16.799 21.1441C19.6864 24.4339 22.8289 27.8128 23.9963 27.9828C24.0348 27.9881 24.2048 28 24.2433 28C24.926 28 26.0948 27.6347 26.5172 26.6254C26.9329 25.6332 26.4893 24.4632 25.197 23.1482Z" fill="#C9C9C9"/>
<path d="M11.3792 12.4101C10.8864 11.8523 10.6579 11.5587 10.1427 11.0009C9.90887 10.7445 9.53705 10.6675 9.21693 10.8096C8.12652 11.2957 6.78508 11.0301 5.98551 10.1629L1.68226 5.49163L1.66902 5.48102C0.805686 4.51412 -0.462737 5.50759 0.474957 6.57677L4.79153 11.2625C5.62294 12.1643 6.80766 12.6823 8.04553 12.6823C8.47983 12.6823 8.90487 12.6212 9.31523 12.5004C9.72033 12.944 9.82924 13.106 10.2184 13.547C10.9051 14.235 11.9822 13.1578 11.3792 12.4101Z" fill="#C9C9C9"/>
</g>
<defs>
<clipPath id="clip0">
<rect width="28" height="28" fill="white"/>
</clipPath>
</defs>
</svg>
