<svg width="27" height="27" viewBox="0 0 27 27" fill="none" xmlns="http://www.w3.org/2000/svg">
<g clip-path="url(#clip0)">
<mask id="path-1-outside-1" maskUnits="userSpaceOnUse" x="-1" y="-0.876465" width="29" height="28" fill="black">
<rect fill="white" x="-1" y="-0.876465" width="29" height="28"/>
<path d="M12.7783 19.5649C12.7783 19.9042 12.5033 20.1793 12.164 20.1793C11.0031 20.1793 9.85351 19.8878 8.83938 19.3364C6.59166 18.1143 5.19539 15.767 5.19539 13.2107C5.19539 9.36824 8.32146 6.24216 12.164 6.24216C15.1483 6.24216 17.7996 8.13881 18.7614 10.9617C18.8708 11.2828 18.6991 11.6319 18.378 11.7413C18.0568 11.8507 17.7077 11.6791 17.5982 11.3579C16.8061 9.03293 14.6223 7.47084 12.164 7.47084C8.99912 7.47084 6.4242 10.0458 6.4242 13.2107C6.4242 15.3164 7.57459 17.25 9.42638 18.2569C10.261 18.7106 11.2077 18.9505 12.164 18.9505C12.5033 18.9505 12.7783 19.2255 12.7783 19.5649ZM16.2113 13.2107C16.2113 15.4424 14.3956 17.258 12.164 17.258C9.93215 17.258 8.1164 15.4424 8.1164 13.2107C8.1164 10.9789 9.93215 9.16331 12.164 9.16331C14.3957 9.16331 16.2113 10.979 16.2113 13.2107ZM14.9825 13.2107C14.9825 11.6564 13.7181 10.3921 12.164 10.3921C10.6097 10.3921 9.34515 11.6564 9.34515 13.2107C9.34515 14.7648 10.6097 16.0293 12.164 16.0293C13.7181 16.0293 14.9825 14.7648 14.9825 13.2107ZM10.9719 24.9379C10.4475 24.8359 10.1847 24.6946 10.0952 24.6249L9.81746 21.9488C9.79262 21.7093 9.63015 21.5064 9.40194 21.4298C8.3003 21.0599 7.29778 20.4794 6.42202 19.7045C6.24146 19.5449 5.98445 19.5055 5.76423 19.6038L3.3014 20.7043C3.0706 20.6185 2.47186 20.1038 1.90486 19.1217C1.3382 18.1404 1.19171 17.3649 1.23246 17.1214L3.42073 15.5358C3.61528 15.3948 3.70976 15.1535 3.66273 14.918C3.55098 14.3586 3.49432 13.7838 3.49432 13.2095C3.49432 12.6279 3.55221 12.0471 3.66628 11.4833C3.71399 11.2473 3.61951 11.0052 3.42455 10.864L1.23246 9.27574C1.19164 9.03238 1.33814 8.25683 1.90486 7.2754C2.47179 6.2935 3.07047 5.77879 3.3014 5.69271L5.78075 6.80063C6.00049 6.89879 6.25709 6.85968 6.43745 6.70083C7.3089 5.93341 8.30556 5.35774 9.39983 4.98986C9.62796 4.91313 9.7903 4.71032 9.81514 4.47092L10.0954 1.7702C10.2858 1.61319 11.0306 1.35235 12.164 1.35235C13.2978 1.35235 14.0428 1.61353 14.2328 1.77047L14.513 4.47092C14.5378 4.71032 14.7002 4.9132 14.9284 4.98986C16.022 5.35753 17.0188 5.93327 17.8908 6.70103C18.0713 6.85988 18.3278 6.89893 18.5475 6.80083L21.027 5.69298C21.2581 5.77947 21.8564 6.29411 22.4232 7.2754C22.99 8.25731 23.1364 9.03306 23.0955 9.27615L20.9034 10.8642C20.7084 11.0055 20.6139 11.2477 20.6618 11.4838C20.6993 11.6688 20.7312 11.8583 20.7565 12.047C20.8016 12.3833 21.1112 12.6196 21.447 12.5743C21.7834 12.5291 22.0194 12.22 21.9743 11.8837C21.9631 11.8 21.9508 11.7162 21.9373 11.6326L23.8345 10.2582C24.7692 9.66785 24.2357 7.95729 23.4874 6.66103C23.0966 5.98454 22.6314 5.39514 22.1773 5.00133C21.4134 4.33917 20.8719 4.3903 20.5437 4.56314L18.3988 5.5215C17.5813 4.85695 16.6748 4.3333 15.6953 3.95983L15.4526 1.62015C15.4073 0.516462 13.6601 0.123535 12.164 0.123535C10.5469 0.123535 8.91522 0.587934 8.87522 1.62398L8.63281 3.95976C7.65302 4.33344 6.74661 4.85695 5.9295 5.52123L3.78082 4.56116C2.80253 4.0485 1.58873 5.36538 0.840765 6.66096C0.450091 7.33746 0.172257 8.03511 0.0583931 8.62546C-0.133224 9.61808 0.181882 10.0615 0.49576 10.2594L2.39076 11.6323C2.30762 12.1514 2.26557 12.6803 2.26557 13.2094C2.26557 13.7311 2.3066 14.2533 2.38776 14.7668L0.49576 16.1378C0.181814 16.3357 -0.133224 16.7791 0.0583931 17.7717C0.172257 18.362 0.450091 19.0597 0.840765 19.7362C1.58846 21.0313 2.80144 22.3472 3.77959 21.8366L5.91209 20.8837C6.73433 21.5552 7.64749 22.0839 8.6352 22.4602L8.87542 24.774C8.89208 25.1716 9.17019 25.8394 10.7375 26.1442C10.777 26.1519 10.8165 26.1556 10.8554 26.1556C11.1436 26.1556 11.4008 25.9518 11.4578 25.6583C11.5226 25.3251 11.305 25.0026 10.9719 24.9379ZM26.9152 17.244C26.5526 20.1567 25.0775 22.7537 22.7615 24.5568C20.8125 26.0743 18.4643 26.8766 16.0332 26.8766C15.5755 26.8766 15.1149 26.8481 14.6533 26.7907C14.268 26.7426 13.8788 26.673 13.4966 26.5837C13.2404 26.5238 13.0507 26.3075 13.0249 26.0456C12.9451 25.2354 12.9559 24.4129 13.057 23.6009C13.8058 17.5882 19.3066 13.3058 25.319 14.0542C25.7049 14.1023 26.094 14.172 26.4757 14.2613C26.7318 14.3211 26.9215 14.5375 26.9473 14.7992C27.0271 15.6101 27.0163 16.4327 26.9152 17.244ZM25.758 15.3656C25.5611 15.3288 25.3635 15.298 25.1669 15.2735C19.8273 14.6089 14.9413 18.4124 14.2763 23.7527C14.2384 24.0573 14.2147 24.3636 14.2055 24.67L19.8261 19.7458C20.0814 19.5222 20.4696 19.548 20.6931 19.8031C20.9166 20.0583 20.891 20.4464 20.6358 20.67L15.0141 25.595C17.5296 25.8548 20.0051 25.1456 22.0067 23.5872C24.0637 21.9857 25.3738 19.6791 25.6959 17.0921C25.7673 16.5194 25.788 15.9405 25.758 15.3656Z"/>
</mask>
<path d="M12.7783 19.5649C12.7783 19.9042 12.5033 20.1793 12.164 20.1793C11.0031 20.1793 9.85351 19.8878 8.83938 19.3364C6.59166 18.1143 5.19539 15.767 5.19539 13.2107C5.19539 9.36824 8.32146 6.24216 12.164 6.24216C15.1483 6.24216 17.7996 8.13881 18.7614 10.9617C18.8708 11.2828 18.6991 11.6319 18.378 11.7413C18.0568 11.8507 17.7077 11.6791 17.5982 11.3579C16.8061 9.03293 14.6223 7.47084 12.164 7.47084C8.99912 7.47084 6.4242 10.0458 6.4242 13.2107C6.4242 15.3164 7.57459 17.25 9.42638 18.2569C10.261 18.7106 11.2077 18.9505 12.164 18.9505C12.5033 18.9505 12.7783 19.2255 12.7783 19.5649ZM16.2113 13.2107C16.2113 15.4424 14.3956 17.258 12.164 17.258C9.93215 17.258 8.1164 15.4424 8.1164 13.2107C8.1164 10.9789 9.93215 9.16331 12.164 9.16331C14.3957 9.16331 16.2113 10.979 16.2113 13.2107ZM14.9825 13.2107C14.9825 11.6564 13.7181 10.3921 12.164 10.3921C10.6097 10.3921 9.34515 11.6564 9.34515 13.2107C9.34515 14.7648 10.6097 16.0293 12.164 16.0293C13.7181 16.0293 14.9825 14.7648 14.9825 13.2107ZM10.9719 24.9379C10.4475 24.8359 10.1847 24.6946 10.0952 24.6249L9.81746 21.9488C9.79262 21.7093 9.63015 21.5064 9.40194 21.4298C8.3003 21.0599 7.29778 20.4794 6.42202 19.7045C6.24146 19.5449 5.98445 19.5055 5.76423 19.6038L3.3014 20.7043C3.0706 20.6185 2.47186 20.1038 1.90486 19.1217C1.3382 18.1404 1.19171 17.3649 1.23246 17.1214L3.42073 15.5358C3.61528 15.3948 3.70976 15.1535 3.66273 14.918C3.55098 14.3586 3.49432 13.7838 3.49432 13.2095C3.49432 12.6279 3.55221 12.0471 3.66628 11.4833C3.71399 11.2473 3.61951 11.0052 3.42455 10.864L1.23246 9.27574C1.19164 9.03238 1.33814 8.25683 1.90486 7.2754C2.47179 6.2935 3.07047 5.77879 3.3014 5.69271L5.78075 6.80063C6.00049 6.89879 6.25709 6.85968 6.43745 6.70083C7.3089 5.93341 8.30556 5.35774 9.39983 4.98986C9.62796 4.91313 9.7903 4.71032 9.81514 4.47092L10.0954 1.7702C10.2858 1.61319 11.0306 1.35235 12.164 1.35235C13.2978 1.35235 14.0428 1.61353 14.2328 1.77047L14.513 4.47092C14.5378 4.71032 14.7002 4.9132 14.9284 4.98986C16.022 5.35753 17.0188 5.93327 17.8908 6.70103C18.0713 6.85988 18.3278 6.89893 18.5475 6.80083L21.027 5.69298C21.2581 5.77947 21.8564 6.29411 22.4232 7.2754C22.99 8.25731 23.1364 9.03306 23.0955 9.27615L20.9034 10.8642C20.7084 11.0055 20.6139 11.2477 20.6618 11.4838C20.6993 11.6688 20.7312 11.8583 20.7565 12.047C20.8016 12.3833 21.1112 12.6196 21.447 12.5743C21.7834 12.5291 22.0194 12.22 21.9743 11.8837C21.9631 11.8 21.9508 11.7162 21.9373 11.6326L23.8345 10.2582C24.7692 9.66785 24.2357 7.95729 23.4874 6.66103C23.0966 5.98454 22.6314 5.39514 22.1773 5.00133C21.4134 4.33917 20.8719 4.3903 20.5437 4.56314L18.3988 5.5215C17.5813 4.85695 16.6748 4.3333 15.6953 3.95983L15.4526 1.62015C15.4073 0.516462 13.6601 0.123535 12.164 0.123535C10.5469 0.123535 8.91522 0.587934 8.87522 1.62398L8.63281 3.95976C7.65302 4.33344 6.74661 4.85695 5.9295 5.52123L3.78082 4.56116C2.80253 4.0485 1.58873 5.36538 0.840765 6.66096C0.450091 7.33746 0.172257 8.03511 0.0583931 8.62546C-0.133224 9.61808 0.181882 10.0615 0.49576 10.2594L2.39076 11.6323C2.30762 12.1514 2.26557 12.6803 2.26557 13.2094C2.26557 13.7311 2.3066 14.2533 2.38776 14.7668L0.49576 16.1378C0.181814 16.3357 -0.133224 16.7791 0.0583931 17.7717C0.172257 18.362 0.450091 19.0597 0.840765 19.7362C1.58846 21.0313 2.80144 22.3472 3.77959 21.8366L5.91209 20.8837C6.73433 21.5552 7.64749 22.0839 8.6352 22.4602L8.87542 24.774C8.89208 25.1716 9.17019 25.8394 10.7375 26.1442C10.777 26.1519 10.8165 26.1556 10.8554 26.1556C11.1436 26.1556 11.4008 25.9518 11.4578 25.6583C11.5226 25.3251 11.305 25.0026 10.9719 24.9379ZM26.9152 17.244C26.5526 20.1567 25.0775 22.7537 22.7615 24.5568C20.8125 26.0743 18.4643 26.8766 16.0332 26.8766C15.5755 26.8766 15.1149 26.8481 14.6533 26.7907C14.268 26.7426 13.8788 26.673 13.4966 26.5837C13.2404 26.5238 13.0507 26.3075 13.0249 26.0456C12.9451 25.2354 12.9559 24.4129 13.057 23.6009C13.8058 17.5882 19.3066 13.3058 25.319 14.0542C25.7049 14.1023 26.094 14.172 26.4757 14.2613C26.7318 14.3211 26.9215 14.5375 26.9473 14.7992C27.0271 15.6101 27.0163 16.4327 26.9152 17.244ZM25.758 15.3656C25.5611 15.3288 25.3635 15.298 25.1669 15.2735C19.8273 14.6089 14.9413 18.4124 14.2763 23.7527C14.2384 24.0573 14.2147 24.3636 14.2055 24.67L19.8261 19.7458C20.0814 19.5222 20.4696 19.548 20.6931 19.8031C20.9166 20.0583 20.891 20.4464 20.6358 20.67L15.0141 25.595C17.5296 25.8548 20.0051 25.1456 22.0067 23.5872C24.0637 21.9857 25.3738 19.6791 25.6959 17.0921C25.7673 16.5194 25.788 15.9405 25.758 15.3656Z" fill="#CACACA"/>
<path d="M12.7783 19.5649C12.7783 19.9042 12.5033 20.1793 12.164 20.1793C11.0031 20.1793 9.85351 19.8878 8.83938 19.3364C6.59166 18.1143 5.19539 15.767 5.19539 13.2107C5.19539 9.36824 8.32146 6.24216 12.164 6.24216C15.1483 6.24216 17.7996 8.13881 18.7614 10.9617C18.8708 11.2828 18.6991 11.6319 18.378 11.7413C18.0568 11.8507 17.7077 11.6791 17.5982 11.3579C16.8061 9.03293 14.6223 7.47084 12.164 7.47084C8.99912 7.47084 6.4242 10.0458 6.4242 13.2107C6.4242 15.3164 7.57459 17.25 9.42638 18.2569C10.261 18.7106 11.2077 18.9505 12.164 18.9505C12.5033 18.9505 12.7783 19.2255 12.7783 19.5649ZM16.2113 13.2107C16.2113 15.4424 14.3956 17.258 12.164 17.258C9.93215 17.258 8.1164 15.4424 8.1164 13.2107C8.1164 10.9789 9.93215 9.16331 12.164 9.16331C14.3957 9.16331 16.2113 10.979 16.2113 13.2107ZM14.9825 13.2107C14.9825 11.6564 13.7181 10.3921 12.164 10.3921C10.6097 10.3921 9.34515 11.6564 9.34515 13.2107C9.34515 14.7648 10.6097 16.0293 12.164 16.0293C13.7181 16.0293 14.9825 14.7648 14.9825 13.2107ZM10.9719 24.9379C10.4475 24.8359 10.1847 24.6946 10.0952 24.6249L9.81746 21.9488C9.79262 21.7093 9.63015 21.5064 9.40194 21.4298C8.3003 21.0599 7.29778 20.4794 6.42202 19.7045C6.24146 19.5449 5.98445 19.5055 5.76423 19.6038L3.3014 20.7043C3.0706 20.6185 2.47186 20.1038 1.90486 19.1217C1.3382 18.1404 1.19171 17.3649 1.23246 17.1214L3.42073 15.5358C3.61528 15.3948 3.70976 15.1535 3.66273 14.918C3.55098 14.3586 3.49432 13.7838 3.49432 13.2095C3.49432 12.6279 3.55221 12.0471 3.66628 11.4833C3.71399 11.2473 3.61951 11.0052 3.42455 10.864L1.23246 9.27574C1.19164 9.03238 1.33814 8.25683 1.90486 7.2754C2.47179 6.2935 3.07047 5.77879 3.3014 5.69271L5.78075 6.80063C6.00049 6.89879 6.25709 6.85968 6.43745 6.70083C7.3089 5.93341 8.30556 5.35774 9.39983 4.98986C9.62796 4.91313 9.7903 4.71032 9.81514 4.47092L10.0954 1.7702C10.2858 1.61319 11.0306 1.35235 12.164 1.35235C13.2978 1.35235 14.0428 1.61353 14.2328 1.77047L14.513 4.47092C14.5378 4.71032 14.7002 4.9132 14.9284 4.98986C16.022 5.35753 17.0188 5.93327 17.8908 6.70103C18.0713 6.85988 18.3278 6.89893 18.5475 6.80083L21.027 5.69298C21.2581 5.77947 21.8564 6.29411 22.4232 7.2754C22.99 8.25731 23.1364 9.03306 23.0955 9.27615L20.9034 10.8642C20.7084 11.0055 20.6139 11.2477 20.6618 11.4838C20.6993 11.6688 20.7312 11.8583 20.7565 12.047C20.8016 12.3833 21.1112 12.6196 21.447 12.5743C21.7834 12.5291 22.0194 12.22 21.9743 11.8837C21.9631 11.8 21.9508 11.7162 21.9373 11.6326L23.8345 10.2582C24.7692 9.66785 24.2357 7.95729 23.4874 6.66103C23.0966 5.98454 22.6314 5.39514 22.1773 5.00133C21.4134 4.33917 20.8719 4.3903 20.5437 4.56314L18.3988 5.5215C17.5813 4.85695 16.6748 4.3333 15.6953 3.95983L15.4526 1.62015C15.4073 0.516462 13.6601 0.123535 12.164 0.123535C10.5469 0.123535 8.91522 0.587934 8.87522 1.62398L8.63281 3.95976C7.65302 4.33344 6.74661 4.85695 5.9295 5.52123L3.78082 4.56116C2.80253 4.0485 1.58873 5.36538 0.840765 6.66096C0.450091 7.33746 0.172257 8.03511 0.0583931 8.62546C-0.133224 9.61808 0.181882 10.0615 0.49576 10.2594L2.39076 11.6323C2.30762 12.1514 2.26557 12.6803 2.26557 13.2094C2.26557 13.7311 2.3066 14.2533 2.38776 14.7668L0.49576 16.1378C0.181814 16.3357 -0.133224 16.7791 0.0583931 17.7717C0.172257 18.362 0.450091 19.0597 0.840765 19.7362C1.58846 21.0313 2.80144 22.3472 3.77959 21.8366L5.91209 20.8837C6.73433 21.5552 7.64749 22.0839 8.6352 22.4602L8.87542 24.774C8.89208 25.1716 9.17019 25.8394 10.7375 26.1442C10.777 26.1519 10.8165 26.1556 10.8554 26.1556C11.1436 26.1556 11.4008 25.9518 11.4578 25.6583C11.5226 25.3251 11.305 25.0026 10.9719 24.9379ZM26.9152 17.244C26.5526 20.1567 25.0775 22.7537 22.7615 24.5568C20.8125 26.0743 18.4643 26.8766 16.0332 26.8766C15.5755 26.8766 15.1149 26.8481 14.6533 26.7907C14.268 26.7426 13.8788 26.673 13.4966 26.5837C13.2404 26.5238 13.0507 26.3075 13.0249 26.0456C12.9451 25.2354 12.9559 24.4129 13.057 23.6009C13.8058 17.5882 19.3066 13.3058 25.319 14.0542C25.7049 14.1023 26.094 14.172 26.4757 14.2613C26.7318 14.3211 26.9215 14.5375 26.9473 14.7992C27.0271 15.6101 27.0163 16.4327 26.9152 17.244ZM25.758 15.3656C25.5611 15.3288 25.3635 15.298 25.1669 15.2735C19.8273 14.6089 14.9413 18.4124 14.2763 23.7527C14.2384 24.0573 14.2147 24.3636 14.2055 24.67L19.8261 19.7458C20.0814 19.5222 20.4696 19.548 20.6931 19.8031C20.9166 20.0583 20.891 20.4464 20.6358 20.67L15.0141 25.595C17.5296 25.8548 20.0051 25.1456 22.0067 23.5872C24.0637 21.9857 25.3738 19.6791 25.6959 17.0921C25.7673 16.5194 25.788 15.9405 25.758 15.3656Z" stroke="#CACACA" stroke-width="0.4" mask="url(#path-1-outside-1)"/>
</g>
<defs>
<clipPath id="clip0">
<rect width="27" height="27" fill="white"/>
</clipPath>
</defs>
</svg>
