<svg width="33" height="29" viewBox="0 0 33 29" fill="none" xmlns="http://www.w3.org/2000/svg">
<path d="M19.8732 13.0891C20.2892 11.809 22.1002 11.809 22.5162 13.0891C22.903 14.2797 24.0125 15.0857 25.2643 15.0857C26.6103 15.0857 27.1699 16.8082 26.081 17.5993C25.0683 18.3351 24.6445 19.6393 25.0313 20.8299C25.4473 22.11 23.9821 23.1746 22.8931 22.3834C21.8804 21.6476 20.509 21.6476 19.4963 22.3834C18.4073 23.1746 16.9422 22.11 17.3581 20.8299C17.7449 19.6393 17.3212 18.3351 16.3084 17.5993C15.2195 16.8082 15.7791 15.0857 17.1252 15.0857C18.377 15.0857 19.4864 14.2797 19.8732 13.0891Z" stroke="#C9C9C9" stroke-width="1.5"/>
<circle cx="21.0985" cy="17.8995" r="0.981299" stroke="#C9C9C9" stroke-width="1.5"/>
<path d="M22.9261 12.1963C25.0647 10.0576 27.8145 4.92485 21.704 1.50299C17.7933 -0.452356 13.5567 2.45351 11.9272 4.15086L4.59468 9.03924C2.96523 10.2613 0.0118353 13.785 1.23393 18.1031C2.45602 22.4212 7.37847 23.2291 9.68694 23.0933C10.5696 22.9915 12.7829 22.3193 14.5753 20.4454C16.3677 18.5716 16.6121 18.3068 16.5103 18.4086" stroke="#C9C9C9" stroke-width="1.5"/>
<path d="M4.90032 8.83546C7.24267 8.3602 12.0903 8.63178 12.7421 13.5202C13.3939 18.4085 9.68685 19.4948 7.75187 19.4269C6.15636 19.0535 3.27086 17.4308 4.49296 13.9275C4.81885 12.5425 6.46179 12.2641 7.24252 12.298C7.88751 12.2641 9.29971 12.5425 9.78854 13.9275C10.2774 15.3125 8.90592 15.7946 8.15909 15.8625H7.24252" stroke="#C9C9C9" stroke-width="1.5"/>
</svg>
