<svg fill="none" height="40" width="176" xmlns="http://www.w3.org/2000/svg"><path d="M11.647 1.963h6.134c1.468 0 1.761.359 2.172 1.435l13.237 34.46c.41 1.017.059 1.525-.94 1.525h-2.112c-1.292 0-1.615-.27-2.084-1.525L25 29.61H9.006l-3.052 8.25c-.529 1.314-.822 1.524-2.172 1.524H1.874c-1.027 0-1.467-.538-1.027-1.585L13.262 5.55h-.734c-1.673-.538-2.348-1.584-2.348-2.75 0-.806.381-.836 1.467-.836zM10.62 25.305h12.767L16.99 8.24zm58.435-10.401h6.956c8.1 0 11.212 3.318 11.212 9.923v8.877c0 2.331.352 2.81 1.614 2.81.822 0 .998 0 .998.567 0 1.494-1.028 2.54-3.376 2.54-1.966 0-3.17-.836-3.698-2.54-1.408 1.106-3.844 2.6-8.452 2.6-5.547 0-8.248-2.6-8.248-7.352 0-4.872 2.965-6.755 9.54-6.755 2.23 0 4.666.15 6.955.419v-.628c0-5.17-2.348-6.336-6.486-6.336h-4.667c-2.583 0-3.786-1.584-3.786-3.288-.03-.837.235-.837 1.438-.837zm13.501 18.8v-4.065c-1.966-.329-4.197-.359-5.929-.359-3.727 0-5.928.419-5.928 3.109 0 2.54 1.76 3.497 4.872 3.497 3.669 0 5.517-1.047 6.985-2.182zM112.141.947h2.23c2.7 0 3.786 1.165 3.786 3.795v28.872c0 2.391.323 2.84 1.556 2.84.88 0 1.027 0 1.027.567 0 1.435-1.027 2.54-3.434 2.54-2.23 0-3.522-1.105-3.845-3.317-1.702 2.122-4.402 3.527-8.306 3.527-7.484 0-11.534-5.021-11.534-12.523s4.109-12.673 11.476-12.673c3.845 0 6.545 1.495 8.306 3.707V4.922h-.059c-1.966 0-2.7-1.644-2.7-3.109.029-.866.352-.866 1.497-.866zm-5.988 17.962c-5.048 0-7.484 3.766-7.484 8.339 0 4.543 2.378 8.19 7.514 8.19 5.4 0 7.572-4.006 7.572-8.19.029-4.214-2.231-8.339-7.602-8.339zM129.162 2.59c1.703 0 2.847 1.046 2.847 2.69s-1.144 2.69-2.847 2.69c-1.673 0-2.847-1.046-2.847-2.69s1.174-2.69 2.847-2.69zm2.114 16.11v15.183c0 2.391.352 2.87 1.556 2.87.88 0 1.027 0 1.027.567 0 1.435-1.027 2.54-3.434 2.54-2.554 0-3.845-1.494-3.845-4.453V16.548c0-1.255 0-1.644.881-1.644 2.729 0 3.815 1.166 3.815 3.796zM61.483 36.453c-1.233 0-1.614-.478-1.614-2.839v-9.205c0-6.127-2.554-9.893-8.659-9.893-3.727 0-6.134 1.434-7.572 3.317 0-.06-.03-.15-.03-.209-.293-1.853-1.35-2.69-3.492-2.75H37.71c-1.145 0-1.468 0-1.468.837 0 1.315.587 2.75 2.084 3.049.206.03.41.06.616.06h.059v18.65c0 1.584.323 1.853 1.82 1.853h1.027c1.556 0 1.82-.27 1.82-1.853V25.096c.205-3.915 2.083-6.456 6.134-6.456 4.05 0 5.4 2.6 5.4 6.127v10.311c0 2.96 1.35 4.454 3.903 4.454 2.348 0 3.376-1.106 3.376-2.54-.03-.539-.118-.539-.998-.539zm92.803 3.407c1.491 0 2.7-1.23 2.7-2.75 0-1.518-1.209-2.749-2.7-2.749s-2.7 1.231-2.7 2.75c0 1.518 1.209 2.75 2.7 2.75zm12.914-5.469c-1.467-.15-2.788.957-2.935 2.451s.939 2.84 2.407 2.989c.176.03.352.03.528 0 1.468-.15 2.554-1.495 2.407-2.989-.118-1.315-1.115-2.331-2.407-2.45z" fill="#fff"/><path d="M175.066 18.222c-.206-.33-.587-.509-.969-.509h-24.859a.918.918 0 0 1-.91-.747l-.528-2.48c-.029-.21-.088-.389-.117-.598-.499-1.853-1.732-2.69-4.109-2.75h-2.965c-1.32 0-1.702.03-1.702 1.016 0 .718 1.145 1.853 2.407 1.853h2.7a1.39 1.39 0 0 1 1.35 1.076l.587 2.6.558 2.541.792 3.736.558 2.54.792 3.737.323 1.524c.029.239.147.418.264.598.235.269.558.418.939.418h20.839c.587 0 1.086-.418 1.203-.986l.381-1.584.91-3.736.617-2.54.91-3.737.234-.956c.147-.329.03-.747-.205-1.016zm-25.123 5.618l-.734-3.347c-.029-.12.059-.239.176-.239h5.342c.088 0 .176.09.176.18l.264 3.347c0 .12-.088.209-.176.209h-4.872c-.088 0-.176-.09-.176-.15zm1.35 6.277l-.734-3.347c-.029-.12.059-.24.176-.24h4.491c.088 0 .176.09.176.18l.264 3.347c0 .12-.088.21-.176.21h-4.051c-.029 0-.117-.06-.146-.15zm11.916.15h-4.814c-.088 0-.176-.09-.176-.18l-.264-3.347c0-.12.088-.21.176-.21h5.342c.117 0 .205.09.176.21l-.264 3.347c0 .09-.088.18-.176.18zm.528-6.277h-5.841c-.088 0-.176-.09-.176-.18l-.264-3.347c0-.12.088-.209.176-.209h6.398c.118 0 .206.09.177.21l-.265 3.347c-.029.09-.117.179-.205.179zm6.163 6.277h-3.815c-.118 0-.206-.09-.176-.21l.264-3.347c0-.09.088-.18.176-.18h4.373c.118 0 .206.12.176.24l-.822 3.347c0 .09-.088.15-.176.15zm1.585-6.277h-4.872c-.117 0-.205-.09-.176-.21l.264-3.347c0-.09.088-.179.176-.179h5.43c.117 0 .205.12.176.24l-.822 3.346c-.029.09-.117.15-.176.15z" fill="#fbb931"/></svg>