<svg width="22" height="16" fill="none" xmlns="http://www.w3.org/2000/svg"><path d="M11.028 9.18h.004c.166 0 .33-.048.463-.136l.036-.023.024-.015.42-.347L21.976.405a.117.117 0 0 0-.094-.049H.116a.113.113 0 0 0-.072.027L10.51 9.008a.82.82 0 0 0 .519.172zM0 1.526v12.236l7.497-6.057L0 1.526zm14.51 6.22l7.49 6.02V1.567l-7.49 6.18zm-2.38 1.965c-.299.245-.69.38-1.1.38-.41 0-.801-.134-1.099-.378L8.214 8.297 0 14.93v.021a.12.12 0 0 0 .118.117h21.766a.118.118 0 0 0 .116-.117v-.02l-8.207-6.594L12.13 9.71z" fill="#000"/></svg>