<svg width="17" height="17" fill="none" xmlns="http://www.w3.org/2000/svg"><g clip-path="url(#clip0)"><path d="M16.62 9.223c-.537.177-1.074.04-1.558-.224a3.02 3.02 0 0 1-.718-.524c-.125-.124-.297-.103-.424 0-.889.725-2.186.542-3.076-.046-.081-.054-.222-.06-.303 0-.726.53-1.59.661-2.46.47a3.802 3.802 0 0 1-1.22-.47c-.12-.074-.263-.042-.363.046-.942.831-2.345.606-3.31-.046-.118-.08-.264-.037-.363.046-.452.381-1.049.564-1.616.687-.328.07-.58.11-.91.125a.288.288 0 0 0-.15.052.267.267 0 0 0-.149.248v5.623c0 .163.136.3.3.3h1.5c.163 0 .3-.137.3-.3v-4.124h1.499v4.124c0 .163.136.3.3.3h12.8c.164 0 .3-.137.3-.3V9.512c0-.188-.192-.35-.38-.29zm-4.24 5.686H4.197v-4.123c0-.164-.136-.3-.3-.3H1.8c-.163 0-.3.136-.3.3v4.123H.6V9.865c.856-.075 1.757-.318 2.453-.819.367.218.783.376 1.191.475.884.213 1.771.061 2.49-.475 1.21.668 2.796.756 3.969-.007.347.2.74.344 1.124.43.807.181 1.605.05 2.28-.398.622.538 1.475.92 2.293.815v5.024h-4.02zM.082 8.815l.018.018.017.012a.249.249 0 0 0 .183.068c.97-.092 2.046-.467 2.706-1.208.493-.552.615-1.315.797-2.01A194.767 194.767 0 0 0 4.75 1.87a.304.304 0 0 0-.289-.38H2.587a.305.305 0 0 0-.29.22L.522 7.011.01 8.533c-.008.024-.006.044-.008.066 0 .005-.003.008-.003.014v.003a.243.243 0 0 0 .082.199zM2.366 3.39l.436-1.301H4.08c-.237.993-.48 1.986-.733 2.975a85.32 85.32 0 0 1-.298 1.131c-.088.322-.16.64-.344.923-.328.507-.928.802-1.475.982a5.22 5.22 0 0 1-.486.13l1.622-4.84z" fill="#010002"/><path d="M3.91 7.119c-.16.631.164 1.21.775 1.42.606.21 1.259-.103 1.56-.644.152-.271.205-.6.277-.9l.344-1.437.882-3.688a.303.303 0 0 0-.289-.38H5.585a.301.301 0 0 0-.289.22c-.454 1.804-.898 3.612-1.385 5.407v.002zM5.82 2.09h1.26L5.9 7.018l-.058.245c-.038.16-.095.335-.19.455a.768.768 0 0 1-.317.24.68.68 0 0 1-.367.037c.062.006-.032-.009-.037-.01a1.05 1.05 0 0 1-.113-.033l-.013-.005a.836.836 0 0 1-.13-.075c-.002-.004-.04-.032-.042-.035a.843.843 0 0 1-.078-.082c.032.037-.069-.136-.051-.092a.548.548 0 0 1-.014-.385c.467-1.723.895-3.457 1.33-5.188zm7.611 3.135c.097.377.196.755.298 1.131.098.357.188.715.375 1.038.348.604.956.994 1.594 1.232.318.12.662.203 1.002.232a.242.242 0 0 0 .256-.144l.004-.006a.216.216 0 0 0 .013-.034.272.272 0 0 0 .016-.196l-1.535-5.384-.395-1.384a.303.303 0 0 0-.29-.22h-1.874c-.2 0-.333.191-.289.38.265 1.12.54 2.24.825 3.355zm1.112-3.135l1.473 5.164.262.92a4.08 4.08 0 0 1-.516-.163c-.557-.22-1.088-.655-1.296-1.257-.248-.719-.405-1.481-.59-2.218A199.09 199.09 0 0 1 13.35 2.4l-.075-.31h1.268zm-3.665 5.088c.04.167.074.339.134.5.164.435.507.786.968.89a1.32 1.32 0 0 0 1.147-.288c.337-.284.421-.75.317-1.161-.486-1.796-.93-3.604-1.385-5.409a.301.301 0 0 0-.288-.22H9.897c-.2 0-.335.191-.29.38l1.271 5.308zm1.988.097v.003c.112.443-.21.741-.656.722a.703.703 0 0 1-.524-.31c-.1-.145-.143-.309-.184-.478l-.639-2.67-.587-2.452h1.26c.436 1.73.864 3.463 1.33 5.185zm-5.989.329c-.089.38.377.675.675.796.457.186.975.176 1.453.093.402-.07.88-.236 1.14-.568.008-.01.011-.02.018-.029a.267.267 0 0 0 .037-.064c.007-.014.009-.029.014-.043.004-.017.009-.032.01-.05a.277.277 0 0 0 0-.075c-.002-.01 0-.02-.002-.031L9.34 2.166l-.073-.456c-.021-.13-.167-.22-.29-.22h-.424a.3.3 0 0 0-.29.22L6.99 7.125l-.113.479zm1.846-5.226l.028-.122.82 5.08.044.274c-.258.22-.674.31-1.026.334-.379.027-.867-.022-1.106-.298l1.24-5.268zm6.683 8.783H5.979a.227.227 0 0 0-.225.225v2.1c0 .122.102.224.225.224h9.427a.206.206 0 0 0 .143-.055l.015-.012.012-.015a.206.206 0 0 0 .055-.143v-2.1a.227.227 0 0 0-.225-.224zm-.225 2.1H6.204v-1.65h8.977v1.65z" fill="#010002"/><path d="M0 10l1.5-.5L3 9l2 .5L6 9v6H4v-4.173H1.917L1.5 15H0v-5z" fill="#000"/><path d="M5.5 9.5l1-.5h8l2 .5.5 2H6l-.5-2zm.5 5.9l1-.4h4l3.39.4h2.11l.5-1.9H6v1.9z" fill="#000"/><path d="M15.5 11h1v3h-1v-3z" fill="#000"/></g><defs><clipPath id="clip0"><path fill="#fff" d="M0 0h17v17H0z"/></clipPath></defs></svg>