<svg width="32" height="18" fill="none" xmlns="http://www.w3.org/2000/svg"><path d="M28.487 2.559a3.48 3.48 0 0 0-.952.132C27.155 1.148 25.77 0 24.123 0c-1.937 0-3.513 1.588-3.513 3.54v2.548h-9.222V3.541C11.39 1.588 9.813 0 7.876 0 6.23 0 4.844 1.148 4.466 2.69a3.477 3.477 0 0 0-.953-.13C1.576 2.56 0 4.147 0 6.1v5.8c0 1.953 1.576 3.541 3.513 3.541.327 0 .646-.045.953-.132C4.844 16.852 6.23 18 7.876 18c1.937 0 3.513-1.588 3.513-3.54v-2.548h9.222v2.547c0 1.953 1.576 3.541 3.513 3.541 1.646 0 3.032-1.148 3.41-2.69.307.086.627.131.953.131 1.937 0 3.513-1.588 3.513-3.54V6.1c0-1.953-1.576-3.541-3.513-3.541zM4.363 13.614a1.86 1.86 0 0 1-.85.204c-1.05 0-1.903-.86-1.903-1.918V6.1c0-1.058.854-1.918 1.903-1.918.3 0 .588.07.85.204v9.228zm5.416.845a1.913 1.913 0 0 1-1.903 1.918 1.912 1.912 0 0 1-1.902-1.918V3.541c0-1.058.853-1.918 1.902-1.918 1.05 0 1.903.86 1.903 1.918v10.918zm10.832-4.17h-9.222V7.711h9.222v2.578zm5.416-6.353V14.46a1.913 1.913 0 0 1-1.903 1.918c-1.05 0-1.903-.86-1.903-1.918V3.541c0-1.058.854-1.918 1.903-1.918 1.05 0 1.903.86 1.903 1.918v.395zM30.39 11.9a1.913 1.913 0 0 1-1.903 1.918c-.3 0-.588-.07-.85-.204V4.386a1.86 1.86 0 0 1 .85-.204c1.05 0 1.903.86 1.903 1.918v5.8zm-5.26-8.3v.313a.81.81 0 0 1-.806.812.808.808 0 0 1-.805-.812V3.6c0-.448.36-.811.805-.811.445 0 .805.363.805.811z" fill="#CACACA"/><path d="M28.487 2.559a3.48 3.48 0 0 0-.952.132C27.155 1.148 25.77 0 24.123 0c-1.937 0-3.513 1.588-3.513 3.54v2.548h-9.222V3.541C11.39 1.588 9.813 0 7.876 0 6.23 0 4.844 1.148 4.466 2.69a3.477 3.477 0 0 0-.953-.13C1.576 2.56 0 4.147 0 6.1v5.8c0 1.953 1.576 3.541 3.513 3.541.327 0 .646-.045.953-.132C4.844 16.852 6.23 18 7.876 18c1.937 0 3.513-1.588 3.513-3.54v-2.548h9.222v2.547c0 1.953 1.576 3.541 3.513 3.541 1.646 0 3.032-1.148 3.41-2.69.307.086.627.131.953.131 1.937 0 3.513-1.588 3.513-3.54V6.1c0-1.953-1.576-3.541-3.513-3.541zM4.363 13.614a1.86 1.86 0 0 1-.85.204c-1.05 0-1.903-.86-1.903-1.918V6.1c0-1.058.854-1.918 1.903-1.918.3 0 .588.07.85.204v9.228zm5.416.845a1.913 1.913 0 0 1-1.903 1.918 1.912 1.912 0 0 1-1.902-1.918V3.541c0-1.058.853-1.918 1.902-1.918 1.05 0 1.903.86 1.903 1.918v10.918zm10.832-4.17h-9.222V7.711h9.222v2.578zm5.416-6.353V14.46a1.913 1.913 0 0 1-1.903 1.918c-1.05 0-1.903-.86-1.903-1.918V3.541c0-1.058.854-1.918 1.903-1.918 1.05 0 1.903.86 1.903 1.918v.395zM30.39 11.9a1.913 1.913 0 0 1-1.903 1.918c-.3 0-.588-.07-.85-.204V4.386a1.86 1.86 0 0 1 .85-.204c1.05 0 1.903.86 1.903 1.918v5.8zm-5.26-8.3v.313a.81.81 0 0 1-.806.812.808.808 0 0 1-.805-.812V3.6c0-.448.36-.811.805-.811.445 0 .805.363.805.811z" stroke="#fff"/></svg>