<svg width="28" height="28" fill="none" xmlns="http://www.w3.org/2000/svg"><g clip-path="url(#clip0)" fill="#C9C9C9"><path d="M2.258 26.236c-.401-.964.034-2.094 1.292-3.357L25.886.446c.85-.696 1.615-.522 1.898.14.818 1.91-5.139 12.683-7.828 15.511-2.888 3.032-5.066 4.146-6.692 3.455-.967-.408-2.442 1.445-3.52 2.753a30.09 30.09 0 0 0-1.175 1.569c-1.288 1.795-2.506 3.49-3.885 3.684a3.303 3.303 0 0 1-.228.014c-.66-.001-1.79-.356-2.198-1.336zm11.62-8.13a.924.924 0 0 0 .38.074c.579 0 1.94-.41 4.562-3.165 2.538-2.667 5.953-9.28 7.102-12.387L4.663 23.982c-.855.86-1.05 1.427-.956 1.651.089.214.51.37.75.37h.01c.715-.1 1.988-1.873 2.83-3.045.427-.597.846-1.178 1.238-1.652 1.306-1.584 2.787-3.381 4.454-3.381.306-.002.605.06.889.181zm-4.443-8.35a.741.741 0 0 0 .083-1.042L3.95 2.186a.741.741 0 0 0-1.043-.082.743.743 0 0 0-.083 1.042l5.569 6.528a.741.741 0 0 0 1.042.082zM5.844 1.66l4.303 4.67c.79.858.96 2.143.425 3.2a.809.809 0 0 0 .14.93l1.284 1.348c.757.781 1.89-.341 1.16-1.135l-.904-.953a4.467 4.467 0 0 0-.91-4.489L7.036.558C6.07-.388 4.887.732 5.84 1.656l.004.004zm19.353 21.488l-4.881-5.084c-.75-.66-1.83.426-1.106 1.19l4.825 5.026c.884.899 1.082 1.487.985 1.718-.091.221-.527.379-.777.379v.812l-.017-.812c-.745-.268-3.28-2.998-6.072-6.164-.682-.878-1.992.115-1.355.931 2.887 3.29 6.03 6.669 7.197 6.839.039.005.209.017.247.017.683 0 1.852-.365 2.274-1.375.416-.992-.028-2.162-1.32-3.477zM11.38 12.41c-.494-.558-.722-.851-1.237-1.41a.807.807 0 0 0-.926-.19c-1.09.486-2.432.22-3.231-.647L1.682 5.492 1.67 5.48C.806 4.514-.463 5.508.475 6.577l4.317 4.685a4.433 4.433 0 0 0 3.254 1.42c.434 0 .859-.06 1.27-.182.404.444.513.606.902 1.047.687.688 1.764-.39 1.161-1.137z"/></g><defs><clipPath id="clip0"><path fill="#fff" d="M0 0h28v28H0z"/></clipPath></defs></svg>