<svg fill="none" height="45" width="200" xmlns="http://www.w3.org/2000/svg"><path d="m12.635 1.458h7.019c1.679 0 2.015.408 2.485 1.633l15.146 39.247c.47 1.158.067 1.736-1.075 1.736h-2.418c-1.478 0-1.847-.306-2.384-1.736l-3.493-9.394h-18.302l-3.493 9.394c-.605 1.498-.94 1.736-2.485 1.736h-2.183c-1.175 0-1.68-.612-1.175-1.804l14.205-36.728h-.84c-1.914-.612-2.686-1.804-2.686-3.131 0-.92.436-.953 1.679-.953zm-1.175 26.584h14.608l-7.321-19.436zm66.863-11.845h7.959c9.269 0 12.829 3.778 12.829 11.3v10.11c0 2.655.402 3.2 1.847 3.2.94 0 1.141 0 1.141.646 0 1.702-1.175 2.894-3.862 2.894-2.25 0-3.626-.953-4.231-2.894-1.612 1.26-4.4 2.962-9.672 2.962-6.347 0-9.437-2.962-9.437-8.374 0-5.548 3.392-7.693 10.915-7.693 2.552 0 5.34.17 7.959.477v-.715c0-5.889-2.687-7.216-7.422-7.216h-5.34c-2.955 0-4.332-1.804-4.332-3.744-.033-.953.269-.953 1.646-.953zm15.448 21.41v-4.63c-2.25-.374-4.802-.408-6.784-.408-4.265 0-6.783.477-6.783 3.54 0 2.894 2.015 3.983 5.574 3.983 4.198 0 6.314-1.191 7.993-2.485zm33.851-37.307h2.553c3.089 0 4.332 1.328 4.332 4.323v32.882c0 2.723.369 3.233 1.78 3.233 1.007 0 1.175 0 1.175.647 0 1.634-1.175 2.894-3.929 2.894-2.552 0-4.03-1.26-4.4-3.779-1.947 2.417-5.037 4.017-9.503 4.017-8.564 0-13.198-5.719-13.198-14.263 0-8.543 4.701-14.432 13.13-14.432 4.4 0 7.489 1.702 9.504 4.22v-15.214h-.067c-2.25 0-3.089-1.872-3.089-3.54.033-.987.403-.987 1.712-.987zm-6.851 20.458c-5.776 0-8.563 4.289-8.563 9.497 0 5.173 2.72 9.326 8.597 9.326 6.179 0 8.664-4.561 8.664-9.327.034-4.799-2.552-9.496-8.698-9.496zm26.328-18.586c1.948 0 3.258 1.192 3.258 3.064s-1.31 3.063-3.258 3.063c-1.914 0-3.257-1.191-3.257-3.063s1.343-3.064 3.257-3.064zm2.419 18.348v17.29c0 2.723.403 3.268 1.78 3.268 1.007 0 1.175 0 1.175.647 0 1.634-1.175 2.893-3.929 2.893-2.922 0-4.399-1.702-4.399-5.072v-21.476c0-1.43 0-1.872 1.007-1.872 3.123 0 4.366 1.327 4.366 4.323zm-79.86 20.219c-1.41 0-1.847-.545-1.847-3.234v-10.485c0-6.978-2.921-11.267-9.907-11.267-4.265 0-7.018 1.634-8.664 3.778 0-.068-.033-.17-.033-.238-.336-2.11-1.545-3.064-3.997-3.132h-2.754c-1.31 0-1.679 0-1.679.953 0 1.498.672 3.132 2.385 3.472.235.034.47.069.705.069h.067v21.24c0 1.804.37 2.11 2.082 2.11h1.176c1.78 0 2.082-.306 2.082-2.11v-14.091c.235-4.46 2.384-7.353 7.018-7.353 4.635 0 6.18 2.962 6.18 6.978v11.744c0 3.37 1.544 5.072 4.466 5.072 2.687 0 3.862-1.26 3.862-2.894-.033-.612-.134-.612-1.142-.612zm106.188 3.88c1.707 0 3.09-1.402 3.09-3.132s-1.383-3.131-3.09-3.131c-1.706 0-3.089 1.402-3.089 3.131 0 1.73 1.383 3.132 3.089 3.132zm14.776-6.229c-1.679-.17-3.19 1.09-3.358 2.791-.168 1.702 1.075 3.234 2.754 3.404.201.034.403.034.604 0 1.68-.17 2.922-1.702 2.754-3.404-.134-1.498-1.276-2.655-2.754-2.791z" fill="#0d84a1"/><path d="m199.623 19.975c-.235-.375-.672-.58-1.108-.58h-28.445c-.504 0-.94-.34-1.041-.85l-.604-2.825c-.034-.239-.101-.443-.135-.681-.571-2.11-1.981-3.064-4.701-3.132h-3.392c-1.511 0-1.948.034-1.948 1.158 0 .817 1.31 2.11 2.754 2.11h3.089c.739 0 1.377.51 1.545 1.226l.672 2.96.638 2.894.907 4.255.638 2.893.906 4.255.37 1.736c.033.273.168.477.302.681a1.39 1.39 0 0 0 1.075.477h23.843a1.41 1.41 0 0 0 1.377-1.124l.437-1.804 1.041-4.255.705-2.893 1.041-4.255.269-1.09c.168-.373.033-.85-.235-1.156zm-28.747 6.399-.839-3.813c-.034-.136.067-.272.201-.272h6.112c.101 0 .202.102.202.204l.302 3.813c0 .136-.101.238-.202.238h-5.574c-.101 0-.202-.102-.202-.17zm1.545 7.148-.84-3.812c-.033-.136.067-.273.202-.273h5.138c.101 0 .201.102.201.205l.303 3.812c0 .136-.101.238-.202.238h-4.634c-.034 0-.135-.068-.168-.17zm13.634.17h-5.507c-.101 0-.202-.102-.202-.204l-.302-3.812c0-.136.101-.239.202-.239h6.112c.134 0 .235.102.201.239l-.302 3.812c0 .102-.101.204-.202.204zm.605-7.148h-6.683c-.101 0-.202-.102-.202-.204l-.302-3.813c0-.136.101-.238.202-.238h7.321c.134 0 .235.102.201.238l-.302 3.813c-.034.102-.134.204-.235.204zm7.052 7.148h-4.365c-.135 0-.236-.102-.202-.238l.302-3.812c0-.102.101-.205.202-.205h5.004c.134 0 .235.137.201.273l-.94 3.812c0 .102-.101.17-.202.17zm1.814-7.148h-5.575c-.134 0-.235-.102-.201-.238l.302-3.813c0-.102.101-.204.201-.204h6.213c.134 0 .235.136.202.272l-.941 3.813c-.033.102-.134.17-.201.17z" fill="#fbb931"/></svg>