<svg width="22" height="23" viewBox="0 0 22 23" fill="none" xmlns="http://www.w3.org/2000/svg">
<g clip-path="url(#clip0)">
<path fill-rule="evenodd" clip-rule="evenodd" d="M11 1C4.93477 1 0 5.93477 0 12C0 18.0652 4.93477 23 11 23C17.0652 23 22 18.0652 22 12C22 5.93477 17.0652 1 11 1ZM11 21.3077C5.8678 21.3077 1.69231 17.1322 1.69231 12C1.69231 6.8678 5.8678 2.69231 11 2.69231C16.1322 2.69231 20.3077 6.8678 20.3077 12C20.3077 17.1322 16.1322 21.3077 11 21.3077Z" fill="#FDB932"/>
<path fill-rule="evenodd" clip-rule="evenodd" d="M11.8447 11.5905V5.86031C11.8447 5.39324 11.4656 5.01416 10.9985 5.01416C10.5314 5.01416 10.1523 5.39211 10.1523 5.86031V12C10.1523 12.2584 10.2708 12.5032 10.4739 12.6645L15.5181 16.6471C15.6738 16.7689 15.8588 16.8287 16.0416 16.8287C16.292 16.8287 16.5391 16.7182 16.7072 16.5072C16.9972 16.1405 16.934 15.608 16.5673 15.3181L11.8447 11.5905Z" fill="#FDB932"/>
</g>
<defs>
<clipPath id="clip0">
<rect width="22" height="23" fill="white"/>
</clipPath>
</defs>
</svg>
