<svg width="18" height="17" viewBox="0 0 18 17" fill="none" xmlns="http://www.w3.org/2000/svg">
<g clip-path="url(#clip0)">
<path d="M15.0004 0H3.00042C2.05756 0 1.28613 0.728571 1.28613 1.61905V12.9524C1.28613 13.8429 2.05756 14.5714 3.00042 14.5714H6.42899L9.00042 17L11.5718 14.5714H15.0004C15.9433 14.5714 16.7147 13.8429 16.7147 12.9524V1.61905C16.7147 0.728571 15.9433 0 15.0004 0ZM9.85756 12.9524H8.14327V11.3333H9.85756V12.9524ZM11.6576 6.71905L10.8861 7.44762C10.2005 8.01429 9.85756 8.5 9.85756 9.71429H8.14327V9.30952C8.14327 8.41905 8.48613 7.60952 9.17185 7.04286L10.2004 5.99048C10.5433 5.74762 10.7147 5.34286 10.7147 4.85714C10.7147 3.96667 9.94331 3.2381 9.00045 3.2381C8.05759 3.2381 7.28617 3.96667 7.28617 4.85714H5.57188C5.57188 3.07619 7.11474 1.61905 9.00045 1.61905C10.8862 1.61905 12.429 3.07619 12.429 4.85714C12.429 5.58571 12.0861 6.23333 11.6576 6.71905Z" fill="black"/>
</g>
<defs>
<clipPath id="clip0">
<rect width="18" height="17" fill="white"/>
</clipPath>
</defs>
</svg>
