<svg width="22" height="16" viewBox="0 0 22 16" fill="none" xmlns="http://www.w3.org/2000/svg">
<path d="M11.0276 9.17988H11.0323C11.1982 9.17988 11.3622 9.13175 11.4948 9.04411L11.5308 9.02099C11.5386 9.01589 11.5468 9.01125 11.5551 9.00575L11.9741 8.65904L21.9769 0.404579C21.9562 0.376001 21.921 0.356445 21.8834 0.356445H0.116219C0.0892222 0.356445 0.0641667 0.366223 0.0442157 0.382651L10.5095 9.00845C10.6414 9.11766 10.8296 9.17988 11.0276 9.17988ZM0 1.52608V13.7616L7.4969 7.70545L0 1.52608ZM14.5109 7.74654L22 13.7647V1.56677L14.5109 7.74654ZM12.1299 9.71087C11.8313 9.95581 11.4408 10.0908 11.0307 10.0908C10.6191 10.0908 10.229 9.9566 9.9312 9.71281L8.21416 8.29668L0 14.9312V14.9523C0 15.0153 0.0539935 15.0689 0.117765 15.0689H21.8838C21.9464 15.0689 22 15.0153 22 14.9519V14.9324L13.7929 8.3382L12.1299 9.71087Z" fill="black"/>
</svg>
