<svg width="22" height="16" viewBox="0 0 22 16" fill="none" xmlns="http://www.w3.org/2000/svg">
<path d="M19.25 0.75H2.75C1.23131 0.75 0 1.98131 0 3.5V14.5C0 16.0187 1.23131 17.25 2.75 17.25H19.25C20.7687 17.25 22 16.0187 22 14.5V3.5C22 1.98131 20.7687 0.75 19.25 0.75ZM14.7235 8.08825L20.5444 3.09983C20.5847 3.22874 20.625 3.35764 20.625 3.5V14.5C20.625 14.5953 20.5887 14.68 20.57 14.7699L14.7235 8.08825ZM19.25 2.125C19.3413 2.125 19.4219 2.15993 19.5078 2.17738L11 9.46999L2.49219 2.17738C2.57812 2.15993 2.65869 2.125 2.75 2.125H19.25ZM1.4294 14.7686C1.41058 14.6786 1.375 14.5953 1.375 14.5V3.5C1.375 3.35764 1.41595 3.22874 1.45625 3.09983L7.27517 8.08691L1.4294 14.7686ZM2.75 15.875C2.61104 15.875 2.4848 15.8347 2.35791 15.7958L8.31982 8.98251L10.5529 10.896C10.6811 11.0075 10.8409 11.0625 11 11.0625C11.1591 11.0625 11.3189 11.0075 11.4471 10.896L13.6802 8.98255L19.6421 15.7958C19.5159 15.8347 19.3896 15.875 19.25 15.875H2.75Z" fill="#FDB932"/>
</svg>
