<svg width="17" height="17" viewBox="0 0 17 17" fill="none" xmlns="http://www.w3.org/2000/svg">
<g clip-path="url(#clip0)">
<path d="M16.6198 9.22291C16.0827 9.40014 15.5456 9.26249 15.0625 8.9986C14.783 8.84597 14.5617 8.69183 14.344 8.47532C14.2192 8.35147 14.0468 8.37186 13.92 8.47532C13.0314 9.20042 11.7339 9.01719 10.8441 8.42854C10.7629 8.37486 10.6222 8.36946 10.5413 8.42854C9.81496 8.95932 8.95041 9.09006 8.08047 8.89934C7.63666 8.80218 7.23992 8.66214 6.86147 8.42854C6.74182 8.35477 6.59818 8.38715 6.49802 8.47532C5.55551 9.30598 4.15269 9.08107 3.18799 8.42854C3.07044 8.34907 2.9235 8.39195 2.82454 8.47532C2.37292 8.85616 1.77647 9.03939 1.2088 9.16174C0.881337 9.23251 0.628241 9.27269 0.299877 9.28708C0.238102 9.28978 0.190122 9.31077 0.148139 9.33866C0.0641736 9.38304 0 9.46281 0 9.58696C0 11.397 0 13.2065 0 15.0168C0 15.0807 0 15.1455 0 15.2096C0 15.3731 0.136444 15.5095 0.299877 15.5095C0.799771 15.5095 1.29936 15.5095 1.79926 15.5095C1.96269 15.5095 2.09914 15.3731 2.09914 15.2096C2.09914 13.835 2.09914 12.461 2.09914 11.0863C2.59903 11.0863 3.09862 11.0863 3.59852 11.0863C3.59852 12.461 3.59852 13.835 3.59852 15.2096C3.59852 15.3731 3.73496 15.5095 3.89839 15.5095C5.3384 15.5095 6.77841 15.5095 8.21842 15.5095C10.5155 15.5095 12.8125 15.5095 15.1096 15.5095C15.6398 15.5095 16.1693 15.5095 16.6992 15.5095C16.8627 15.5095 16.9991 15.3731 16.9991 15.2096C16.9991 13.3894 16.9991 11.5688 16.9991 9.74859C16.9991 9.66943 16.9991 9.59116 16.9991 9.51199C16.9991 9.32427 16.8066 9.16114 16.6198 9.22291ZM12.3792 14.9092C10.0821 14.9092 7.78509 14.9092 5.48774 14.9092C5.05772 14.9092 4.62799 14.9092 4.19797 14.9092C4.19797 13.5345 4.19797 12.1605 4.19797 10.7859C4.19797 10.6224 4.06153 10.486 3.89809 10.486C3.19848 10.486 2.49857 10.486 1.79896 10.486C1.63553 10.486 1.49908 10.6224 1.49908 10.7859C1.49908 12.1605 1.49908 13.5345 1.49908 14.9092C1.19921 14.9092 0.89933 14.9092 0.599453 14.9092C0.599453 13.2278 0.599453 11.5467 0.599453 9.86525C1.4553 9.79028 2.35613 9.54678 3.05154 9.04598C3.41889 9.26399 3.83482 9.42233 4.24325 9.52099C5.12669 9.7336 6.01402 9.58216 6.73313 9.04568C7.94343 9.71351 9.52888 9.80167 10.7017 9.03939C11.049 9.2394 11.4415 9.38274 11.8256 9.46881C12.6326 9.65023 13.4315 9.51949 14.1065 9.07087C14.7284 9.60915 15.5813 9.99059 16.3993 9.88624C16.3993 11.5607 16.3993 13.235 16.3993 14.9095C15.0595 14.9092 13.7194 14.9092 12.3792 14.9092Z" fill="#010002"/>
<path d="M0.0818663 8.81472C0.0878638 8.82132 0.0938613 8.82701 0.100159 8.83331C0.105856 8.83721 0.110654 8.84141 0.116652 8.84501C0.167931 8.88879 0.230305 8.91908 0.299877 8.91278C1.26998 8.82132 2.34563 8.44557 3.00596 7.70548C3.49896 7.1531 3.62101 6.38962 3.80303 5.6954C4.00665 4.91782 4.20067 4.13754 4.39169 3.35637C4.51284 2.86127 4.63279 2.36617 4.75004 1.87018C4.79473 1.68096 4.66128 1.49023 4.46096 1.49023C3.83632 1.49023 3.21138 1.49023 2.58674 1.49023C2.44789 1.49023 2.34024 1.5829 2.29765 1.71034C1.7054 3.47722 1.11314 5.24409 0.520885 7.01096C0.350856 7.51805 0.180826 8.02544 0.0107956 8.53254C0.00269889 8.55653 0.0050979 8.57662 0.00269889 8.59881C0.00239901 8.60391 0 8.6075 0 8.6126C0 8.6138 0.000599753 8.6147 0.000599753 8.6159C-0.00329864 8.69897 0.0278885 8.76644 0.0818663 8.81472ZM2.36573 3.39145C2.51117 2.95783 2.65661 2.52361 2.80205 2.08999C3.22817 2.08999 3.6543 2.08999 4.08042 2.08999C3.84322 3.08348 3.60032 4.07577 3.34692 5.06506C3.25006 5.44291 3.1514 5.82015 3.04884 6.1965C2.96128 6.51826 2.88871 6.83613 2.70549 7.11922C2.37742 7.62631 1.77737 7.92079 1.23039 8.10071C1.07086 8.15319 0.907726 8.19427 0.743694 8.23116C1.28437 6.61782 1.82505 5.00449 2.36573 3.39145Z" fill="#010002"/>
<path d="M3.91086 7.11862C3.75073 7.75016 4.07369 8.32862 4.68544 8.53943C5.29059 8.74815 5.94372 8.43627 6.2457 7.8953C6.39744 7.62361 6.44991 7.29464 6.52188 6.99417C6.63644 6.51556 6.75099 6.03696 6.86554 5.55836C7.15972 4.32887 7.4542 3.09937 7.74838 1.86988C7.79366 1.68126 7.65932 1.49023 7.4593 1.49023C6.83466 1.49023 6.20971 1.49023 5.58507 1.49023C5.45402 1.49023 5.32838 1.5814 5.29599 1.71034C4.84168 3.5144 4.39756 5.32176 3.91146 7.11742C3.91146 7.11802 3.91086 7.11802 3.91086 7.11862ZM5.81867 2.08999C6.2388 2.08999 6.65923 2.08999 7.07935 2.08999C6.68622 3.73271 6.29278 5.37543 5.89964 7.01846C5.88015 7.10002 5.86066 7.18159 5.84116 7.26316C5.80308 7.42239 5.7458 7.59842 5.65164 7.71777C5.55778 7.83652 5.43423 7.92139 5.33437 7.95767C5.19913 8.00685 5.12986 8.01135 4.96672 7.99486C5.0288 8.00115 4.93464 7.98616 4.92984 7.98526C4.89176 7.97686 4.85427 7.96457 4.81739 7.95197C4.80959 7.94897 4.80899 7.94867 4.80449 7.94688C4.7886 7.93938 4.7724 7.93128 4.75681 7.92319C4.72832 7.90819 4.70133 7.8902 4.67464 7.87191C4.67195 7.86831 4.63446 7.83952 4.63176 7.83742C4.60357 7.81193 4.57838 7.78344 4.55409 7.75465C4.58558 7.79184 4.48542 7.61911 4.50282 7.66349C4.44674 7.52045 4.45214 7.42509 4.48932 7.27815C4.95563 5.55536 5.38385 3.82117 5.81867 2.08999Z" fill="#010002"/>
<path d="M13.4313 5.2246C13.5278 5.60244 13.6268 5.97969 13.7293 6.35603C13.8265 6.71318 13.9171 7.07064 14.1036 7.3942C14.452 7.99755 15.0596 8.38769 15.6977 8.6264C16.0162 8.74575 16.3602 8.82881 16.6999 8.8576C16.8322 8.8687 16.9155 8.80302 16.9563 8.71396C16.9578 8.71216 16.9587 8.71006 16.9599 8.70796C16.965 8.69687 16.9695 8.68637 16.9728 8.67438C16.9989 8.6186 17.0109 8.55412 16.9893 8.47766C16.4774 6.6832 15.9655 4.88873 15.4536 3.09397C15.322 2.63276 15.19 2.17155 15.059 1.71004C15.0224 1.582 14.904 1.49023 14.7696 1.49023C14.145 1.49023 13.52 1.49023 12.8954 1.49023C12.6951 1.49023 12.5616 1.68096 12.6063 1.86988C12.8714 2.99052 13.1455 4.10906 13.4313 5.2246ZM14.5432 2.08999C15.0344 3.81098 15.525 5.53227 16.0162 7.25356C16.1035 7.56003 16.191 7.86681 16.2783 8.17328C16.1029 8.1295 15.9295 8.07762 15.7616 8.01105C15.2053 7.79124 14.6739 7.35582 14.4661 6.75397C14.2178 6.03546 14.0613 5.27258 13.8751 4.53608C13.6957 3.82507 13.5212 3.11287 13.3497 2.40006C13.3248 2.2969 13.3002 2.19344 13.2753 2.08999C13.6981 2.08999 14.1207 2.08999 14.5432 2.08999Z" fill="#010002"/>
<path d="M10.878 7.17799C10.9179 7.34502 10.9518 7.51655 11.0121 7.67759C11.1761 8.11301 11.5186 8.46356 11.9804 8.56882C12.3894 8.66208 12.8092 8.54813 13.1268 8.28034C13.4642 7.99636 13.5484 7.52915 13.4444 7.11862C12.9583 5.32266 12.5135 3.5147 12.0595 1.71034C12.0271 1.5814 11.9018 1.49023 11.7707 1.49023C11.1461 1.49023 10.5212 1.49023 9.89652 1.49023C9.6965 1.49023 9.56216 1.68126 9.60744 1.86988C10.0309 3.63915 10.4546 5.40842 10.878 7.17799ZM12.8659 7.27545C12.8659 7.27635 12.8656 7.27725 12.8659 7.27815C12.9784 7.72077 12.6551 8.01945 12.2098 7.99995C12.139 7.99665 12.0226 7.96307 11.9498 7.92528C11.8409 7.86921 11.7564 7.79274 11.6862 7.69078C11.5857 7.54504 11.5425 7.38101 11.5024 7.21158C11.2891 6.32155 11.0759 5.43151 10.8633 4.54148C10.6675 3.72431 10.472 2.90715 10.2762 2.08999C10.6963 2.08999 11.1167 2.08999 11.5368 2.08999C11.972 3.82057 12.3999 5.55326 12.8659 7.27545Z" fill="#010002"/>
<path d="M6.87741 7.60382C6.78805 7.98316 7.25376 8.27884 7.55213 8.40029C8.00885 8.58621 8.52733 8.57572 9.00504 8.49265C9.40717 8.42278 9.88487 8.25725 10.1458 7.92469C10.1527 7.91569 10.1563 7.90549 10.1626 7.8962C10.1779 7.87611 10.191 7.85541 10.2003 7.83172C10.2066 7.81763 10.209 7.80324 10.2135 7.78884C10.2177 7.77235 10.2228 7.75705 10.2246 7.73966C10.2282 7.71417 10.2264 7.68958 10.2231 7.66409C10.2222 7.6536 10.2243 7.6434 10.2225 7.63291C9.92835 5.81056 9.63448 3.98851 9.3403 2.16616C9.31571 2.01412 9.29112 1.86208 9.26713 1.71034C9.24584 1.5808 9.1001 1.49023 8.97745 1.49023C8.8359 1.49023 8.69466 1.49023 8.55252 1.49023C8.42297 1.49023 8.29373 1.5811 8.26344 1.71034C7.83882 3.515 7.41449 5.31996 6.98986 7.12462C6.95268 7.28445 6.9149 7.44428 6.87741 7.60382ZM8.72255 2.37817C8.73215 2.33769 8.74144 2.2969 8.75134 2.25642C9.02453 3.94982 9.29771 5.64293 9.5709 7.33663C9.5856 7.42779 9.60029 7.51865 9.61468 7.60982C9.35709 7.82963 8.94116 7.91989 8.58911 7.94448C8.21006 7.97117 7.72156 7.92169 7.48346 7.6455C7.89669 5.88972 8.30932 4.13395 8.72255 2.37817Z" fill="#010002"/>
<path d="M15.406 11.1611C13.6982 11.1611 11.9895 11.1611 10.2814 11.1611C8.84713 11.1611 7.41312 11.1611 5.97881 11.1611C5.85616 11.1611 5.75391 11.2634 5.75391 11.386C5.75391 12.0857 5.75391 12.7856 5.75391 13.4852C5.75391 13.6078 5.85616 13.7101 5.97881 13.7101C7.68691 13.7101 9.39531 13.7101 11.1034 13.7101C12.5377 13.7101 13.9714 13.7101 15.406 13.7101C15.4678 13.7101 15.5137 13.687 15.5494 13.6546C15.5545 13.6507 15.5596 13.6477 15.5644 13.6432C15.5689 13.6384 15.5719 13.6333 15.5758 13.6282C15.6078 13.5928 15.6312 13.547 15.6312 13.4849C15.6312 12.7853 15.6312 12.0854 15.6312 11.3857C15.6309 11.2634 15.5287 11.1611 15.406 11.1611ZM15.1811 13.2603C13.5483 13.2603 11.9146 13.2603 10.2814 13.2603C8.9221 13.2603 7.56306 13.2603 6.20372 13.2603C6.20372 12.7106 6.20372 12.1606 6.20372 11.6109C7.83685 11.6109 9.47028 11.6109 11.1034 11.6109C12.4627 11.6109 13.8215 11.6109 15.1811 11.6109C15.1811 12.1606 15.1811 12.7106 15.1811 13.2603Z" fill="#010002"/>
<path d="M0 10L1.5 9.5L3 9L5 9.5L6 9V13V15H4V10.827H1.9173L1.5 15H0V10Z" fill="black"/>
<path d="M5.5 9.5L6.5 9H11H14.5L16.5 9.5L17 11.5H6L5.5 9.5Z" fill="black"/>
<path d="M6 15.3999L7 14.9999H11L14.3896 15.3999L16.5 15.3999L17 13.4999H6V15.3999Z" fill="black"/>
<path d="M15.5 11H16.5V14H15.5V11Z" fill="black"/>
</g>
<defs>
<clipPath id="clip0">
<rect width="17" height="17" fill="white"/>
</clipPath>
</defs>
</svg>
