<svg width="25" height="25" fill="none" xmlns="http://www.w3.org/2000/svg"><g clip-path="url(#clip0)"><path d="M22.888 17.923a.46.46 0 0 1-.47.453h-6.375c-2.27 0-3.093 1.026-3.093 1.026l-.104.14-.05.068c-.216.293-.534.002-.535 0l-.147-.183c-.11-.13-.943-1.05-2.96-1.05H2.583a.46.46 0 0 1-.47-.454V4.363c0-.251.21-.454.47-.454h5.103c3.796 0 4.155 2.156 4.18 2.782v9.432c0 .685.327.814.51.833h.275c.188-.02.487-.13.487-.666V6.57h-.004c.029-.785.335-2.661 2.618-2.661h6.667c.26 0 .47.202.47.453v13.561zm1.69-11.353h-.023c-.429.003-.495-.37-.503-.543V3.322a.522.522 0 0 0-.521-.522h-7.734c-1.94 0-2.664.719-2.843.945l-.05.068v.001l-.153.21c-.206.282-.384.162-.47.07l-.293-.365-.145-.175C11.6 3.3 10.966 2.8 9.708 2.8H1.47a.523.523 0 0 0-.523.522v2.67c0 .468-.254.562-.41.578H.423C.295 6.578 0 6.65 0 7.194V19.92c0 .311.253.564.565.564h7.52c2.398 0 3.443.905 3.757 1.252l.178.222s.48.542.986 0l.105-.123.002-.001.134-.157.082-.088c.4-.39 1.4-1.105 3.357-1.105h7.749A.565.565 0 0 0 25 19.92V7.07c0-.46-.333-.499-.422-.501z" fill="#CACACA"/></g><defs><clipPath id="clip0"><path fill="#fff" d="M0 0h25v25H0z"/></clipPath></defs></svg>