<svg width="27" height="27" fill="none" xmlns="http://www.w3.org/2000/svg"><g clip-path="url(#clip0)"><mask id="a" maskUnits="userSpaceOnUse" x="-1" y="-.876" width="29" height="28" fill="#000"><path fill="#fff" d="M-1-.876h29v28H-1z"/><path d="M12.778 19.565c0 .34-.275.614-.614.614a6.969 6.969 0 0 1 0-13.937 6.967 6.967 0 0 1 6.597 4.72.614.614 0 0 1-1.163.396 5.738 5.738 0 0 0-5.434-3.887 5.746 5.746 0 0 0-5.74 5.74 5.741 5.741 0 0 0 5.74 5.74c.34 0 .614.274.614.614zm3.433-6.354a4.052 4.052 0 0 1-4.047 4.047 4.052 4.052 0 0 1-4.048-4.047 4.052 4.052 0 0 1 4.048-4.048 4.052 4.052 0 0 1 4.047 4.048zm-1.228 0a2.822 2.822 0 0 0-2.819-2.819 2.822 2.822 0 0 0-2.819 2.819 2.822 2.822 0 0 0 2.819 2.818 2.822 2.822 0 0 0 2.819-2.818zm-4.011 11.727c-.524-.102-.787-.243-.877-.313l-.278-2.676a.614.614 0 0 0-.415-.52 8.61 8.61 0 0 1-2.98-1.724.615.615 0 0 0-.658-.101l-2.463 1.1c-.23-.085-.83-.6-1.396-1.582-.567-.982-.713-1.757-.673-2l2.189-1.586a.614.614 0 0 0 .242-.618 8.74 8.74 0 0 1 .003-3.435.614.614 0 0 0-.241-.619L1.232 9.276c-.04-.244.106-1.02.673-2C2.472 6.293 3.07 5.778 3.3 5.692L5.781 6.8c.22.098.476.059.656-.1A8.614 8.614 0 0 1 9.4 4.99a.614.614 0 0 0 .415-.52l.28-2.7c.19-.157.936-.418 2.069-.418 1.134 0 1.879.262 2.069.418l.28 2.7c.025.24.187.443.415.52a8.617 8.617 0 0 1 2.963 1.71c.18.159.437.198.657.1l2.479-1.108c.231.086.83.601 1.396 1.582.567.982.713 1.758.673 2.001l-2.193 1.588a.614.614 0 0 0-.241.62 8.6 8.6 0 0 1 .095.563.614.614 0 0 0 1.217-.163 9.377 9.377 0 0 0-.037-.251l1.897-1.375c.935-.59.402-2.3-.347-3.597-.39-.676-.856-1.266-1.31-1.66-.764-.662-1.305-.61-1.633-.438l-2.145.958a9.818 9.818 0 0 0-2.704-1.561l-.242-2.34C15.407.516 13.66.124 12.164.124c-1.617 0-3.249.464-3.289 1.5L8.633 3.96A9.818 9.818 0 0 0 5.93 5.52l-2.15-.96c-.977-.513-2.191.804-2.94 2.1-.39.676-.668 1.374-.782 1.964-.191.993.124 1.437.438 1.634l1.895 1.373a9.987 9.987 0 0 0-.003 3.135l-1.892 1.37c-.314.199-.63.642-.438 1.635.114.59.392 1.288.783 1.964.747 1.295 1.96 2.611 2.939 2.1l2.132-.952a9.816 9.816 0 0 0 2.723 1.576l.24 2.314c.017.398.295 1.065 1.863 1.37a.616.616 0 0 0 .72-.486.614.614 0 0 0-.486-.72zm15.943-7.694a10.916 10.916 0 0 1-4.153 7.313 10.905 10.905 0 0 1-8.109 2.234 11.206 11.206 0 0 1-1.156-.207.614.614 0 0 1-.472-.538 11.05 11.05 0 0 1 .032-2.445c.749-6.013 6.25-10.295 12.262-9.547.386.048.775.118 1.157.207.256.06.446.277.471.538.08.811.07 1.634-.032 2.445zm-1.157-1.878a9.855 9.855 0 0 0-.591-.092c-5.34-.665-10.226 3.138-10.89 8.479a9.36 9.36 0 0 0-.071.917l5.62-4.924a.615.615 0 0 1 .81.924l-5.622 4.925a9.692 9.692 0 0 0 6.993-2.008 9.696 9.696 0 0 0 3.689-6.495 9.83 9.83 0 0 0 .062-1.726z"/></mask><path d="M12.778 19.565c0 .34-.275.614-.614.614a6.969 6.969 0 0 1 0-13.937 6.967 6.967 0 0 1 6.597 4.72.614.614 0 0 1-1.163.396 5.738 5.738 0 0 0-5.434-3.887 5.746 5.746 0 0 0-5.74 5.74 5.741 5.741 0 0 0 5.74 5.74c.34 0 .614.274.614.614zm3.433-6.354a4.052 4.052 0 0 1-4.047 4.047 4.052 4.052 0 0 1-4.048-4.047 4.052 4.052 0 0 1 4.048-4.048 4.052 4.052 0 0 1 4.047 4.048zm-1.228 0a2.822 2.822 0 0 0-2.819-2.819 2.822 2.822 0 0 0-2.819 2.819 2.822 2.822 0 0 0 2.819 2.818 2.822 2.822 0 0 0 2.819-2.818zm-4.011 11.727c-.524-.102-.787-.243-.877-.313l-.278-2.676a.614.614 0 0 0-.415-.52 8.61 8.61 0 0 1-2.98-1.724.615.615 0 0 0-.658-.101l-2.463 1.1c-.23-.085-.83-.6-1.396-1.582-.567-.982-.713-1.757-.673-2l2.189-1.586a.614.614 0 0 0 .242-.618 8.74 8.74 0 0 1 .003-3.435.614.614 0 0 0-.241-.619L1.232 9.276c-.04-.244.106-1.02.673-2C2.472 6.293 3.07 5.778 3.3 5.692L5.781 6.8c.22.098.476.059.656-.1A8.614 8.614 0 0 1 9.4 4.99a.614.614 0 0 0 .415-.52l.28-2.7c.19-.157.936-.418 2.069-.418 1.134 0 1.879.262 2.069.418l.28 2.7c.025.24.187.443.415.52a8.617 8.617 0 0 1 2.963 1.71c.18.159.437.198.657.1l2.479-1.108c.231.086.83.601 1.396 1.582.567.982.713 1.758.673 2.001l-2.193 1.588a.614.614 0 0 0-.241.62 8.6 8.6 0 0 1 .095.563.614.614 0 0 0 1.217-.163 9.377 9.377 0 0 0-.037-.251l1.897-1.375c.935-.59.402-2.3-.347-3.597-.39-.676-.856-1.266-1.31-1.66-.764-.662-1.305-.61-1.633-.438l-2.145.958a9.818 9.818 0 0 0-2.704-1.561l-.242-2.34C15.407.516 13.66.124 12.164.124c-1.617 0-3.249.464-3.289 1.5L8.633 3.96A9.818 9.818 0 0 0 5.93 5.52l-2.15-.96c-.977-.513-2.191.804-2.94 2.1-.39.676-.668 1.374-.782 1.964-.191.993.124 1.437.438 1.634l1.895 1.373a9.987 9.987 0 0 0-.003 3.135l-1.892 1.37c-.314.199-.63.642-.438 1.635.114.59.392 1.288.783 1.964.747 1.295 1.96 2.611 2.939 2.1l2.132-.952a9.816 9.816 0 0 0 2.723 1.576l.24 2.314c.017.398.295 1.065 1.863 1.37a.616.616 0 0 0 .72-.486.614.614 0 0 0-.486-.72zm15.943-7.694a10.916 10.916 0 0 1-4.153 7.313 10.905 10.905 0 0 1-8.109 2.234 11.206 11.206 0 0 1-1.156-.207.614.614 0 0 1-.472-.538 11.05 11.05 0 0 1 .032-2.445c.749-6.013 6.25-10.295 12.262-9.547.386.048.775.118 1.157.207.256.06.446.277.471.538.08.811.07 1.634-.032 2.445zm-1.157-1.878a9.855 9.855 0 0 0-.591-.092c-5.34-.665-10.226 3.138-10.89 8.479a9.36 9.36 0 0 0-.071.917l5.62-4.924a.615.615 0 0 1 .81.924l-5.622 4.925a9.692 9.692 0 0 0 6.993-2.008 9.696 9.696 0 0 0 3.689-6.495 9.83 9.83 0 0 0 .062-1.726z" fill="#CACACA"/><path d="M12.778 19.565c0 .34-.275.614-.614.614a6.969 6.969 0 0 1 0-13.937 6.967 6.967 0 0 1 6.597 4.72.614.614 0 0 1-1.163.396 5.738 5.738 0 0 0-5.434-3.887 5.746 5.746 0 0 0-5.74 5.74 5.741 5.741 0 0 0 5.74 5.74c.34 0 .614.274.614.614zm3.433-6.354a4.052 4.052 0 0 1-4.047 4.047 4.052 4.052 0 0 1-4.048-4.047 4.052 4.052 0 0 1 4.048-4.048 4.052 4.052 0 0 1 4.047 4.048zm-1.228 0a2.822 2.822 0 0 0-2.819-2.819 2.822 2.822 0 0 0-2.819 2.819 2.822 2.822 0 0 0 2.819 2.818 2.822 2.822 0 0 0 2.819-2.818zm-4.011 11.727c-.524-.102-.787-.243-.877-.313l-.278-2.676a.614.614 0 0 0-.415-.52 8.61 8.61 0 0 1-2.98-1.724.615.615 0 0 0-.658-.101l-2.463 1.1c-.23-.085-.83-.6-1.396-1.582-.567-.982-.713-1.757-.673-2l2.189-1.586a.614.614 0 0 0 .242-.618 8.74 8.74 0 0 1 .003-3.435.614.614 0 0 0-.241-.619L1.232 9.276c-.04-.244.106-1.02.673-2C2.472 6.293 3.07 5.778 3.3 5.692L5.781 6.8c.22.098.476.059.656-.1A8.614 8.614 0 0 1 9.4 4.99a.614.614 0 0 0 .415-.52l.28-2.7c.19-.157.936-.418 2.069-.418 1.134 0 1.879.262 2.069.418l.28 2.7c.025.24.187.443.415.52a8.617 8.617 0 0 1 2.963 1.71c.18.159.437.198.657.1l2.479-1.108c.231.086.83.601 1.396 1.582.567.982.713 1.758.673 2.001l-2.193 1.588a.614.614 0 0 0-.241.62 8.6 8.6 0 0 1 .095.563.614.614 0 0 0 1.217-.163 9.377 9.377 0 0 0-.037-.251l1.897-1.375c.935-.59.402-2.3-.347-3.597-.39-.676-.856-1.266-1.31-1.66-.764-.662-1.305-.61-1.633-.438l-2.145.958a9.818 9.818 0 0 0-2.704-1.561l-.242-2.34C15.407.516 13.66.124 12.164.124c-1.617 0-3.249.464-3.289 1.5L8.633 3.96A9.818 9.818 0 0 0 5.93 5.52l-2.15-.96c-.977-.513-2.191.804-2.94 2.1-.39.676-.668 1.374-.782 1.964-.191.993.124 1.437.438 1.634l1.895 1.373a9.987 9.987 0 0 0-.003 3.135l-1.892 1.37c-.314.199-.63.642-.438 1.635.114.59.392 1.288.783 1.964.747 1.295 1.96 2.611 2.939 2.1l2.132-.952a9.816 9.816 0 0 0 2.723 1.576l.24 2.314c.017.398.295 1.065 1.863 1.37a.616.616 0 0 0 .72-.486.614.614 0 0 0-.486-.72zm15.943-7.694a10.916 10.916 0 0 1-4.153 7.313 10.905 10.905 0 0 1-8.109 2.234 11.206 11.206 0 0 1-1.156-.207.614.614 0 0 1-.472-.538 11.05 11.05 0 0 1 .032-2.445c.749-6.013 6.25-10.295 12.262-9.547.386.048.775.118 1.157.207.256.06.446.277.471.538.08.811.07 1.634-.032 2.445zm-1.157-1.878a9.855 9.855 0 0 0-.591-.092c-5.34-.665-10.226 3.138-10.89 8.479a9.36 9.36 0 0 0-.071.917l5.62-4.924a.615.615 0 0 1 .81.924l-5.622 4.925a9.692 9.692 0 0 0 6.993-2.008 9.696 9.696 0 0 0 3.689-6.495 9.83 9.83 0 0 0 .062-1.726z" stroke="#CACACA" stroke-width=".4" mask="url(#a)"/></g><defs><clipPath id="clip0"><path fill="#fff" d="M0 0h27v27H0z"/></clipPath></defs></svg>