<svg width="33" height="29" fill="none" xmlns="http://www.w3.org/2000/svg"><path d="M19.873 13.09c.416-1.281 2.227-1.281 2.643 0a2.89 2.89 0 0 0 2.748 1.996c1.346 0 1.906 1.722.817 2.513a2.89 2.89 0 0 0-1.05 3.23c.416 1.281-1.049 2.346-2.138 1.554a2.89 2.89 0 0 0-3.397 0c-1.089.792-2.554-.273-2.138-1.553a2.89 2.89 0 0 0-1.05-3.23c-1.088-.792-.529-2.514.817-2.514a2.89 2.89 0 0 0 2.748-1.997z" stroke="#C9C9C9" stroke-width="1.5"/><circle cx="21.099" cy="17.899" r=".981" stroke="#C9C9C9" stroke-width="1.5"/><path d="M22.926 12.196c2.139-2.138 4.889-7.271-1.222-10.693-3.91-1.955-8.147.95-9.777 2.648L4.595 9.039c-1.63 1.222-4.583 4.746-3.361 9.064s6.144 5.126 8.453 4.99c.883-.102 3.096-.774 4.888-2.648 1.793-1.873 2.037-2.138 1.935-2.036" stroke="#C9C9C9" stroke-width="1.5"/><path d="M4.9 8.835c2.343-.475 7.19-.203 7.842 4.685.652 4.889-3.055 5.975-4.99 5.907-1.596-.373-4.481-1.996-3.259-5.5.326-1.384 1.969-1.663 2.75-1.629.645-.034 2.057.245 2.546 1.63.488 1.384-.883 1.867-1.63 1.934h-.916" stroke="#C9C9C9" stroke-width="1.5"/></svg>