<svg width="38" height="38" fill="none" xmlns="http://www.w3.org/2000/svg"><path d="M38 30.63H0V7.37h38v23.26zm-36.8-1.2h35.6V8.57H1.2v20.86z" fill="#898989"/><path d="M17.906 16l-1.787 3.976L14.34 16h-2.28v5.708L9.519 16H7.593L5 21.927h1.534l.569-1.324h2.905l.575 1.324h2.932v-4.402l1.943 4.402h1.324l1.991-4.326v4.326h1.455V16h-2.322zM7.652 19.323l.868-2.072.904 2.072H7.652zm22.743-.425L33 16.013h-1.852l-1.668 1.84L27.87 16h-5.736v5.927h5.549l1.747-1.959 1.705 1.972h1.845l-2.584-3.043zm-3.473 1.786h-3.355v-1.171h3.21v-1.127h-3.21v-1.11l3.541.01 1.416 1.613-1.602 1.785z" fill="#898989"/></svg>