<svg width="19" height="19" fill="none" xmlns="http://www.w3.org/2000/svg"><path d="M14.163 4.01c.728 0 1.317-.586 1.317-1.315V1.318C15.48.588 14.891 0 14.163 0c-.73 0-1.318.587-1.318 1.318v1.377c0 .73.59 1.315 1.318 1.315z" fill="#B6B6B6"/><path d="M18.845 2.28h-2.653v.67a2.007 2.007 0 0 1-4.012 0v-.67H6.827v.67A2.01 2.01 0 0 1 4.82 4.957c-1.107 0-2.006-.9-2.006-2.007v-.67L.137 2.246V19h17.391l1.337-.004-.02-16.716zM1.475 17.666V6.963h16.053v10.703H1.476z" fill="#B6B6B6"/><path d="M4.799 4.01c.728 0 1.318-.586 1.318-1.315V1.318C6.117.588 5.527 0 4.8 0c-.73 0-1.318.587-1.318 1.318v1.377c0 .73.588 1.315 1.317 1.315zm4.139 4.389H6.83v1.86h2.108V8.4zm3.412 0h-2.11v1.86h2.11V8.4zm3.159 0H13.4v1.86h2.108V8.4zm-6.571 3.09H6.83v1.86h2.108v-1.86zm3.412 0h-2.11v1.86h2.11v-1.86zm3.159 0H13.4v1.86h2.108v-1.86zM8.938 14.64H6.83v1.86h2.108v-1.86zm-3.349-3.151H3.482v1.86H5.59v-1.86zm0 3.151H3.482v1.86H5.59v-1.86zm6.761 0h-2.11v1.86h2.11v-1.86zm3.159 0H13.4v1.86h2.108v-1.86z" fill="#B6B6B6"/></svg>