<svg width="25" height="25" fill="none" xmlns="http://www.w3.org/2000/svg"><g clip-path="url(#clip0)" fill="#DADADA"><path d="M23.582 8.651c.18.18.467.18.642 0l.642-.642a.45.45 0 0 0 0-.641l-1.453-1.452a.45.45 0 0 0-.641 0l-.642.641a.45.45 0 0 0 0 .642l.062.061-.452.452a7.942 7.942 0 0 0-4.034-1.678v-.822h.498a.452.452 0 0 0 .452-.451V3.426a.452.452 0 0 0-.452-.451H15.32a.452.452 0 0 0-.452.451v1.335c0 .251.205.451.452.451h.498v.822c-1.514.18-2.9.78-4.034 1.678l-.452-.452.062-.061a.45.45 0 0 0 0-.642l-.642-.641a.45.45 0 0 0-.641 0L8.658 7.368a.45.45 0 0 0 0 .641l.642.642c.18.18.467.18.641 0l.062-.062.451.452A7.978 7.978 0 0 0 8.735 14c0 4.424 3.603 8.026 8.027 8.026 4.424 0 8.026-3.602 8.026-8.026a8.008 8.008 0 0 0-1.718-4.96l.452-.452.061.062zm-6.82 11.517a6.172 6.172 0 0 1-6.164-6.164 6.172 6.172 0 0 1 6.164-6.164 6.172 6.172 0 0 1 6.163 6.164 6.172 6.172 0 0 1-6.163 6.164zM3.26 16.154a.796.796 0 0 0 0 1.591h4.315a.742.742 0 0 0 .242-.04 9.3 9.3 0 0 1-.493-1.556H3.259v.005zm4.551-5.84a.872.872 0 0 0-.236-.041H.795a.796.796 0 0 0 0 1.59h6.523a9.369 9.369 0 0 1 .493-1.55zm-.729 3.69c0-.267.016-.529.036-.79H1.904a.796.796 0 0 0 0 1.59h5.209c-.015-.261-.03-.528-.03-.8z"/><path d="M20.636 11.71a.49.49 0 0 0-.641-.19l-2.777 1.36a1.222 1.222 0 1 0 .154 2.181c.344-.205.55-.55.59-.913l2.53-1.781a.489.489 0 0 0 .144-.657zm-3.361 2.427a.54.54 0 0 1-.652.385.54.54 0 0 1-.385-.652.54.54 0 0 1 .652-.385c.287.072.457.37.385.652zm1.221-3.192c.241.139.55.051.683-.19a.498.498 0 0 0-.19-.682.502.502 0 1 0-.677.693.617.617 0 0 0 .184.18zm-1.766-.462a.5.5 0 1 0-.005-1 .5.5 0 0 0-.498.502.493.493 0 0 0 .503.498zm.068 7.052a.507.507 0 0 0-.431.754.5.5 0 0 0 .929-.262.494.494 0 0 0-.498-.492zm1.754-.488a.495.495 0 0 0-.174.683.496.496 0 0 0 .688.174.495.495 0 0 0 .174-.682.507.507 0 0 0-.688-.175zm1.961-1.487a.502.502 0 0 0-.677.692.478.478 0 0 0 .184.18.502.502 0 0 0 .493-.872zm-7.283-1.51a.503.503 0 0 0-.503-.498.507.507 0 0 0-.43.755.494.494 0 0 0 .435.246.493.493 0 0 0 .498-.503zm-.19 1.58zm7.247-1.652a.504.504 0 0 0 .508.498.5.5 0 1 0-.005-1 .5.5 0 0 0-.503.502zm-7.282-1.504a.5.5 0 0 0 .488-.872.504.504 0 0 0-.683.19.516.516 0 0 0 .005.503.533.533 0 0 0 .19.18zm1.955-1.493s.005 0 .005-.005c.005 0 .005 0 .005-.005h.005a.502.502 0 0 0-.513-.862s-.005 0-.005.005c-.005 0-.005.005-.01.005a.496.496 0 0 0-.175.683.504.504 0 0 0 .688.18zm.067 6.102a.503.503 0 1 0-.678.693.53.53 0 0 0 .185.185.504.504 0 0 0 .493-.878z"/></g><defs><clipPath id="clip0"><path fill="#fff" d="M0 0h25v25H0z"/></clipPath></defs></svg>