<svg width="22" height="23" fill="none" xmlns="http://www.w3.org/2000/svg"><path fill-rule="evenodd" clip-rule="evenodd" d="M11 1C4.935 1 0 5.935 0 12s4.935 11 11 11 11-4.935 11-11S17.065 1 11 1zm0 20.308c-5.132 0-9.308-4.176-9.308-9.308S5.868 2.692 11 2.692 20.308 6.868 20.308 12 16.132 21.308 11 21.308z" fill="#FDB932"/><path fill-rule="evenodd" clip-rule="evenodd" d="M11.845 11.59V5.86a.846.846 0 0 0-1.693 0V12a.85.85 0 0 0 .322.665l5.044 3.982a.849.849 0 0 0 1.19-.14.847.847 0 0 0-.14-1.189l-4.723-3.727z" fill="#FDB932"/></svg>