<svg width="18" height="18" fill="none" xmlns="http://www.w3.org/2000/svg"><g clip-path="url(#clip0)" fill="#FDB932"><path d="M16.227 15.463H1.812A1.804 1.804 0 0 1 0 13.65V4.349c0-1.006.805-1.812 1.812-1.812h14.375c1.006 0 1.812.806 1.812 1.812v9.302c.04 1.006-.806 1.812-1.772 1.812zM1.812 3.745a.62.62 0 0 0-.604.604v9.302a.62.62 0 0 0 .604.604h14.375a.62.62 0 0 0 .604-.604V4.349a.62.62 0 0 0-.604-.604H1.812z"/><path d="M9.022 11.235a.517.517 0 0 1-.403-.161L.566 3.947a.584.584 0 0 1-.04-.846.584.584 0 0 1 .845-.04l7.65 6.764 7.651-6.764c.242-.202.644-.202.846.04.2.242.2.644-.04.846l-8.054 7.127c-.12.08-.282.16-.402.16z"/><path d="M.726 14.899a.647.647 0 0 1-.443-.201.584.584 0 0 1 .04-.846l5.718-5.395a.584.584 0 0 1 .846.04.584.584 0 0 1-.04.845l-5.678 5.396c-.12.08-.282.161-.443.161zm16.55 0a.517.517 0 0 1-.403-.161l-5.718-5.396a.623.623 0 0 1-.04-.845.623.623 0 0 1 .846-.04l5.717 5.395a.623.623 0 0 1 .04.845.647.647 0 0 1-.442.202z"/></g><defs><clipPath id="clip0"><path fill="#fff" d="M0 0h18v18H0z"/></clipPath></defs></svg>