<svg width="26" height="26" fill="none" xmlns="http://www.w3.org/2000/svg"><path d="M13.033 14.734h.005a1 1 0 0 0 .547-.16l.042-.028c.01-.006.02-.011.029-.018l.495-.41 11.822-9.755a.139.139 0 0 0-.11-.057H.136a.134.134 0 0 0-.085.031L12.42 14.531c.156.13.379.203.613.203zM0 5.688v14.46l8.86-7.157L0 5.688zm17.15 7.352L26 20.152V5.737l-8.85 7.303zm-2.815 2.321c-.353.29-.814.45-1.299.45a2.06 2.06 0 0 1-1.3-.447L9.709 13.69 0 21.53v.026a.14.14 0 0 0 .14.138h25.723a.14.14 0 0 0 .137-.139v-.023l-9.7-7.793-1.965 1.622z" fill="#FDB932"/></svg>