<svg width="22" height="16" fill="none" xmlns="http://www.w3.org/2000/svg"><path d="M19.25.75H2.75A2.75 2.75 0 0 0 0 3.5v11a2.75 2.75 0 0 0 2.75 2.75h16.5A2.75 2.75 0 0 0 22 14.5v-11A2.75 2.75 0 0 0 19.25.75zm-4.527 7.338L20.544 3.1c.04.129.081.258.081.4v11c0 .095-.036.18-.055.27l-5.847-6.682zm4.527-5.963c.091 0 .172.035.258.052L11 9.47 2.492 2.177c.086-.017.167-.052.258-.052h16.5zM1.43 14.769c-.02-.09-.055-.174-.055-.269v-11c0-.142.041-.271.081-.4l5.82 4.987-5.847 6.682zm1.32 1.106c-.139 0-.265-.04-.392-.08L8.32 8.984l2.233 1.913a.68.68 0 0 0 .894 0l2.233-1.913 5.962 6.813c-.126.039-.252.079-.392.079H2.75z" fill="#FDB932"/></svg>