<svg width="11" height="9" fill="none" xmlns="http://www.w3.org/2000/svg"><path d="M10.947 4.31C10.86 4.167 8.775.76 5.5.76S.14 4.166.053 4.311a.367.367 0 0 0 0 .378C.14 4.834 2.225 8.241 5.5 8.241s5.36-3.407 5.447-3.552a.368.368 0 0 0 0-.378zM5.5 7.507c-2.446 0-4.222-2.32-4.693-3.006.47-.688 2.241-3.006 4.693-3.006 2.446 0 4.222 2.32 4.693 3.006-.47.688-2.241 3.006-4.693 3.006z" fill="#B6B6B6"/><path d="M5.5 3a1.5 1.5 0 1 0 0 3 1.5 1.5 0 0 0 0-3z" fill="#B6B6B6"/><path d="M5.5 2a2.5 2.5 0 1 0 0 5 2.5 2.5 0 0 0 0-5z" fill="#B6B6B6"/></svg>