<svg width="18" height="18" fill="none" xmlns="http://www.w3.org/2000/svg"><path d="M15.903 4.354H14.36a2.539 2.539 0 0 0 .38-3.175A2.524 2.524 0 0 0 12.594 0a2.52 2.52 0 0 0-1.352.393C10.35.956 9.396 3.108 9 4.081 8.603 3.108 7.649.956 6.758.393A2.524 2.524 0 0 0 5.405 0C4.531 0 3.73.441 3.262 1.18a2.542 2.542 0 0 0 .378 3.174H2.097a.46.46 0 0 0-.46.46V8.72c0 .255.206.46.46.46h.254v8.36c0 .254.205.46.46.46h12.378a.46.46 0 0 0 .46-.46V9.18h.254a.46.46 0 0 0 .46-.46V4.815a.46.46 0 0 0-.46-.46zm-.46 3.906h-4.298V5.275h4.298V8.26zm-5.219-2.985V8.26H7.776V5.275h2.448zm1.51-4.105a1.607 1.607 0 0 1 2.226.501c.475.754.25 1.752-.501 2.226-.159.1-.723.335-2.541.335-.363 0-.703-.01-.975-.022.502-1.186 1.271-2.711 1.792-3.04zm-7.695.501a1.608 1.608 0 0 1 2.226-.5c.52.328 1.29 1.853 1.792 3.04-.275.011-.617.021-.983.021C5.26 4.232 4.697 4 4.54 3.9a1.62 1.62 0 0 1-.502-2.229zM2.557 5.275h4.298V8.26H2.557V5.275zm.714 3.906h3.584v7.899H3.271v-7.9zm4.505 7.899v-7.9h2.448v7.9H7.776zm6.953 0h-3.584v-7.9h3.584v7.9z" fill="#075D74"/></svg>