<svg width="23" height="23" fill="none" xmlns="http://www.w3.org/2000/svg"><g clip-path="url(#clip0)" fill="#fff"><path d="M5.097 13.9l-.8 2.988-2.926.062A11.449 11.449 0 0 1 0 11.5c0-1.907.464-3.705 1.286-5.29l2.606.478 1.14 2.59a6.836 6.836 0 0 0-.368 2.22c0 .845.153 1.654.433 2.4zM22.8 9.352a11.522 11.522 0 0 1-.05 4.55 11.497 11.497 0 0 1-4.05 6.566l-3.281-.168-.465-2.9a6.854 6.854 0 0 0 2.95-3.499h-6.15v-4.55H22.8z"/><path d="M18.7 20.467v.001A11.452 11.452 0 0 1 11.5 23a11.498 11.498 0 0 1-10.129-6.05l3.727-3.05a6.838 6.838 0 0 0 9.856 3.501l3.745 3.066zm.14-17.819l-3.726 3.05a6.84 6.84 0 0 0-10.082 3.58L1.286 6.211A11.498 11.498 0 0 1 11.498 0c2.79 0 5.35.994 7.34 2.648z"/></g><defs><clipPath id="clip0"><path fill="#fff" d="M0 0h23v23H0z"/></clipPath></defs></svg>