<svg width="12" height="12" fill="none" xmlns="http://www.w3.org/2000/svg"><path d="M12 7.297v4.436H9.428V7.594c0-1.04-.372-1.75-1.303-1.75-.71 0-1.134.479-1.32.941-.067.166-.085.396-.085.627v4.321H4.147s.035-7.01 0-7.737H6.72v1.097l-.017.025h.017v-.025c.342-.526.952-1.279 2.318-1.279C10.731 3.814 12 4.92 12 7.297zM1.456.267C.576.267 0 .844 0 1.603c0 .743.559 1.338 1.422 1.338h.017c.897 0 1.455-.595 1.455-1.338C2.877.843 2.336.267 1.456.267zM.153 11.733h2.572V3.996H.153v7.737z" fill="#fff"/></svg>