<svg width="15" height="17" fill="none" xmlns="http://www.w3.org/2000/svg"><path d="M13.108 6.865h-.331v-1.55c0-2.867-2.276-5.263-5.12-5.314a11.515 11.515 0 0 0-.31 0c-2.845.051-5.12 2.447-5.12 5.314v1.55h-.331c-.51 0-.927.527-.927 1.178v7.776c0 .65.416 1.181.927 1.181h11.212c.51 0 .927-.532.927-1.181V8.043c0-.65-.416-1.178-.927-1.178zm-4.556 5.058v2.35a.501.501 0 0 1-.494.496H6.946a.502.502 0 0 1-.495-.497v-2.35a1.398 1.398 0 0 1-.413-1.005c0-.745.576-1.385 1.309-1.415a5.34 5.34 0 0 1 .31 0c.733.03 1.309.67 1.309 1.415 0 .393-.152.749-.414 1.006zm2.042-5.058H4.41v-1.55c0-1.708 1.388-3.12 3.092-3.12 1.703 0 3.092 1.412 3.092 3.12v1.55z" fill="#B6B6B6"/></svg>