<svg width="16" height="12" fill="none" xmlns="http://www.w3.org/2000/svg"><path d="M8.02 7.067h.004c.12 0 .24-.035.336-.099l.026-.017.018-.01.304-.253L15.983.685a.085.085 0 0 0-.068-.035H.085a.082.082 0 0 0-.053.019l7.611 6.273c.096.08.233.125.377.125zM0 1.501v8.898l5.452-4.404L0 1.5zm10.553 4.524L16 10.4V1.53l-5.447 4.494zM8.822 7.453a1.26 1.26 0 0 1-.8.276c-.299 0-.583-.097-.8-.274l-1.248-1.03L0 11.25v.015c0 .046.04.085.086.085h15.83a.086.086 0 0 0 .084-.085v-.014l-5.969-4.796-1.21.998z" fill="#fff"/></svg>