<svg width="36" height="36" fill="none" xmlns="http://www.w3.org/2000/svg"><path d="M11.127 16.822c-.552 0-.974.177-.974.177l-.117.693s.349-.142.876-.142c.3 0 .519.034.519.277 0 .148-.027.203-.027.203s-.236-.02-.345-.02c-.696 0-1.426.296-1.426 1.192 0 .705.479.866.776.866.567 0 .812-.367.825-.368l-.027.307h.708l.316-2.214c0-.94-.82-.971-1.104-.971zm-.398 2.573c-.249 0-.314-.19-.314-.304 0-.22.12-.485.708-.485.138.001.153.015.176.02.015.135-.085.769-.57.769zm2.956-1.83c.113 0 .549.035.549.035l.101-.71s-.282-.062-.742-.062c-.595 0-1.198.238-1.198 1.05 0 .92 1.007.827 1.007 1.216 0 .258-.282.28-.498.28-.376 0-.714-.129-.715-.123l-.107.703c.02.006.228.098.902.098.181 0 1.216.047 1.216-1.021 0-1-.958-.802-.958-1.204 0-.2.156-.262.443-.262zm1.693.09h.426l.102-.756h-.4l.081-.47h-.804c-.018.018-.474 2.645-.474 2.964 0 .475.266.685.64.682.294-.002.523-.084.603-.106l.1-.684c-.054 0-.135.024-.207.024-.28 0-.31-.15-.292-.26l.225-1.394zm3.369-4.389h-1.435c-.193.26-.374.538-.539.809h2.56a7.653 7.653 0 0 0-.586-.809zm1.02 1.602h-3.442c-.22.417-.366.731-.407.81h4.175a7.627 7.627 0 0 0-.326-.81zM8.65 16.182l-.793 2.35-.04-2.35H6.642L6 20.01h.776l.489-2.887.072 2.887h.554l1.033-2.887-.458 2.887h.823l.634-3.83H8.65zm15.513.64c-.553 0-.974.177-.974.177l-.118.693s.35-.142.877-.142c.3 0 .518.034.518.277a.503.503 0 0 1-.027.203s-.236-.02-.346-.02c-.695 0-1.425.296-1.425 1.192 0 .705.48.866.776.866.567 0 .812-.367.825-.368l-.026.307h.707l.316-2.214c.001-.94-.819-.971-1.103-.971zm-.396 2.573c-.25 0-.315-.19-.315-.304 0-.22.12-.485.709-.485.137.001.151.015.175.02.015.135-.086.769-.57.769zm6.2.263a.22.22 0 0 0-.092-.09.244.244 0 1 0-.24.424.246.246 0 0 0 .332-.091.235.235 0 0 0 .032-.121.24.24 0 0 0-.032-.122zm-.034.223a.207.207 0 0 1-.176.103.206.206 0 0 1-.204-.205.2.2 0 0 1 .028-.101.204.204 0 0 1 .352.203z" fill="#898989"/><path d="M29.838 19.863a.33.33 0 0 0-.039-.052.06.06 0 0 0-.022-.014.08.08 0 0 0 .054-.024.072.072 0 0 0 .02-.05.067.067 0 0 0-.012-.038.074.074 0 0 0-.032-.026.202.202 0 0 0-.067-.008h-.092v.263h.043v-.112h.025c.015 0 .027.003.034.01a.216.216 0 0 1 .045.061l.022.041h.053l-.032-.051zm-.094-.097h-.052v-.08h.048c.021 0 .035.002.043.005a.041.041 0 0 1 .017.014.034.034 0 0 1 .007.021.039.039 0 0 1-.013.029c-.01.009-.026.011-.05.011zm-2.848-2.906c-.36 0-.627.491-.627.491l.072-.451h-.75l-.501 3.116h.825c.235-1.331.278-2.411.836-2.214.098-.515.193-.714.3-.931 0 0-.05-.01-.155-.01zm2.073-.674l-.174 1.076s-.302-.419-.776-.419c-.737 0-1.351.89-1.351 1.91 0 .659.328 1.304.997 1.304.482 0 .748-.336.748-.336l-.035.287h.782l.615-3.824-.806.002zm-1.02 3.09c-.29 0-.425-.243-.425-.625 0-.623.28-1.034.633-1.034.29 0 .438.199.438.666 0 .425-.21.992-.646.992zm-10.722 3.587c.239.293.492.572.772.825l.019-.016h.001c.275-.251.532-.521.767-.81h-1.56zm1.025-4.145s.106-.521.106-.733c0-.53-.264-1.176-1.146-1.176-.809 0-1.407.871-1.407 1.856 0 1.136.75 1.406 1.389 1.406.59 0 .849-.132.849-.132l.142-.775s-.449.198-.854.198c-.864 0-.712-.644-.712-.644h1.633zm-1.037-1.188c.453 0 .37.51.37.55h-.893c0-.052.084-.55.523-.55zm4.809-.614c.409 0 .737.23.737.23l.132-.853s-.487-.197-.906-.197c-.928 0-1.83.806-1.83 2.318 0 1.003.486 1.666 1.446 1.666.271 0 .703-.11.703-.11l.144-.878s-.394.198-.665.198c-.57 0-.8-.436-.8-.903 0-.95.492-1.471 1.039-1.471zm-5.805 4.36c.13.28.283.548.446.809h2.68c.162-.26.308-.53.439-.809h-3.565zm3.926-4.415c-.36 0-.627.491-.627.491l.072-.451h-.748l-.502 3.116h.825c.234-1.33.278-2.411.836-2.214.098-.515.192-.715.299-.933 0 0-.05-.01-.155-.009z" fill="#898989"/><path d="M35.073 6.335H.927A.926.926 0 0 0 0 7.262v21.477c0 .511.414.927.927.927h34.146a.926.926 0 0 0 .927-.927V7.262a.926.926 0 0 0-.927-.927zm-2.305 16.941a.277.277 0 0 1-.11.112.303.303 0 0 1-.297 0 .298.298 0 1 1 .407-.112zM33.436 18a9.238 9.238 0 0 1-15.438 6.852 9.201 9.201 0 0 1-6.194 2.388c-5.1 0-9.238-4.139-9.238-9.24 0-5.08 4.106-9.206 9.18-9.24h.059c2.382 0 4.554.905 6.194 2.388a9.239 9.239 0 0 1 15.438 6.848l-.001.004z" fill="#898989"/></svg>