<svg width="12" height="10" fill="none" xmlns="http://www.w3.org/2000/svg"><path d="M1.5 0h-1C.2 0 0 .2 0 .5v1c0 .3.2.5.5.5h1c.3 0 .5-.2.5-.5v-1c0-.3-.2-.5-.5-.5zm0 4h-1c-.3 0-.5.2-.5.5v1c0 .3.2.5.5.5h1c.3 0 .5-.2.5-.5v-1c0-.3-.2-.5-.5-.5zm0 4h-1c-.3 0-.5.2-.5.5v1c0 .3.2.5.5.5h1c.3 0 .5-.2.5-.5v-1c0-.3-.2-.5-.5-.5zm10-8h-7c-.3 0-.5.2-.5.5v1c0 .3.2.5.5.5h7c.3 0 .5-.2.5-.5v-1c0-.3-.2-.5-.5-.5zm0 4h-7c-.3 0-.5.2-.5.5v1c0 .3.2.5.5.5h7c.3 0 .5-.2.5-.5v-1c0-.3-.2-.5-.5-.5zm0 4h-7c-.3 0-.5.2-.5.5v1c0 .3.2.5.5.5h7c.3 0 .5-.2.5-.5v-1c0-.3-.2-.5-.5-.5z" fill="#333"/></svg>