<svg width="12" height="12" fill="none" xmlns="http://www.w3.org/2000/svg"><path d="M11.152 8.626c-.355-.354-.947-.663-1.882-1.13-.47-.236-1.255-.628-1.445-.807.796-.978 1.258-2.083 1.258-3.05 0-.657 0-1.473-.367-2.202C8.385.782 7.645 0 6 0 4.355 0 3.615.782 3.285 1.437c-.368.729-.368 1.545-.368 2.202 0 .967.461 2.072 1.258 3.05-.19.18-.975.572-1.446.807-.934.467-1.526.776-1.88 1.13C.062 9.411.003 10.73 0 10.985A1 1 0 0 0 1 12h10a1 1 0 0 0 1-1.015c-.004-.256-.064-1.574-.848-2.359z" fill="#333"/></svg>