<svg width="18" height="18" fill="none" xmlns="http://www.w3.org/2000/svg"><path d="M15.367 3.073c-3.511-3.218-9.224-3.218-12.734 0-3.51 3.216-3.51 8.452 0 11.67 3.51 3.216 9.223 3.216 12.734-.001 3.51-3.217 3.51-8.452 0-11.669zm-.983 10.769c-2.969 2.72-7.8 2.721-10.769 0-2.97-2.721-2.97-7.149 0-9.87 2.97-2.72 7.8-2.72 10.77 0 2.969 2.722 2.969 7.15 0 9.87zM5.641 6.674c0-.532.472-.964 1.053-.964.58 0 1.052.431 1.052.964 0 .533-.471.965-1.052.965-.581 0-1.053-.432-1.053-.965zm4.772 0c0-.532.472-.964 1.053-.964.58 0 1.052.431 1.052.964 0 .533-.471.965-1.052.965-.581 0-1.053-.432-1.053-.965zm2.488 3.95c-.652 1.382-2.18 2.275-3.89 2.275-1.75 0-3.286-.897-3.915-2.286-.108-.238.015-.511.275-.61a.552.552 0 0 1 .195-.036c.2 0 .389.108.47.288.472 1.04 1.639 1.711 2.974 1.711 1.305 0 2.466-.672 2.957-1.712.111-.237.411-.346.669-.243.258.102.377.377.265.613z" fill="#DADADA"/></svg>