<svg width="16" height="14" fill="none" xmlns="http://www.w3.org/2000/svg"><path d="M16 2.038a6.564 6.564 0 0 1-1.885.517A3.293 3.293 0 0 0 15.558.739a6.572 6.572 0 0 1-2.085.796A3.283 3.283 0 0 0 7.88 4.53 9.32 9.32 0 0 1 1.115 1.1 3.281 3.281 0 0 0 2.13 5.482a3.27 3.27 0 0 1-1.487-.41v.04a3.285 3.285 0 0 0 2.633 3.22 3.29 3.29 0 0 1-1.483.055 3.286 3.286 0 0 0 3.067 2.28A6.586 6.586 0 0 1 0 12.027 9.29 9.29 0 0 0 5.032 13.5c6.038 0 9.34-5.002 9.34-9.34a9.5 9.5 0 0 0-.01-.424A6.669 6.669 0 0 0 16 2.037z" fill="#fff"/></svg>