<svg width="38" height="24" fill="none" xmlns="http://www.w3.org/2000/svg"><path d="M8.727 9.618l.874 6.267h2.15l4.003-7.76h-2.258l-1.7 3.598c-.241.511-.45.974-.628 1.397a55.129 55.129 0 0 0-.112-1.31l-.347-3.685H7.277l3.571 2.826-2.121-1.333zm8.569 6.266l1.472-7.759h-2.02l-1.475 7.76h2.023zm1.184-.457c.473.355 1.306.567 2.227.567 1.912 0 3.195-1.08 3.195-2.686 0-.879-.513-1.576-1.565-2.128-.592-.33-.949-.553-.949-.833 0-.262.276-.544.926-.544.633 0 1.122.247 1.21.297l.231.127.646-1.73-.17-.093c-.482-.266-1.082-.397-1.832-.397-1.831 0-3.11 1.07-3.11 2.6 0 1.111.874 1.728 1.64 2.14.722.374.863.588.863.83 0 .466-.504.632-.934.632-.563 0-1.148-.16-1.607-.434l-.228-.137-.683 1.684.14.105zm7.373.457l.868-1.896h1.75l.152 1.896h2.1l-.91-7.759h-2.349l-3.776 7.76h2.165zm2.11-4.794c.08-.175.164-.372.245-.58l.04.507.12 1.327h-.982l.577-1.254z" fill="#898989"/><path d="M38 23.63H0V.37h38v23.26zm-36.8-1.2h35.6V1.57H1.2v20.86z" fill="#898989"/></svg>